<?xml version="1.0" encoding="UTF-8" standalone="no"?>
<!DOCTYPE svg PUBLIC "-//W3C//DTD SVG 20010904//EN"
"http://www.w3.org/TR/2001/REC-SVG-20010904/DTD/svg10.dtd">
<!-- Created with Sodipodi ("http://www.sodipodi.com/") -->
<svg
   version="1"
   x="0.00000000"
   y="0.00000000"
   width="90.0000000"
   height="90.0000000"
   id="svg548"
   sodipodi:version="0.32"
   sodipodi:docname="gnome-fs-executable.svg"
   sodipodi:docbase="/home/zeus/.icons/gartoon/scalable/filesystems"
   xmlns="http://www.w3.org/2000/svg"
   xmlns:sodipodi="http://sodipodi.sourceforge.net/DTD/sodipodi-0.dtd"
   xmlns:xlink="http://www.w3.org/1999/xlink"
   xmlns:inkscape="http://www.inkscape.org/namespaces/inkscape"
   inkscape:version="0.40"
   xmlns:rdf="http://www.w3.org/1999/02/22-rdf-syntax-ns#"
   xmlns:cc="http://web.resource.org/cc/"
   xmlns:dc="http://purl.org/dc/elements/1.1/">
  <metadata
     id="metadata18">
    <rdf:RDF
       id="RDF19">
      <cc:Work
         rdf:about=""
         id="Work20">
        <dc:format
           id="format21">image/svg+xml</dc:format>
        <dc:type
           id="type23"
           rdf:resource="http://purl.org/dc/dcmitype/StillImage" />
      </cc:Work>
    </rdf:RDF>
  </metadata>
  <sodipodi:namedview
     id="base"
     inkscape:zoom="2.5208333"
     inkscape:cx="34.288064"
     inkscape:cy="56.314502"
     inkscape:window-width="734"
     inkscape:window-height="537"
     inkscape:window-x="5"
     inkscape:window-y="46"
     inkscape:current-layer="svg548" />
  <defs
     id="defs550">
    <linearGradient
       id="linearGradient1828">
      <stop
         style="stop-color:#ffc93f;stop-opacity:1.0000000;"
         offset="0.0000000"
         id="stop1829" />
      <stop
         style="stop-color:#f1e36c;stop-opacity:1.0000000;"
         offset="1.0000000"
         id="stop1830" />
    </linearGradient>
    <linearGradient
       id="linearGradient1825">
      <stop
         offset="0.0000000"
         style="stop-color:#ffd800;stop-opacity:1.0000000;"
         id="stop1827" />
      <stop
         offset="1.0000000"
         style="stop-color:#ffd58f;stop-opacity:0.0000000;"
         id="stop1826" />
    </linearGradient>
    <linearGradient
       x1="0.00000000"
       y1="0.00000000"
       x2="1.00000000"
       y2="0.00000000"
       id="linearGradient632"
       gradientUnits="objectBoundingBox"
       spreadMethod="pad">
      <stop
         style="stop-color:#ffb700;stop-opacity:1;"
         offset="0.00000000"
         id="stop633" />
      <stop
         style="stop-color:#ffd58f;stop-opacity:0;"
         offset="1.00000000"
         id="stop634" />
    </linearGradient>
    <linearGradient
       x1="0.00000000"
       y1="0.00000000"
       x2="1.00000000"
       y2="0.00000000"
       id="linearGradient556"
       gradientUnits="objectBoundingBox"
       spreadMethod="pad">
      <stop
         style="stop-color:#000000;stop-opacity:1;"
         offset="0.00000000"
         id="stop557" />
      <stop
         style="stop-color:#bdf2ff;stop-opacity:0.384314;"
         offset="1.00000000"
         id="stop558" />
    </linearGradient>
    <linearGradient
       x1="60.6446152"
       y1="19.2956886"
       x2="35.3705750"
       y2="69.1427994"
       id="linearGradient559"
       xlink:href="#linearGradient632"
       gradientUnits="userSpaceOnUse"
       spreadMethod="pad"
       gradientTransform="matrix(1.418885,-0.200635,0.127692,1.110535,-136.7997,-1.332303)" />
    <linearGradient
       x1="85.6376572"
       y1="17.4438438"
       x2="73.9162979"
       y2="54.6281815"
       id="linearGradient631"
       xlink:href="#linearGradient632"
       gradientUnits="userSpaceOnUse"
       gradientTransform="matrix(1.050920,-0.148604,0.172402,1.499373,-123.6994,-3.008376)"
       spreadMethod="pad" />
    <defs
       id="defs3">
      <sodipodi:namedview
         id="namedview909" />
      <defs
         id="defs1721">
        <linearGradient
           x1="0.0000000"
           y1="0.0000000"
           x2="1.0000000"
           y2="0.0000000"
           id="linearGradient1722"
           gradientUnits="objectBoundingBox"
           spreadMethod="pad"
           xlink:href="#linearGradient1825" />
        <linearGradient
           x1="0.0000000"
           y1="0.0000000"
           x2="1.0000000"
           y2="0.0000000"
           id="linearGradient1725"
           gradientUnits="objectBoundingBox"
           spreadMethod="pad">
          <stop
             style="stop-color:#000000;stop-opacity:1;"
             offset="0.000000"
             id="stop1726" />
          <stop
             style="stop-color:#bdf2ff;stop-opacity:0.384314;"
             offset="1.000000"
             id="stop1727" />
        </linearGradient>
        <linearGradient
           id="linearGradient1728"
           xlink:href="#linearGradient632"
           x1="60.644615"
           y1="19.295689"
           x2="35.370575"
           y2="69.142799"
           gradientUnits="userSpaceOnUse"
           spreadMethod="pad" />
        <linearGradient
           xlink:href="#linearGradient632"
           id="linearGradient1729"
           x1="85.637657"
           y1="17.443844"
           x2="73.916298"
           y2="54.628181"
           gradientUnits="userSpaceOnUse"
           spreadMethod="pad"
           gradientTransform="scale(0.740666,1.350136)" />
      </defs>
    </defs>
    <sodipodi:namedview
       id="namedview1730"
       pagecolor="#ffffff"
       bordercolor="#666666"
       borderopacity="1.0"
       inkscape:pageopacity="0.0"
       inkscape:pageshadow="2"
       inkscape:zoom="2.4559706"
       inkscape:cx="113.94414"
       inkscape:cy="73.007956"
       inkscape:window-width="812"
       inkscape:window-height="560"
       inkscape:window-x="103"
       inkscape:window-y="56" />
    <metadata
       id="metadata4">
      <rdf:RDF
         id="RDF5">
        <cc:Work
           rdf:about=""
           id="Work6">
          <dc:format
             id="format7">image/svg+xml</dc:format>
          <dc:type
             id="type9"
             rdf:resource="http://purl.org/dc/dcmitype/StillImage" />
        </cc:Work>
      </rdf:RDF>
    </metadata>
    <linearGradient
       inkscape:collect="always"
       xlink:href="#linearGradient1828"
       id="linearGradient1831"
       gradientTransform="matrix(0.563776,0.000000,0.000000,0.563788,50.39821,45.07308)"
       x1="32.051327"
       y1="14.657825"
       x2="32.051327"
       y2="75.934349"
       gradientUnits="userSpaceOnUse" />
    <linearGradient
       inkscape:collect="always"
       xlink:href="#linearGradient1828"
       id="linearGradient1857"
       gradientUnits="userSpaceOnUse"
       gradientTransform="matrix(0.999990,0.000000,0.000000,1.000010,-0.701263,-7.713892)"
       x1="32.051327"
       y1="14.657825"
       x2="32.051327"
       y2="75.934349" />
    <linearGradient
       inkscape:collect="always"
       xlink:href="#linearGradient1828"
       id="linearGradient1865"
       gradientUnits="userSpaceOnUse"
       gradientTransform="matrix(0.500064,0.000000,0.000000,0.500075,52.06230,47.59928)"
       x1="32.051327"
       y1="14.657825"
       x2="32.051327"
       y2="75.934349" />
  </defs>
  <path
     style="fill:#000000;fill-opacity:0.34444442;stroke:none;stroke-width:3.8674629;stroke-linecap:round;stroke-linejoin:round;stroke-miterlimit:4.0000000;stroke-opacity:1.0000000"
     d="M 45.318751,7.3776937 C 42.431590,6.5443746 39.448495,8.1911520 38.615176,11.078313 L 37.375116,15.374687 C 36.162316,15.412638 34.970577,15.525313 33.794884,15.750193 L 31.647204,11.859727 C 30.194919,9.2289490 26.892861,8.2758790 24.262084,9.7281640 L 21.412347,11.320846 C 18.781570,12.773131 17.835201,16.051965 19.287487,18.682743 L 21.418647,22.543283 C 20.589864,23.416188 19.836369,24.353276 19.146658,25.359370 L 14.943178,24.146122 C 12.056016,23.312803 9.0429955,24.976101 8.2096762,27.863261 L 7.3047672,30.998454 C 6.4714475,33.885616 8.1414480,36.875413 11.028610,37.708732 L 15.139195,38.895168 C 15.171391,40.152160 15.294743,41.387350 15.527633,42.604925 L 11.786799,44.670002 C 9.1560225,46.122287 8.2096525,49.401121 9.6619397,52.031898 L 11.254622,54.881635 C 12.706906,57.512414 15.985742,58.458781 18.616519,57.006495 L 22.297499,54.974459 C 23.215383,55.846827 24.191024,56.645116 25.256042,57.363041 L 24.096418,61.380731 C 23.263099,64.267892 24.909876,67.250988 27.797037,68.084306 L 30.932230,68.989215 C 33.819392,69.822535 36.802488,68.175757 37.635805,65.288597 L 38.802132,61.247682 C 40.075599,61.206326 41.316691,61.066630 42.548518,60.819499 L 44.580554,64.500479 C 46.032842,67.131259 49.311671,68.077623 51.942451,66.625339 L 54.808708,65.062583 C 57.439486,63.610295 58.392558,60.308241 56.940271,57.677463 L 54.891715,53.966557 C 55.737594,53.060346 56.500164,52.080859 57.197219,51.034351 L 61.307805,52.220787 C 64.194965,53.054106 67.178057,51.407329 68.011380,48.520168 L 68.916289,45.384975 C 69.749608,42.497814 68.109535,39.491496 65.222373,38.658177 L 61.018892,37.444929 C 60.971222,36.222146 60.811231,35.028493 60.573715,33.844587 L 64.434255,31.713428 C 67.065034,30.261143 68.011401,26.982308 66.559115,24.351531 L 64.996360,21.485274 C 63.544072,18.854496 60.265241,17.908128 57.634463,19.360414 L 53.714070,21.524615 C 52.842191,20.709961 51.916628,19.959754 50.914503,19.282552 L 52.154563,14.986178 C 52.987882,12.099017 51.341105,9.1159230 48.453944,8.2826030 L 45.318751,7.3776937 z M 41.157054,27.636569 C 47.054369,29.338705 50.458676,35.505524 48.756538,41.402836 C 47.054399,47.300151 40.887582,50.704461 34.990269,49.002323 C 29.092955,47.300185 25.688645,41.133366 27.390784,35.236051 C 29.092922,29.338739 35.259739,25.934430 41.157054,27.636569 z "
     id="path1858" />
  <path
     style="fill:url(#linearGradient1857);fill-opacity:1.0000000;stroke:#593a28;stroke-width:3.8674629;stroke-linecap:round;stroke-linejoin:round;stroke-miterlimit:4.0000000;stroke-opacity:1.0000000"
     d="M 40.855941,2.9148838 C 37.968780,2.0815647 34.985685,3.7283418 34.152366,6.6155028 L 32.912306,10.911877 C 31.699506,10.949828 30.507767,11.062503 29.332074,11.287383 L 27.184394,7.3969168 C 25.732109,4.7661388 22.430051,3.8130688 19.799274,5.2653538 L 16.949537,6.8580358 C 14.318760,8.3103208 13.372391,11.589155 14.824677,14.219933 L 16.955837,18.080473 C 16.127054,18.953378 15.373559,19.890466 14.683848,20.896560 L 10.480368,19.683312 C 7.5932064,18.849993 4.5801856,20.513291 3.7468663,23.400451 L 2.8419573,26.535644 C 2.0086376,29.422806 3.6786381,32.412603 6.5657996,33.245922 L 10.676385,34.432358 C 10.708581,35.689350 10.831933,36.924540 11.064823,38.142115 L 7.3239895,40.207192 C 4.6932126,41.659477 3.7468426,44.938311 5.1991298,47.569088 L 6.7918116,50.418825 C 8.2440962,53.049604 11.522932,53.995971 14.153709,52.543685 L 17.834689,50.511649 C 18.752573,51.384017 19.728214,52.182306 20.793232,52.900231 L 19.633608,56.917921 C 18.800289,59.805082 20.447066,62.788178 23.334227,63.621496 L 26.469420,64.526405 C 29.356582,65.359725 32.339678,63.712947 33.172995,60.825787 L 34.339322,56.784872 C 35.612789,56.743516 36.853881,56.603820 38.085708,56.356689 L 40.117744,60.037669 C 41.570032,62.668449 44.848861,63.614813 47.479641,62.162529 L 50.345898,60.599773 C 52.976676,59.147485 53.929748,55.845431 52.477461,53.214653 L 50.428905,49.503747 C 51.274784,48.597536 52.037354,47.618049 52.734409,46.571541 L 56.844995,47.757977 C 59.732155,48.591296 62.715247,46.944519 63.548570,44.057358 L 64.453479,40.922165 C 65.286798,38.035004 63.646725,35.028686 60.759563,34.195367 L 56.556082,32.982119 C 56.508412,31.759336 56.348421,30.565683 56.110905,29.381777 L 59.971445,27.250618 C 62.602224,25.798333 63.548591,22.519498 62.096305,19.888721 L 60.533550,17.022464 C 59.081262,14.391686 55.802431,13.445318 53.171653,14.897604 L 49.251260,17.061805 C 48.379381,16.247151 47.453818,15.496944 46.451693,14.819742 L 47.691753,10.523368 C 48.525072,7.6362068 46.878295,4.6531128 43.991134,3.8197928 L 40.855941,2.9148838 z M 36.694244,23.173759 C 42.591559,24.875895 45.995866,31.042714 44.293728,36.940026 C 42.591589,42.837341 36.424772,46.241651 30.527459,44.539513 C 24.630145,42.837375 21.225835,36.670556 22.927974,30.773241 C 24.630112,24.875929 30.796929,21.471620 36.694244,23.173759 z "
     id="path1856" />
  <path
     style="fill:#000000;fill-opacity:0.34444442;stroke:none;stroke-width:3.8674629;stroke-linecap:round;stroke-linejoin:round;stroke-miterlimit:4.0000000;stroke-opacity:1.0000000"
     d="M 75.075514,55.146125 C 73.631733,54.729407 72.139977,55.552910 71.723260,56.996691 L 71.103143,59.145178 C 70.496659,59.164156 69.900707,59.220501 69.312778,59.332957 L 68.238789,57.387453 C 67.512545,56.071881 65.861286,55.595280 64.545714,56.321524 L 63.120647,57.117975 C 61.805076,57.844219 61.331825,59.483864 62.058069,60.799436 L 63.123798,62.729976 C 62.709348,63.166488 62.332548,63.635098 61.987644,64.138215 L 59.885612,63.531507 C 58.441829,63.114789 56.935110,63.946554 56.518391,65.390335 L 56.065874,66.958150 C 55.649156,68.401932 56.484273,69.897039 57.928055,70.313756 L 59.983634,70.907057 C 59.999734,71.535640 60.061419,72.153322 60.177880,72.762194 L 58.307202,73.794876 C 56.991631,74.521120 56.518380,76.160766 57.244624,77.476337 L 58.041077,78.901404 C 58.767320,80.216978 60.406966,80.690227 61.722539,79.963983 L 63.563284,78.947823 C 64.022290,79.384068 64.510179,79.783268 65.042762,80.142280 L 64.462870,82.151405 C 64.046152,83.595187 64.869655,85.086943 66.313437,85.503659 L 67.881252,85.956177 C 69.325034,86.372895 70.816790,85.549391 71.233507,84.105610 L 71.816751,82.084872 C 72.453573,82.064190 73.074206,81.994332 73.690205,81.870750 L 74.706365,83.711497 C 75.432609,85.027070 77.072253,85.500319 78.387826,84.774074 L 79.821154,83.992587 C 81.136726,83.266343 81.613329,81.615085 80.887084,80.299514 L 79.862664,78.443802 C 80.285662,77.990633 80.667000,77.500821 81.015576,76.977494 L 83.071155,77.570795 C 84.514937,77.987513 86.006690,77.164010 86.423408,75.720227 L 86.875926,74.152413 C 87.292644,72.708632 86.472494,71.205263 85.028713,70.788546 L 82.926680,70.181837 C 82.902842,69.570360 82.822836,68.973450 82.704060,68.381415 L 84.634598,67.315686 C 85.950172,66.589443 86.423422,64.949797 85.697177,63.634225 L 84.915687,62.200898 C 84.189446,60.885325 82.549803,60.412075 81.234228,61.138319 L 79.273759,62.220570 C 78.837759,61.813187 78.374913,61.438031 77.873780,61.099383 L 78.493897,58.950897 C 78.910615,57.507115 78.087111,56.015360 76.643330,55.598642 L 75.075514,55.146125 z M 72.994376,65.276973 C 75.943444,66.128160 77.645835,69.211999 76.794647,72.161066 C 75.943460,75.110135 72.859621,76.812526 69.910554,75.961339 C 66.961486,75.110151 65.259094,72.026312 66.110282,69.077244 C 66.961470,66.128177 70.045308,64.425785 72.994376,65.276973 z "
     id="path1863" />
  <path
     style="fill:url(#linearGradient1865);fill-opacity:1.0000000;stroke:#593a28;stroke-width:1.9340008;stroke-linecap:round;stroke-linejoin:round;stroke-miterlimit:4.0000000;stroke-opacity:1.0000000"
     d="M 72.843798,52.914409 C 71.400017,52.497691 69.908261,53.321194 69.491544,54.764976 L 68.871428,56.913462 C 68.264943,56.932440 67.668991,56.988785 67.081063,57.101241 L 66.007073,55.155737 C 65.280829,53.840164 63.629570,53.363564 62.313998,54.089807 L 60.888931,54.886259 C 59.573360,55.612503 59.100109,57.252149 59.826353,58.567721 L 60.892081,60.498260 C 60.477632,60.934773 60.100833,61.403382 59.755929,61.906500 L 57.653896,61.299791 C 56.210113,60.883074 54.703393,61.714838 54.286675,63.158619 L 53.834158,64.726434 C 53.417440,66.170216 54.252557,67.665323 55.696339,68.082041 L 57.751918,68.675341 C 57.768018,69.303924 57.829703,69.921606 57.946164,70.530478 L 56.075486,71.563160 C 54.759915,72.289404 54.286664,73.929050 55.012909,75.244622 L 55.809360,76.669688 C 56.535604,77.985261 58.175250,78.458511 59.490823,77.732266 L 61.331569,76.716107 C 61.790574,77.152352 62.278463,77.551552 62.811046,77.910564 L 62.231153,79.919689 C 61.814436,81.363471 62.637940,82.855227 64.081721,83.271944 L 65.649536,83.724461 C 67.093318,84.141179 68.585073,83.317676 69.001791,81.873894 L 69.585035,79.853156 C 70.221857,79.832474 70.842490,79.762617 71.458489,79.639034 L 72.474649,81.479781 C 73.200894,82.795354 74.840537,83.268602 76.156110,82.542359 L 77.589439,81.760872 C 78.905011,81.034627 79.381613,79.383370 78.655368,78.067798 L 77.630948,76.212086 C 78.053946,75.758917 78.435284,75.269106 78.783860,74.745778 L 80.839439,75.339079 C 82.283221,75.755797 83.774973,74.932294 84.191692,73.488512 L 84.644210,71.920697 C 85.060928,70.476915 84.240778,68.973547 82.796998,68.556829 L 80.694963,67.950121 C 80.671125,67.338644 80.591118,66.741734 80.472344,66.149699 L 82.402882,65.083971 C 83.718456,64.357728 84.191707,62.718081 83.465461,61.402510 L 82.683972,59.969181 C 81.957730,58.653609 80.318085,58.180360 79.002512,58.906603 L 77.042043,59.988854 C 76.606043,59.581470 76.143197,59.206315 75.642064,58.867667 L 76.262181,56.719181 C 76.678899,55.275399 75.855395,53.783644 74.411614,53.366926 L 72.843798,52.914409 z M 70.762660,63.045258 C 73.711729,63.896444 75.414120,66.980283 74.562932,69.929350 C 73.711743,72.878419 70.627905,74.580810 67.678838,73.729623 C 64.729770,72.878435 63.027378,69.794596 63.878566,66.845527 C 64.729754,63.896461 67.813592,62.194069 70.762660,63.045258 z "
     id="path1864" />
</svg>
