<?xml version="1.0" encoding="UTF-8" standalone="no"?>
<!DOCTYPE svg PUBLIC "-//W3C//DTD SVG 20010904//EN"
"http://www.w3.org/TR/2001/REC-SVG-20010904/DTD/svg10.dtd">
<!-- Created with Sodipodi ("http://www.sodipodi.com/") -->
<svg
   id="svg604"
   sodipodi:version="0.32"
   width="72pt"
   height="72pt"
   sodipodi:docbase="/home/zeus/images/icons/gartoon/svg"
   sodipodi:docname="/home/zeus/images/icons/gartoon/svg/gnome-html.svg"
   xmlns="http://www.w3.org/2000/svg"
   xmlns:sodipodi="http://sodipodi.sourceforge.net/DTD/sodipodi-0.dtd"
   xmlns:xlink="http://www.w3.org/1999/xlink">
  <defs
     id="defs606">
    <linearGradient
       id="linearGradient612">
      <stop
         style="stop-color:#7fa8e3;stop-opacity:0.741176;"
         offset="0.000000"
         id="stop613" />
      <stop
         style="stop-color:#ffffff;stop-opacity:0;"
         offset="1.000000"
         id="stop614" />
    </linearGradient>
    <linearGradient
       xlink:href="#linearGradient612"
       id="linearGradient615"
       x1="50.6438866"
       y1="5.36792946"
       x2="35.7520943"
       y2="68.0443573"
       gradientUnits="userSpaceOnUse"
       spreadMethod="pad" />
  </defs>
  <sodipodi:namedview
     id="base" />
  <path
     style="fill:#000000;fill-rule:evenodd;stroke:none;stroke-opacity:1;stroke-width:1pt;stroke-linejoin:miter;stroke-linecap:butt;fill-opacity:0.301471;"
     d="M 12.8163 74.753 C 10.3856 73.6481 7.07107 70.1126 8.83884 65.2512 C 9.72267 59.948 25.6326 13.1021 29.1682 10.8924 C 31.3778 8.90368 34.582 8.13026 39.1119 9.34561 C 42.8684 10.2295 76.6769 19.0684 78.6656 20.8361 C 80.6544 22.6039 82.2012 24.0402 80.6544 27.9072 C 79.5496 29.8959 66.4017 74.532 66.1808 77.4047 C 65.2969 80.4983 62.7558 84.2548 58.5573 84.0338 C 54.3589 83.8128 15.9099 75.4159 12.8163 74.753 z "
     id="path794"
     sodipodi:nodetypes="ccccccccc"
     transform="matrix(1.114903,0.000000,0.000000,1.114903,-5.305332,-3.889256)" />
  <path
     style="fill:#3d4e67;fill-rule:evenodd;stroke:none;stroke-opacity:1;stroke-width:1pt;stroke-linejoin:miter;stroke-linecap:butt;fill-opacity:1;"
     d="M 12.8163 74.753 C 10.3856 73.6481 7.07107 70.1126 8.83884 65.2512 C 9.72267 59.948 25.6326 13.1021 29.1682 10.8924 C 31.3778 8.90368 34.582 8.13026 39.1119 9.34561 C 42.8684 10.2295 76.6769 19.0684 78.6656 20.8361 C 80.6544 22.6039 82.2012 24.0402 80.6544 27.9072 C 79.5496 29.8959 66.4017 74.532 66.1808 77.4047 C 65.2969 80.4983 62.7558 84.2548 58.5573 84.0338 C 54.3589 83.8128 15.9099 75.4159 12.8163 74.753 z "
     id="path609"
     sodipodi:nodetypes="ccccccccc"
     transform="matrix(1.114903,0.000000,0.000000,1.114903,-8.162471,-8.460684)" />
  <path
     style="fill:#ffffff;fill-rule:evenodd;stroke:none;stroke-opacity:1;stroke-width:1pt;stroke-linejoin:miter;stroke-linecap:butt;fill-opacity:1;"
     d="M 17.8987 70.9965 C 15.3576 70.3336 11.7114 69.6706 13.0373 65.6932 C 15.468 55.9705 27.8424 18.6264 33.1456 13.986 C 34.361 12.8811 38.4489 12.4392 46.1829 14.8699 C 55.0218 17.5215 72.9204 23.4877 74.6882 24.3716 C 76.4559 25.2555 77.1189 25.2555 75.793 29.233 C 73.8043 33.2105 64.9655 67.24 62.7557 72.9852 C 61.209 77.0732 60.8775 78.9514 58.2258 78.9514 "
     id="path608"
     sodipodi:nodetypes="cccccccs"
     transform="matrix(1.114903,0.000000,0.000000,1.114903,-8.162471,-8.460684)" />
  <path
     style="fill:url(#linearGradient615);fill-rule:evenodd;stroke:none;stroke-opacity:1;stroke-width:1pt;stroke-linejoin:miter;stroke-linecap:butt;fill-opacity:1;"
     d="M 28.75 13.75 C 28.75 13.75 31.875 7.49995 39.6875 9.37495 C 47.5 11.25 78.125 19.375 77.8125 21.875 C 77.5 24.375 71.875 39.0625 71.5625 40.3125 C 71.25 41.5625 42.5 40.9375 31.5625 47.5 C 20.625 54.0625 12.5 59.6875 12.5 59.6875 C 12.5 59.6875 23.75 24.6875 28.75 13.75 z "
     id="path636"
     transform="matrix(0.946780,0.000000,0.000000,0.946780,-0.480566,0.409517)" />
  <g
     id="g765"
     transform="matrix(0.591125,0.000000,0.000000,0.591125,13.69422,20.37983)">
    <defs
       id="defs571">
      <linearGradient
         id="linearGradient584">
        <stop
           style="stop-color:#ffffff;stop-opacity:0;"
           offset="0.000000"
           id="stop585" />
        <stop
           style="stop-color:#ffffff;stop-opacity:1;"
           offset="1.000000"
           id="stop586" />
      </linearGradient>
      <linearGradient
         xlink:href="#linearGradient584"
         id="linearGradient587"
         x1="28.2520447"
         y1="32.8688049"
         x2="68.3603058"
         y2="21.4794312"
         gradientUnits="userSpaceOnUse"
         spreadMethod="pad"
         gradientTransform="matrix(1.036821,-1.811349e-6,3.827296e-7,0.964487,2.057071e-6,1.075978e-6)" />
    </defs>
    <sodipodi:namedview
       id="namedview771" />
    <path
       sodipodi:type="arc"
       style="font-size:12;fill:none;fill-rule:evenodd;stroke:#000000;stroke-width:8.5;stroke-opacity:0.3;"
       id="path589"
       d="M 83.823837 45.390781 A 40.459526 40.459522 0 1 0 2.904785,45.390781 A 40.4595 40.4595 0 1 0 83.8238 45.3908 L 43.364311 45.390781 z"
       sodipodi:cx="43.364311"
       sodipodi:cy="45.390781"
       sodipodi:rx="40.459526"
       sodipodi:ry="40.459522"
       transform="matrix(0.941981,0.000000,0.000000,0.941981,5.915554,5.375080)" />
    <path
       sodipodi:type="arc"
       style="font-size:12;fill:#31baff;fill-rule:evenodd;stroke-width:1pt;"
       id="path573"
       d="M 83.823837 45.390781 A 40.459526 40.459522 0 1 0 2.904785,45.390781 A 40.4595 40.4595 0 1 0 83.8238 45.3908 L 43.364311 45.390781 z"
       sodipodi:cx="43.364311"
       sodipodi:cy="45.390781"
       sodipodi:rx="40.459526"
       sodipodi:ry="40.459522"
       transform="matrix(0.846155,0.000000,0.000000,0.846155,6.256445,5.738268)" />
    <path
       style="font-size:12;fill:#e48e6f;fill-rule:evenodd;stroke-width:1pt;"
       d="M 28.507 13.4277 L 33.5075 22.0666 L 21.4273 37.0306 C 21.4273 37.0306 27.3038 50.7498 31.5585 50.5779 C 28.9177 51.1396 28.922 62.4819 30.2424 66.003 C 34.3774 62.4315 14.8677 57.4856 16.5276 47.5264 C 18.1874 37.5671 17.0138 35.0166 12.4491 42.0711 C 7.88442 49.1255 7.05448 50.9929 7.46945 47.6731 C 7.88442 44.3534 6.46331 19.7781 28.507 13.4277 z "
       id="path576"
       sodipodi:nodetypes="ccccccccc" />
    <path
       style="font-size:12;fill:#fffcac;fill-rule:evenodd;stroke-width:1pt;"
       d="M 30.7077 12.4007 L 37.7622 22.36 L 24.0682 36.8839 C 24.0682 36.8839 33.6125 50.1629 33.6125 50.5779 C 33.6125 50.9929 29.8778 61.3671 29.8778 61.3671 C 29.8778 61.3671 16.5988 54.3126 18.2587 44.3534 C 19.9185 34.3941 18.2587 30.6594 13.694 37.7139 C 9.12933 44.7683 7.05448 50.9929 7.46945 47.6731 C 7.88442 44.3534 9.5443 16.5504 30.7077 12.4007 z "
       id="path574" />
    <path
       style="font-size:12;fill:#ffd87c;fill-rule:evenodd;stroke-width:1pt;"
       d="M 28.507 13.4277 L 33.5075 22.0666 L 21.4273 37.0306 C 21.4273 37.0306 27.3038 50.7498 31.5585 50.5779 C 28.9177 51.1396 27.6771 56.6723 28.9975 60.1934 C 27.5304 55.792 16.5276 56.2407 18.1875 46.2815 C 19.8473 36.3222 18.2587 30.6594 13.694 37.7139 C 9.12933 44.7683 7.05448 50.9929 7.46945 47.6731 C 7.88442 44.3534 6.46331 19.7781 28.507 13.4277 z "
       id="path575"
       sodipodi:nodetypes="ccccccccc" />
    <path
       style="font-size:12;fill:#e48e6f;fill-rule:evenodd;stroke-width:1pt;"
       d="M 42.8405 18.697 C 42.8405 18.697 48.1222 22.5116 42.2536 28.0867 C 36.385 33.6619 28.1691 35.7159 35.2113 39.5304 C 42.2536 43.345 51.9367 43.9318 51.0564 37.183 C 50.1762 30.4342 49.0025 16.0562 42.8405 18.697 z "
       id="path577" />
    <path
       style="font-size:12;fill:#fffbaa;fill-rule:evenodd;stroke-width:1pt;"
       d="M 42.8405 18.697 C 42.8405 18.697 48.1222 22.5116 42.2536 28.0867 C 36.385 33.6619 28.1691 35.7159 35.2113 39.5304 C 42.2536 43.345 51.9367 43.9318 51.0564 37.183 C 50.1762 30.4342 49.0025 16.0562 42.8405 18.697 z "
       id="path578"
       transform="matrix(0.968474,0.000000,0.000000,0.938789,2.198177,1.124868)" />
    <path
       style="font-size:12;fill:#ffd87c;fill-rule:evenodd;stroke-width:1pt;"
       d="M 42.8405 18.697 C 42.8405 18.697 48.1222 22.5116 42.2536 28.0867 C 36.385 33.6619 28.1691 35.7159 35.2113 39.5304 C 42.2536 43.345 51.9367 43.9318 51.0564 37.183 C 50.1762 30.4342 49.0025 16.0562 42.8405 18.697 z "
       id="path579"
       transform="matrix(0.826610,0.000000,0.000000,0.889821,6.808317,2.024765)" />
    <path
       style="font-size:12;fill:#e48e6f;fill-rule:evenodd;stroke-width:1pt;"
       d="M 77.1715 47.1595 C 77.1715 47.1595 63.087 45.1055 62.2067 45.6924 C 61.3264 46.2793 49.0024 47.453 50.1762 53.9084 C 51.3499 60.3638 55.4579 65.6455 50.1762 69.4601 C 44.8945 73.2746 39.0259 76.2089 44.3076 77.9695 C 49.5893 79.73 56.925 77.676 59.2724 75.622 C 61.6198 73.568 56.6316 72.3943 57.2184 66.5258 C 57.8053 60.6572 56.0447 56.8427 62.2067 58.8966 C 68.3687 60.9506 68.0753 63.2981 72.1832 58.8966 C 76.2912 54.4952 79.8124 53.3215 77.1715 47.1595 z "
       id="path580" />
    <path
       style="font-size:12;fill:#fffcac;fill-rule:evenodd;stroke-width:1pt;"
       d="M 77.1715 47.1595 C 78.3452 45.6098 63.087 41.3862 62.2067 43.8328 C 61.3264 41.9402 46.3615 44.6636 47.5354 51.1189 C 48.7091 57.5744 53.6973 64.7157 48.4156 68.5303 C 43.1339 72.3448 39.0259 76.2089 44.3076 77.9695 C 49.5893 79.73 56.925 77.676 59.2724 75.622 C 61.6198 73.568 55.4579 72.3943 56.0447 66.5258 C 56.6316 60.6572 56.0447 55.293 62.2067 57.3469 C 68.3687 59.4009 68.0753 61.7484 72.1832 57.3469 C 76.2912 52.9455 79.8124 53.3215 77.1715 47.1595 z "
       id="path582"
       transform="matrix(1.000000,0.000000,0.000000,0.946729,0.000000,2.428446)"
       sodipodi:nodetypes="cccccccccc" />
    <path
       style="font-size:12;fill:#ffd87c;fill-rule:evenodd;stroke-width:1pt;"
       d="M 77.1715 47.1595 C 77.1715 47.1595 63.087 45.1055 62.2067 45.6924 C 61.3264 46.2793 49.0024 47.453 50.1762 53.9084 C 51.3499 60.3638 55.4579 65.6455 50.1762 69.4601 C 44.8945 73.2746 39.0259 76.2089 44.3076 77.9695 C 49.5893 79.73 56.925 77.676 59.2724 75.622 C 61.6198 73.568 55.4579 72.3943 56.0447 66.5258 C 56.6316 60.6572 56.0447 55.293 62.2067 57.3469 C 68.3687 59.4009 68.0753 61.7484 72.1832 57.3469 C 76.2912 52.9455 79.8124 53.3215 77.1715 47.1595 z "
       id="path581"
       transform="matrix(1.000000,0.000000,0.000000,0.946729,0.000000,2.428446)"
       sodipodi:nodetypes="cccccccccc" />
    <path
       transform="matrix(0.920224,0.000000,0.000000,0.920224,3.044474,1.961231)"
       style="font-size:12;fill:none;fill-rule:evenodd;stroke:#283d53;stroke-width:8.5;"
       d="M 83.8238 45.3908 C 83.8238 67.7244 65.698 85.8503 43.3643 85.8503 C 21.0307 85.8503 2.90479 67.7244 2.90479 45.3908 C 2.90479 23.0571 21.0307 4.93126 43.3643 4.93126 C 65.698 4.93126 83.8238 23.0571 83.8238 45.3908 z "
       id="path654" />
    <path
       transform="matrix(0.933582,-0.664775,0.918324,1.029434,-29.83966,37.88266)"
       style="font-size:12;fill:url(#linearGradient587);fill-rule:evenodd;stroke-width:1pt;"
       d="M 72.1832 30.4342 C 72.1832 40.1525 63.7044 48.0398 53.2571 48.0398 C 42.8099 48.0398 34.3311 40.1525 34.3311 30.4342 C 34.3311 20.7158 42.8099 12.8285 53.2571 12.8285 C 63.7044 12.8285 72.1832 20.7158 72.1832 30.4342 z "
       id="path588" />
  </g>
</svg>
