<?xml version="1.0" encoding="UTF-8" standalone="no"?>
<!DOCTYPE svg PUBLIC "-//W3C//DTD SVG 1.0//EN"
"http://www.w3.org/TR/2001/REC-SVG-20010904/DTD/svg10.dtd">
<!-- Created with Sodipodi ("http://www.sodipodi.com/") -->
<svg
   xmlns="http://www.w3.org/2000/svg"
   xmlns:xlink="http://www.w3.org/1999/xlink"
   version="1.0"
   x="0"
   y="0"
   width="90.0000000"
   height="90.0000000"
   id="svg604">
  <defs
     id="defs606">
    <linearGradient
       id="linearGradient612">
      <stop
         style="stop-color:#7fa8e3;stop-opacity:0.7412;"
         offset="0"
         id="stop613" />
      <stop
         style="stop-color:#ffffff;stop-opacity:0;"
         offset="1"
         id="stop614" />
    </linearGradient>
    <linearGradient
       x1="50.64389"
       y1="5.367929"
       x2="35.75209"
       y2="68.04436"
       id="linearGradient615"
       xlink:href="#linearGradient612"
       gradientUnits="userSpaceOnUse"
       spreadMethod="pad" />
  </defs>
  <path
     d="M 12.81630 74.75300 C 10.38560 73.64810 7.071070 70.11260 8.838840 65.25120 C 9.722670 59.94800 25.63260 13.10210 29.16820 10.89240 C 31.37780 8.903680 34.58200 8.130260 39.11190 9.345610 C 42.86840 10.22950 76.67690 19.06840 78.66560 20.83610 C 80.65440 22.60390 82.20120 24.04020 80.65440 27.90720 C 79.54960 29.89590 66.40170 74.53200 66.18080 77.40470 C 65.29690 80.49830 62.75580 84.25480 58.55730 84.03380 C 54.35890 83.81280 15.90990 75.41590 12.81630 74.75300 z "
     transform="matrix(1.114903,0,0,1.114903,-5.305332,-3.889256)"
     style="font-size:12.000;fill-opacity:0.301471;fill-rule:evenodd;stroke-width:1;"
     id="path794" />
  <path
     d="M 12.81630 74.75300 C 10.38560 73.64810 7.071070 70.11260 8.838840 65.25120 C 9.722670 59.94800 25.63260 13.10210 29.16820 10.89240 C 31.37780 8.903680 34.58200 8.130260 39.11190 9.345610 C 42.86840 10.22950 76.67690 19.06840 78.66560 20.83610 C 80.65440 22.60390 82.20120 24.04020 80.65440 27.90720 C 79.54960 29.89590 66.40170 74.53200 66.18080 77.40470 C 65.29690 80.49830 62.75580 84.25480 58.55730 84.03380 C 54.35890 83.81280 15.90990 75.41590 12.81630 74.75300 z "
     transform="matrix(1.114903,0,0,1.114903,-8.162471,-8.460684)"
     style="font-size:12.000;fill:#3d4e67;fill-rule:evenodd;stroke-width:1;"
     id="path609" />
  <path
     d="M 17.89870 70.99650 C 15.35760 70.33360 11.71140 69.67060 13.03730 65.69320 C 15.46800 55.97050 27.84240 18.62640 33.14560 13.98600 C 34.36100 12.88110 38.44890 12.43920 46.18290 14.86990 C 55.02180 17.52150 72.92040 23.48770 74.68820 24.37160 C 76.45590 25.25550 77.11890 25.25550 75.79300 29.23300 C 73.80430 33.21050 64.96550 67.24000 62.75570 72.98520 C 61.20900 77.07320 60.87750 78.95140 58.22580 78.95140 "
     transform="matrix(1.114903,0,0,1.114903,-8.162471,-8.460684)"
     style="font-size:12.000;fill:#ffffff;fill-rule:evenodd;stroke-width:1;"
     id="path608" />
  <path
     d="M 28.75000 13.75000 C 28.75000 13.75000 31.87500 7.499950 39.68750 9.374950 C 47.50000 11.25000 78.12500 19.37500 77.81250 21.87500 C 77.50000 24.37500 71.87500 39.06250 71.56250 40.31250 C 71.25000 41.56250 42.50000 40.93750 31.56250 47.50000 C 20.62500 54.06250 12.50000 59.68750 12.50000 59.68750 C 12.50000 59.68750 23.75000 24.68750 28.75000 13.75000 z "
     transform="matrix(0.946780,0,0,0.946780,-0.480566,0.409517)"
     style="font-size:12.000;fill:url(#linearGradient615);fill-rule:evenodd;stroke-width:1;"
     id="path636" />
  <g
     transform="matrix(0.522929,0,0,0.522929,15.64762,25.24564)"
     style="font-size:12.000;"
     id="g570">
    <defs
       id="defs571">
      <linearGradient
         id="linearGradient584">
        <stop
           style="stop-color:#ffffff;stop-opacity:0;"
           offset="0"
           id="stop585" />
        <stop
           style="stop-color:#ffffff;stop-opacity:1.0000;"
           offset="1"
           id="stop586" />
      </linearGradient>
      <linearGradient
         x1="28.25204"
         y1="32.86880"
         x2="68.36031"
         y2="21.47943"
         id="linearGradient587"
         xlink:href="#linearGradient584"
         gradientUnits="userSpaceOnUse"
         gradientTransform="matrix(1.036821,-1.811349e-6,3.827296e-7,0.964487,2.057071e-6,1.075978e-6)"
         spreadMethod="pad" />
    </defs>
    <ellipse
       cx="43.36431"
       cy="45.39078"
       rx="40.45953"
       ry="40.45952"
       transform="matrix(0.941981,0,0,0.941981,5.915554,5.375080)"
       style="fill:none;fill-rule:evenodd;stroke:#000000;stroke-width:8.500000;stroke-opacity:0.300000;"
       id="path589" />
    <ellipse
       cx="43.36431"
       cy="45.39078"
       rx="40.45953"
       ry="40.45952"
       transform="matrix(0.846155,0,0,0.846155,6.256445,5.738268)"
       style="fill:#31baff;fill-rule:evenodd;stroke-width:1;"
       id="path573" />
    <path
       d="M 28.50700 13.42770 L 33.50750 22.06660 L 21.42730 37.03060 C 21.42730 37.03060 27.30380 50.74980 31.55850 50.57790 C 28.91770 51.13960 28.92200 62.48190 30.24240 66.00300 C 34.37740 62.43150 14.86770 57.48560 16.52760 47.52640 C 18.18740 37.56710 17.01380 35.01660 12.44910 42.07110 C 7.884420 49.12550 7.054480 50.99290 7.469450 47.67310 C 7.884420 44.35340 6.463310 19.77810 28.50700 13.42770 z "
       style="fill:#e48e6f;fill-rule:evenodd;stroke-width:1;"
       id="path576" />
    <path
       d="M 30.70770 12.40070 L 37.76220 22.36000 L 24.06820 36.88390 C 24.06820 36.88390 33.61250 50.16290 33.61250 50.57790 C 33.61250 50.99290 29.87780 61.36710 29.87780 61.36710 C 29.87780 61.36710 16.59880 54.31260 18.25870 44.35340 C 19.91850 34.39410 18.25870 30.65940 13.69400 37.71390 C 9.129330 44.76830 7.054480 50.99290 7.469450 47.67310 C 7.884420 44.35340 9.544300 16.55040 30.70770 12.40070 z "
       style="fill:#fffcac;fill-rule:evenodd;stroke-width:1;"
       id="path574" />
    <path
       d="M 28.50700 13.42770 L 33.50750 22.06660 L 21.42730 37.03060 C 21.42730 37.03060 27.30380 50.74980 31.55850 50.57790 C 28.91770 51.13960 27.67710 56.67230 28.99750 60.19340 C 27.53040 55.79200 16.52760 56.24070 18.18750 46.28150 C 19.84730 36.32220 18.25870 30.65940 13.69400 37.71390 C 9.129330 44.76830 7.054480 50.99290 7.469450 47.67310 C 7.884420 44.35340 6.463310 19.77810 28.50700 13.42770 z "
       style="fill:#ffd87c;fill-rule:evenodd;stroke-width:1;"
       id="path575" />
    <path
       d="M 42.84050 18.69700 C 42.84050 18.69700 48.12220 22.51160 42.25360 28.08670 C 36.38500 33.66190 28.16910 35.71590 35.21130 39.53040 C 42.25360 43.34500 51.93670 43.93180 51.05640 37.18300 C 50.17620 30.43420 49.00250 16.05620 42.84050 18.69700 z "
       style="fill:#e48e6f;fill-rule:evenodd;stroke-width:1;"
       id="path577" />
    <path
       d="M 42.84050 18.69700 C 42.84050 18.69700 48.12220 22.51160 42.25360 28.08670 C 36.38500 33.66190 28.16910 35.71590 35.21130 39.53040 C 42.25360 43.34500 51.93670 43.93180 51.05640 37.18300 C 50.17620 30.43420 49.00250 16.05620 42.84050 18.69700 z "
       transform="matrix(0.968474,0,0,0.938789,2.198177,1.124868)"
       style="fill:#fffbaa;fill-rule:evenodd;stroke-width:1;"
       id="path578" />
    <path
       d="M 42.84050 18.69700 C 42.84050 18.69700 48.12220 22.51160 42.25360 28.08670 C 36.38500 33.66190 28.16910 35.71590 35.21130 39.53040 C 42.25360 43.34500 51.93670 43.93180 51.05640 37.18300 C 50.17620 30.43420 49.00250 16.05620 42.84050 18.69700 z "
       transform="matrix(0.826610,0,0,0.889821,6.808317,2.024765)"
       style="fill:#ffd87c;fill-rule:evenodd;stroke-width:1;"
       id="path579" />
    <path
       d="M 77.17150 47.15950 C 77.17150 47.15950 63.08700 45.10550 62.20670 45.69240 C 61.32640 46.27930 49.00240 47.45300 50.17620 53.90840 C 51.34990 60.36380 55.45790 65.64550 50.17620 69.46010 C 44.89450 73.27460 39.02590 76.20890 44.30760 77.96950 C 49.58930 79.73000 56.92500 77.67600 59.27240 75.62200 C 61.61980 73.56800 56.63160 72.39430 57.21840 66.52580 C 57.80530 60.65720 56.04470 56.84270 62.20670 58.89660 C 68.36870 60.95060 68.07530 63.29810 72.18320 58.89660 C 76.29120 54.49520 79.81240 53.32150 77.17150 47.15950 z "
       style="fill:#e48e6f;fill-rule:evenodd;stroke-width:1;"
       id="path580" />
    <path
       d="M 77.17150 47.15950 C 78.34520 45.60980 63.08700 41.38620 62.20670 43.83280 C 61.32640 41.94020 46.36150 44.66360 47.53540 51.11890 C 48.70910 57.57440 53.69730 64.71570 48.41560 68.53030 C 43.13390 72.34480 39.02590 76.20890 44.30760 77.96950 C 49.58930 79.73000 56.92500 77.67600 59.27240 75.62200 C 61.61980 73.56800 55.45790 72.39430 56.04470 66.52580 C 56.63160 60.65720 56.04470 55.29300 62.20670 57.34690 C 68.36870 59.40090 68.07530 61.74840 72.18320 57.34690 C 76.29120 52.94550 79.81240 53.32150 77.17150 47.15950 z "
       transform="matrix(1,0,0,0.946729,0,2.428446)"
       style="fill:#fffcac;fill-rule:evenodd;stroke-width:1;"
       id="path582" />
    <path
       d="M 77.17150 47.15950 C 77.17150 47.15950 63.08700 45.10550 62.20670 45.69240 C 61.32640 46.27930 49.00240 47.45300 50.17620 53.90840 C 51.34990 60.36380 55.45790 65.64550 50.17620 69.46010 C 44.89450 73.27460 39.02590 76.20890 44.30760 77.96950 C 49.58930 79.73000 56.92500 77.67600 59.27240 75.62200 C 61.61980 73.56800 55.45790 72.39430 56.04470 66.52580 C 56.63160 60.65720 56.04470 55.29300 62.20670 57.34690 C 68.36870 59.40090 68.07530 61.74840 72.18320 57.34690 C 76.29120 52.94550 79.81240 53.32150 77.17150 47.15950 z "
       transform="matrix(1,0,0,0.946729,0,2.428446)"
       style="fill:#ffd87c;fill-rule:evenodd;stroke-width:1;"
       id="path581" />
    <path
       d="M 83.82380 45.39080 C 83.82380 67.72440 65.69800 85.85030 43.36430 85.85030 C 21.03070 85.85030 2.904790 67.72440 2.904790 45.39080 C 2.904790 23.05710 21.03070 4.931260 43.36430 4.931260 C 65.69800 4.931260 83.82380 23.05710 83.82380 45.39080 z "
       transform="matrix(0.920224,0,0,0.920224,3.044474,1.961231)"
       style="fill:none;fill-rule:evenodd;stroke:#283d53;stroke-width:8.500000;"
       id="path654" />
    <path
       d="M 72.18320 30.43420 C 72.18320 40.15250 63.70440 48.03980 53.25710 48.03980 C 42.80990 48.03980 34.33110 40.15250 34.33110 30.43420 C 34.33110 20.71580 42.80990 12.82850 53.25710 12.82850 C 63.70440 12.82850 72.18320 20.71580 72.18320 30.43420 z "
       transform="matrix(0.933582,-0.664775,0.918324,1.029434,-29.83966,37.88266)"
       style="fill:url(#linearGradient587);fill-rule:evenodd;stroke-width:1;"
       id="path588" />
  </g>
</svg>
