<?xml version="1.0" encoding="UTF-8" standalone="no"?>
<!-- Created with Inkscape (http://www.inkscape.org/) -->
<svg
   xmlns:svg="http://www.w3.org/2000/svg"
   xmlns="http://www.w3.org/2000/svg"
   version="1.0"
   width="128"
   height="128"
   viewBox="0 0 128 128"
   id="svg2"
   xml:space="preserve"
   style="overflow:visible"><defs
   id="defs167" />
	<g
   id="Layer_1">
		<g
   id="g5">
			<g
   id="g7">
				<linearGradient
   x1="113.4922"
   y1="108.7422"
   x2="76.112396"
   y2="71.362396"
   id="XMLID_1_"
   gradientUnits="userSpaceOnUse">
					<stop
   id="stop10"
   style="stop-color:#86e692;stop-opacity:1"
   offset="0" />
					<stop
   id="stop12"
   style="stop-color:#ffffdc;stop-opacity:1"
   offset="1" />
					
					
					
				</linearGradient>
				<path
   d="M 64.681,101.596 L 64.681,70.475 L 96.809,52.767 L 122.548,76.134 L 122.548,107.072 L 90.055,124.777 L 64.681,101.596 z"
   id="path14"
   style="fill:url(#XMLID_1_)" />
				<linearGradient
   x1="115.8857"
   y1="111.1357"
   x2="74.950302"
   y2="70.200302"
   id="XMLID_2_"
   gradientUnits="userSpaceOnUse">
					<stop
   id="stop17"
   style="stop-color:#007200;stop-opacity:1"
   offset="0" />
					<stop
   id="stop19"
   style="stop-color:#00c22b;stop-opacity:1"
   offset="1" />
					
					
					
				</linearGradient>
				<path
   d="M 96.413,52.049 L 64.284,69.756 C 64.022,69.901 63.86,70.176 63.86,70.475 L 63.86,101.596 C 63.86,101.826 63.957,102.046 64.127,102.202 L 89.501,125.386 C 89.76,125.622 90.14,125.668 90.448,125.5 L 122.94,107.793 C 123.205,107.65 123.37,107.373 123.37,107.072 L 123.37,76.134 C 123.37,75.903 123.271,75.682 123.1,75.526 L 97.36,52.159 C 97.1,51.923 96.72,51.879 96.413,52.049 z M 96.691,53.77 C 97.522,54.525 121.207,76.027 121.726,76.497 C 121.726,77.199 121.726,105.646 121.726,106.584 C 120.906,107.031 91.16,123.241 90.176,123.776 C 89.349,123.022 66.016,101.703 65.502,101.233 C 65.502,100.534 65.502,71.892 65.502,70.96 C 66.317,70.512 95.71,54.312 96.691,53.77 z"
   id="path21"
   style="fill:url(#XMLID_2_)" />
				<linearGradient
   x1="106.2383"
   y1="128.498"
   x2="106.2383"
   y2="71.000099"
   id="XMLID_3_"
   gradientUnits="userSpaceOnUse">
					<stop
   id="stop24"
   style="stop-color:#006d21;stop-opacity:1"
   offset="0" />
					<stop
   id="stop26"
   style="stop-color:#00ff00;stop-opacity:1"
   offset="1" />
					
					
					
				</linearGradient>
				<path
   d="M 91.268,95.335 L 91.248,122.421 L 121.207,106.309 L 121.228,77.069 L 92.497,92.131 C 92.497,92.131 91.71,92.689 91.479,93.638 C 91.25,94.589 91.268,95.335 91.268,95.335 z"
   id="path28"
   style="fill:url(#XMLID_3_)" />
				<linearGradient
   x1="91.617203"
   y1="105.1191"
   x2="94.617104"
   y2="61.6208"
   id="XMLID_4_"
   gradientUnits="userSpaceOnUse">
					<stop
   id="stop31"
   style="stop-color:#006d21;stop-opacity:1"
   offset="0" />
					<stop
   id="stop33"
   style="stop-color:#00ff00;stop-opacity:1"
   offset="1" />
					
					
					
				</linearGradient>
				<path
   d="M 96.596,54.488 L 120.59,76.545 L 92.489,91.272 C 92.489,91.272 91.404,91.636 90.711,91.574 C 90.019,91.509 89.172,90.808 89.172,90.808 L 66.974,70.93 L 96.596,54.488 z"
   id="path35"
   style="fill:url(#XMLID_4_)" />
				<linearGradient
   x1="108.9326"
   y1="61.119099"
   x2="104.9327"
   y2="101.6182"
   id="XMLID_5_"
   gradientUnits="userSpaceOnUse">
					<stop
   id="stop38"
   style="stop-color:#ffffff;stop-opacity:1"
   offset="0" />
					<stop
   id="stop40"
   style="stop-color:#ffffff;stop-opacity:0"
   offset="1" />
					
					
					
				</linearGradient>
				<path
   d="M 119.951,79.214 L 93.842,92.902 C 93.842,92.902 93.104,93.425 92.887,94.314 C 92.672,95.207 92.69,95.906 92.69,95.906 L 92.685,109.822 C 93.966,110.017 95.398,102.737 105.321,99.992 C 117.333,96.669 120.147,80.296 119.951,79.214 z"
   id="path42"
   style="fill:url(#XMLID_5_)" />
				<linearGradient
   x1="78.2295"
   y1="128.502"
   x2="78.2295"
   y2="71.0037"
   id="XMLID_6_"
   gradientUnits="userSpaceOnUse">
					<stop
   id="stop45"
   style="stop-color:#006d21;stop-opacity:1"
   offset="0" />
					<stop
   id="stop47"
   style="stop-color:#00ff00;stop-opacity:1"
   offset="1" />
					
					
					
				</linearGradient>
				<path
   d="M 90.115,108.434 L 90.106,95.055 C 90.106,95.055 90.122,94.308 89.898,93.358 C 89.676,92.408 88.918,91.852 88.918,91.852 L 66.542,72.036 L 66.335,71.853 L 66.357,101.091 L 90.124,122.14 L 90.115,108.434 z"
   id="path49"
   style="fill:url(#XMLID_6_)" />
				<linearGradient
   x1="93.383797"
   y1="50.5005"
   x2="93.383797"
   y2="87.999702"
   id="XMLID_7_"
   gradientUnits="userSpaceOnUse">
					<stop
   id="stop52"
   style="stop-color:#ffffff;stop-opacity:1"
   offset="0" />
					<stop
   id="stop54"
   style="stop-color:#ffffff;stop-opacity:0"
   offset="1" />
					
					
					
				</linearGradient>
				<path
   d="M 69.143,72.1 L 72.109,74.756 C 78.379,77.988 87.152,80 96.87,80 C 104.662,80 111.849,78.707 117.625,76.529 L 96.368,56.988 L 69.143,72.1 z"
   id="path56"
   style="fill:url(#XMLID_7_)" />
			</g>
			<g
   id="g58">
				<g
   id="g60">
					<linearGradient
   x1="54.2612"
   y1="103.0576"
   x2="16.882"
   y2="65.678299"
   id="XMLID_8_"
   gradientUnits="userSpaceOnUse">
						<stop
   id="stop63"
   style="stop-color:#ff904e;stop-opacity:1"
   offset="0" />
						<stop
   id="stop65"
   style="stop-color:#ffe39a;stop-opacity:1"
   offset="1" />
						
						
						
					</linearGradient>
					<path
   d="M 5.45,95.911 L 5.45,64.791 L 37.578,47.084 L 63.317,70.449 L 63.317,101.387 L 30.824,119.093 L 5.45,95.911 z"
   id="path67"
   style="fill:url(#XMLID_8_)" />
					<linearGradient
   x1="56.6548"
   y1="105.4521"
   x2="15.7199"
   y2="64.517303"
   id="XMLID_9_"
   gradientUnits="userSpaceOnUse">
						<stop
   id="stop70"
   style="stop-color:#650000;stop-opacity:1"
   offset="0" />
						<stop
   id="stop72"
   style="stop-color:#ff5600;stop-opacity:1"
   offset="1" />
						
						
						
					</linearGradient>
					<path
   d="M 37.182,46.365 L 5.054,64.072 C 4.792,64.217 4.63,64.491 4.63,64.791 L 4.63,95.911 C 4.63,96.142 4.727,96.361 4.898,96.517 L 30.271,119.702 C 30.53,119.937 30.91,119.984 31.216,119.816 L 63.71,102.108 C 63.976,101.965 64.14,101.688 64.14,101.387 L 64.14,70.449 C 64.14,70.219 64.042,69.998 63.869,69.842 L 38.13,46.476 C 37.871,46.24 37.49,46.195 37.182,46.365 z M 37.461,48.087 C 38.291,48.841 61.978,70.343 62.497,70.813 C 62.497,71.514 62.497,99.961 62.497,100.899 C 61.675,101.347 31.93,117.557 30.946,118.092 C 30.119,117.337 6.786,96.018 6.272,95.548 C 6.272,94.851 6.272,66.208 6.272,65.276 C 7.087,64.828 36.479,48.627 37.461,48.087 z"
   id="path74"
   style="fill:url(#XMLID_9_)" />
					<linearGradient
   x1="18.998501"
   y1="116.7383"
   x2="18.998501"
   y2="61.999699"
   id="XMLID_10_"
   gradientUnits="userSpaceOnUse">
						<stop
   id="stop77"
   style="stop-color:#ff3d00;stop-opacity:1"
   offset="0" />
						<stop
   id="stop79"
   style="stop-color:#ffbb51;stop-opacity:1"
   offset="1" />
						
						
						
					</linearGradient>
					<path
   d="M 30.876,89.369 L 30.894,116.457 L 7.127,95.407 L 7.104,66.169 L 29.688,86.167 C 29.688,86.167 30.446,86.723 30.669,87.674 C 30.892,88.624 30.876,89.369 30.876,89.369 z"
   id="path81"
   style="fill:url(#XMLID_10_)" />
					<linearGradient
   x1="47.007801"
   y1="116.7373"
   x2="47.007801"
   y2="62.001301"
   id="XMLID_11_"
   gradientUnits="userSpaceOnUse">
						<stop
   id="stop84"
   style="stop-color:#ff3000;stop-opacity:1"
   offset="0" />
						<stop
   id="stop86"
   style="stop-color:#ffbb51;stop-opacity:1"
   offset="1" />
						
						
						
					</linearGradient>
					<path
   d="M 32.037,89.65 L 32.016,116.737 L 61.977,100.625 L 61.998,71.385 L 33.267,86.447 C 33.267,86.447 32.482,87.004 32.25,87.955 C 32.021,88.906 32.037,89.65 32.037,89.65 z"
   id="path88"
   style="fill:url(#XMLID_11_)" />
					<linearGradient
   x1="39.578098"
   y1="84.700203"
   x2="27.9869"
   y2="46.314301"
   id="XMLID_12_"
   gradientUnits="userSpaceOnUse">
						<stop
   id="stop91"
   style="stop-color:#ff4e00;stop-opacity:1"
   offset="0" />
						<stop
   id="stop93"
   style="stop-color:#ffbb51;stop-opacity:1"
   offset="1" />
						
						
						
					</linearGradient>
					<path
   d="M 37.365,48.804 L 61.358,70.862 L 33.258,85.589 C 33.258,85.589 32.175,85.953 31.482,85.891 C 30.788,85.827 29.942,85.125 29.942,85.125 L 7.744,65.247 L 37.365,48.804 z"
   id="path95"
   style="fill:url(#XMLID_12_)" />
				</g>
				<linearGradient
   x1="48.432098"
   y1="55.619598"
   x2="44.432301"
   y2="96.118103"
   id="XMLID_13_"
   gradientUnits="userSpaceOnUse">
					<stop
   id="stop98"
   style="stop-color:#ffffff;stop-opacity:1"
   offset="0" />
					<stop
   id="stop100"
   style="stop-color:#ffffff;stop-opacity:0"
   offset="1" />
					
					
					
				</linearGradient>
				<path
   d="M 59.451,73.714 L 33.342,87.402 C 33.342,87.402 32.604,87.925 32.387,88.814 C 32.172,89.707 32.19,90.406 32.19,90.406 L 32.185,104.322 C 33.466,104.517 34.898,97.237 44.821,94.492 C 56.833,91.169 59.647,74.796 59.451,73.714 z"
   id="path102"
   style="fill:url(#XMLID_13_)" />
				<linearGradient
   x1="32.883801"
   y1="44.0005"
   x2="32.883801"
   y2="81.499702"
   id="XMLID_14_"
   gradientUnits="userSpaceOnUse">
					<stop
   id="stop105"
   style="stop-color:#ffffff;stop-opacity:1"
   offset="0" />
					<stop
   id="stop107"
   style="stop-color:#ffffff;stop-opacity:0"
   offset="1" />
					
					
					
				</linearGradient>
				<path
   d="M 8.643,65.6 L 11.609,68.256 C 17.879,71.488 26.652,73.5 36.37,73.5 C 44.162,73.5 51.349,72.207 57.125,70.029 L 35.868,50.488 L 8.643,65.6 z"
   id="path109"
   style="fill:url(#XMLID_14_)" />
			</g>
			<g
   id="g111">
				<g
   id="g113">
					<linearGradient
   x1="85.601601"
   y1="59.192902"
   x2="48.221699"
   y2="21.813101"
   id="XMLID_15_"
   gradientUnits="userSpaceOnUse">
						<stop
   id="stop116"
   style="stop-color:#b1dcff;stop-opacity:1"
   offset="0" />
						<stop
   id="stop118"
   style="stop-color:#e3f0ff;stop-opacity:1"
   offset="1" />
						
						
						
					</linearGradient>
					<path
   d="M 36.79,52.046 L 36.79,20.926 L 68.918,3.22 L 94.658,26.585 L 94.658,57.523 L 62.163,75.229 L 36.79,52.046 z"
   id="path120"
   style="fill:url(#XMLID_15_)" />
					<linearGradient
   x1="98.726601"
   y1="68.3311"
   x2="25.9883"
   y2="4.5317001"
   id="XMLID_16_"
   gradientUnits="userSpaceOnUse">
						<stop
   id="stop123"
   style="stop-color:#0000bb;stop-opacity:1"
   offset="0" />
						<stop
   id="stop125"
   style="stop-color:#0095ff;stop-opacity:1"
   offset="1" />
						
						
						
					</linearGradient>
					<path
   d="M 68.521,2.5 L 36.394,20.207 C 36.132,20.353 35.97,20.627 35.97,20.927 L 35.97,52.047 C 35.97,52.279 36.066,52.498 36.237,52.654 L 61.61,75.836 C 61.869,76.072 62.248,76.119 62.555,75.951 L 95.05,58.244 C 95.314,58.102 95.48,57.824 95.48,57.523 L 95.48,26.585 C 95.48,26.353 95.381,26.132 95.21,25.977 L 69.47,2.61 C 69.21,2.375 68.83,2.33 68.521,2.5 z M 68.8,4.222 C 69.631,4.976 93.318,26.48 93.837,26.95 C 93.837,27.651 93.837,56.098 93.837,57.035 C 93.016,57.483 63.27,73.692 62.286,74.229 C 61.458,73.473 38.127,52.154 37.612,51.686 C 37.612,50.986 37.612,22.344 37.612,21.413 C 38.426,20.961 67.819,4.763 68.8,4.222 z"
   id="path127"
   style="fill:url(#XMLID_16_)" />
					<linearGradient
   x1="50.339401"
   y1="76.961899"
   x2="50.339401"
   y2="34.001202"
   id="XMLID_17_"
   gradientUnits="userSpaceOnUse">
						<stop
   id="stop130"
   style="stop-color:#0095ff;stop-opacity:1"
   offset="0" />
						<stop
   id="stop132"
   style="stop-color:#00e1ff;stop-opacity:1"
   offset="1" />
						
						
						
					</linearGradient>
					<path
   d="M 62.216,45.505 L 62.234,72.592 L 38.467,51.542 L 38.446,22.304 L 61.027,42.303 C 61.027,42.303 61.787,42.859 62.009,43.808 C 62.231,44.758 62.216,45.505 62.216,45.505 z"
   id="path134"
   style="fill:url(#XMLID_17_)" />
					<linearGradient
   x1="78.347702"
   y1="76.959"
   x2="78.347702"
   y2="34.001099"
   id="XMLID_18_"
   gradientUnits="userSpaceOnUse">
						<stop
   id="stop137"
   style="stop-color:#0095ff;stop-opacity:1"
   offset="0" />
						<stop
   id="stop139"
   style="stop-color:#00e1ff;stop-opacity:1"
   offset="1" />
						
						
						
					</linearGradient>
					<path
   d="M 63.376,45.786 L 63.356,72.873 L 93.317,56.759 L 93.34,27.52 L 64.605,42.583 C 64.605,42.583 63.821,43.139 63.589,44.089 C 63.359,45.04 63.376,45.786 63.376,45.786 z"
   id="path141"
   style="fill:url(#XMLID_18_)" />
					<linearGradient
   x1="65.891602"
   y1="46.118698"
   x2="65.891602"
   y2="13.5345"
   id="XMLID_19_"
   gradientUnits="userSpaceOnUse">
						<stop
   id="stop144"
   style="stop-color:#0095ff;stop-opacity:1"
   offset="0" />
						<stop
   id="stop146"
   style="stop-color:#00e1ff;stop-opacity:1"
   offset="1" />
						
						
						
					</linearGradient>
					<path
   d="M 68.704,4.938 L 92.7,26.996 L 64.598,41.724 C 64.598,41.724 63.515,42.088 62.822,42.024 C 62.129,41.96 61.281,41.259 61.281,41.259 L 39.084,21.382 L 68.704,4.938 z"
   id="path148"
   style="fill:url(#XMLID_19_)" />
				</g>
				<linearGradient
   x1="80.431602"
   y1="10.1187"
   x2="76.431801"
   y2="50.617699"
   id="XMLID_20_"
   gradientUnits="userSpaceOnUse">
					<stop
   id="stop151"
   style="stop-color:#ffffff;stop-opacity:1"
   offset="0" />
					<stop
   id="stop153"
   style="stop-color:#ffffff;stop-opacity:0"
   offset="1" />
					
					
					
				</linearGradient>
				<path
   d="M 91.451,28.214 L 65.342,41.902 C 65.342,41.902 64.604,42.425 64.387,43.314 C 64.172,44.207 64.19,44.906 64.19,44.906 L 64.185,58.822 C 65.466,59.017 66.898,51.737 76.821,48.992 C 88.833,45.669 91.647,29.296 91.451,28.214 z"
   id="path155"
   style="fill:url(#XMLID_20_)" />
				<linearGradient
   x1="64.883301"
   y1="-1.4995"
   x2="64.883301"
   y2="35.998901"
   id="XMLID_21_"
   gradientUnits="userSpaceOnUse">
					<stop
   id="stop158"
   style="stop-color:#ffffff;stop-opacity:1"
   offset="0" />
					<stop
   id="stop160"
   style="stop-color:#ffffff;stop-opacity:0"
   offset="1" />
					
					
					
				</linearGradient>
				<path
   d="M 40.643,20.1 L 43.609,22.756 C 49.879,25.988 58.652,28 68.37,28 C 76.162,28 83.349,26.707 89.125,24.529 L 67.868,4.988 L 40.643,20.1 z"
   id="path162"
   style="fill:url(#XMLID_21_)" />
			</g>
		</g>
		<path
   d="M 128,128 L 0,128 L 0,0 L 128,0 L 128,128 z"
   id="path164"
   style="fill:none" />
	</g>
</svg>