<?xml version="1.0" encoding="UTF-8" standalone="no"?>
<!-- Created with Inkscape (http://www.inkscape.org/) -->
<svg
   xmlns:dc="http://purl.org/dc/elements/1.1/"
   xmlns:cc="http://creativecommons.org/ns#"
   xmlns:rdf="http://www.w3.org/1999/02/22-rdf-syntax-ns#"
   xmlns:svg="http://www.w3.org/2000/svg"
   xmlns="http://www.w3.org/2000/svg"
   xmlns:xlink="http://www.w3.org/1999/xlink"
   xmlns:sodipodi="http://sodipodi.sourceforge.net/DTD/sodipodi-0.dtd"
   xmlns:inkscape="http://www.inkscape.org/namespaces/inkscape"
   version="1.0"
   width="500"
   height="250"
   id="svg11300"
   sodipodi:version="0.32"
   inkscape:version="0.46"
   sodipodi:docname="logo_large.svg"
   inkscape:output_extension="org.inkscape.output.svg.inkscape">
  <metadata
     id="metadata115">
    <rdf:RDF>
      <cc:Work
         rdf:about="">
        <dc:format>image/svg+xml</dc:format>
        <dc:type
           rdf:resource="http://purl.org/dc/dcmitype/StillImage" />
      </cc:Work>
    </rdf:RDF>
  </metadata>
  <sodipodi:namedview
     inkscape:window-height="724"
     inkscape:window-width="1279"
     inkscape:pageshadow="2"
     inkscape:pageopacity="0.0"
     guidetolerance="10.0"
     gridtolerance="10.0"
     objecttolerance="10.0"
     borderopacity="1.0"
     bordercolor="#666666"
     pagecolor="#ffffff"
     id="base"
     showgrid="false"
     inkscape:zoom="2.356"
     inkscape:cx="251.33059"
     inkscape:cy="124.78945"
     inkscape:window-x="1"
     inkscape:window-y="50"
     inkscape:current-layer="svg11300" />
  <defs
     id="defs3">
    <inkscape:perspective
       sodipodi:type="inkscape:persp3d"
       inkscape:vp_x="0 : 24 : 1"
       inkscape:vp_y="0 : 1000 : 0"
       inkscape:vp_z="48 : 24 : 1"
       inkscape:persp3d-origin="24 : 16 : 1"
       id="perspective117" />
    <linearGradient
       id="linearGradient4873">
      <stop
         id="stop4875"
         style="stop-color:#ffffff;stop-opacity:1"
         offset="0" />
      <stop
         id="stop4877"
         style="stop-color:#ffffff;stop-opacity:0"
         offset="1" />
    </linearGradient>
    <linearGradient
       id="linearGradient4845">
      <stop
         id="stop4847"
         style="stop-color:#ffffff;stop-opacity:1"
         offset="0" />
      <stop
         id="stop4849"
         style="stop-color:#b6b6b6;stop-opacity:1"
         offset="1" />
    </linearGradient>
    <radialGradient
       cx="62.625"
       cy="4.625"
       r="10.625"
       fx="62.625"
       fy="4.625"
       id="radialGradient9169"
       xlink:href="#linearGradient8838"
       gradientUnits="userSpaceOnUse"
       gradientTransform="matrix(1,0,0,0.341176,0,3.047059)" />
    <linearGradient
       id="linearGradient8838">
      <stop
         id="stop8840"
         style="stop-color:#000000;stop-opacity:1"
         offset="0" />
      <stop
         id="stop8842"
         style="stop-color:#000000;stop-opacity:0"
         offset="1" />
    </linearGradient>
    <radialGradient
       cx="62.200352"
       cy="-8.7256308"
       r="9.7552834"
       fx="62.200352"
       fy="-8.7256308"
       id="radialGradient9171"
       xlink:href="#linearGradient8647"
       gradientUnits="userSpaceOnUse"
       gradientTransform="matrix(1.122354,0,0,1.122379,-7.610472,1.067717)" />
    <linearGradient
       id="linearGradient8647">
      <stop
         id="stop8649"
         style="stop-color:#8fb1dc;stop-opacity:1"
         offset="0" />
      <stop
         id="stop8651"
         style="stop-color:#3465a4;stop-opacity:1"
         offset="1" />
    </linearGradient>
    <linearGradient
       id="linearGradient8740">
      <stop
         id="stop8742"
         style="stop-color:#ffffff;stop-opacity:1"
         offset="0" />
      <stop
         id="stop8744"
         style="stop-color:#ffffff;stop-opacity:0"
         offset="1" />
    </linearGradient>
    <radialGradient
       cx="62.225391"
       cy="-3.4420195"
       r="10.081216"
       fx="62.225391"
       fy="-3.4420195"
       id="radialGradient8752"
       xlink:href="#linearGradient8740"
       gradientUnits="userSpaceOnUse"
       gradientTransform="matrix(1,0,0,0.930233,0,-0.240141)" />
    <radialGradient
       cx="62.225391"
       cy="-3.4420195"
       r="10.081216"
       fx="62.225391"
       fy="-3.4420195"
       id="radialGradient9173"
       xlink:href="#linearGradient8740"
       gradientUnits="userSpaceOnUse"
       gradientTransform="matrix(1,0,0,0.930233,0,-0.240141)" />
    <radialGradient
       cx="62.225391"
       cy="-3.4420195"
       r="10.081216"
       fx="62.225391"
       fy="-3.4420195"
       id="radialGradient8760"
       xlink:href="#linearGradient8740"
       gradientUnits="userSpaceOnUse"
       gradientTransform="matrix(1,0,0,0.930233,0,-0.240141)" />
    <radialGradient
       cx="62.225391"
       cy="-3.4420195"
       r="10.081216"
       fx="62.225391"
       fy="-3.4420195"
       id="radialGradient9175"
       xlink:href="#linearGradient8740"
       gradientUnits="userSpaceOnUse"
       gradientTransform="matrix(1,0,0,0.930233,0,-0.240141)" />
    <radialGradient
       cx="62.225391"
       cy="-3.4420195"
       r="10.081216"
       fx="62.225391"
       fy="-3.4420195"
       id="radialGradient8766"
       xlink:href="#linearGradient8740"
       gradientUnits="userSpaceOnUse"
       gradientTransform="matrix(1,0,0,0.930233,0,-0.240141)" />
    <radialGradient
       cx="62.225391"
       cy="-3.4420195"
       r="10.081216"
       fx="62.225391"
       fy="-3.4420195"
       id="radialGradient9177"
       xlink:href="#linearGradient8740"
       gradientUnits="userSpaceOnUse"
       gradientTransform="matrix(1,0,0,0.930233,0,-0.240141)" />
    <radialGradient
       cx="62.225391"
       cy="-3.4420195"
       r="10.081216"
       fx="62.225391"
       fy="-3.4420195"
       id="radialGradient8774"
       xlink:href="#linearGradient8740"
       gradientUnits="userSpaceOnUse"
       gradientTransform="matrix(1,0,0,0.930233,0,-0.240141)" />
    <radialGradient
       cx="62.225391"
       cy="-3.4420195"
       r="10.081216"
       fx="62.225391"
       fy="-3.4420195"
       id="radialGradient9179"
       xlink:href="#linearGradient8740"
       gradientUnits="userSpaceOnUse"
       gradientTransform="matrix(1,0,0,0.930233,0,-0.240141)" />
    <radialGradient
       cx="62.225391"
       cy="-3.4420195"
       r="10.081216"
       fx="62.225391"
       fy="-3.4420195"
       id="radialGradient8782"
       xlink:href="#linearGradient8740"
       gradientUnits="userSpaceOnUse"
       gradientTransform="matrix(1,0,0,0.930233,0,-0.240141)" />
    <radialGradient
       cx="62.225391"
       cy="-3.4420195"
       r="10.081216"
       fx="62.225391"
       fy="-3.4420195"
       id="radialGradient9181"
       xlink:href="#linearGradient8740"
       gradientUnits="userSpaceOnUse"
       gradientTransform="matrix(1,0,0,0.930233,0,0.79739)" />
    <radialGradient
       cx="62.225391"
       cy="-3.4420195"
       r="10.081216"
       fx="62.225391"
       fy="-3.4420195"
       id="radialGradient8788"
       xlink:href="#linearGradient8740"
       gradientUnits="userSpaceOnUse"
       gradientTransform="matrix(1,0,0,0.930233,0,-0.240141)" />
    <radialGradient
       cx="62.225391"
       cy="-3.4420195"
       r="10.081216"
       fx="62.225391"
       fy="-3.4420195"
       id="radialGradient9183"
       xlink:href="#linearGradient8740"
       gradientUnits="userSpaceOnUse"
       gradientTransform="matrix(1,0,0,0.930233,0,-0.240141)" />
    <radialGradient
       cx="24.652573"
       cy="18.94449"
       r="8.6174498"
       fx="24.652485"
       fy="18.944481"
       id="radialGradient9185"
       xlink:href="#linearGradient8924"
       gradientUnits="userSpaceOnUse"
       gradientTransform="matrix(7.657394e-2,2.760516,-1.969551,5.463895e-2,60.09901,-55.47179)" />
    <linearGradient
       id="linearGradient8924">
      <stop
         id="stop8926"
         style="stop-color:#cee14b;stop-opacity:1"
         offset="0" />
      <stop
         id="stop8928"
         style="stop-color:#9db029;stop-opacity:1"
         offset="1" />
    </linearGradient>
    <radialGradient
       cx="62.225391"
       cy="-3.4420195"
       r="10.081216"
       fx="62.225391"
       fy="-3.4420195"
       id="radialGradient8812"
       xlink:href="#linearGradient8740"
       gradientUnits="userSpaceOnUse"
       gradientTransform="matrix(1,0,0,0.930233,0,-0.240141)" />
    <radialGradient
       cx="24.652573"
       cy="18.94449"
       r="8.6174498"
       fx="24.652485"
       fy="18.944481"
       id="radialGradient9187"
       xlink:href="#linearGradient8924"
       gradientUnits="userSpaceOnUse"
       gradientTransform="matrix(6.822876e-2,2.459669,-1.754905,4.868429e-2,55.12882,-46.82188)" />
    <radialGradient
       cx="62.225391"
       cy="-3.4420195"
       r="10.081216"
       fx="62.225391"
       fy="-3.4420195"
       id="radialGradient9189"
       xlink:href="#linearGradient8740"
       gradientUnits="userSpaceOnUse"
       gradientTransform="matrix(0.891018,0,0,0.828854,1.579517,2.39052)" />
    <radialGradient
       cx="25.135374"
       cy="14.542349"
       r="4.1347499"
       fx="25.135332"
       fy="14.542329"
       id="radialGradient9191"
       xlink:href="#linearGradient8930"
       gradientUnits="userSpaceOnUse"
       gradientTransform="matrix(0.159592,5.753335,-0.8072,2.23703e-2,32.87305,-131.6974)" />
    <linearGradient
       id="linearGradient8930">
      <stop
         id="stop8932"
         style="stop-color:#cee14b;stop-opacity:1"
         offset="0" />
      <stop
         id="stop8934"
         style="stop-color:#9db029;stop-opacity:1"
         offset="1" />
    </linearGradient>
    <radialGradient
       cx="62.225391"
       cy="-3.4420195"
       r="10.081216"
       fx="62.225391"
       fy="-3.4420195"
       id="radialGradient8816"
       xlink:href="#linearGradient8740"
       gradientUnits="userSpaceOnUse"
       gradientTransform="matrix(1,0,0,0.930233,0,-0.240141)" />
    <radialGradient
       cx="25.135374"
       cy="14.542349"
       r="4.1347499"
       fx="25.135332"
       fy="14.542329"
       id="radialGradient9193"
       xlink:href="#linearGradient8930"
       gradientUnits="userSpaceOnUse"
       gradientTransform="matrix(0.159592,5.753335,-0.8072,2.23703e-2,32.87305,-130.867)" />
    <radialGradient
       cx="62.225391"
       cy="-3.4420195"
       r="10.081216"
       fx="62.225391"
       fy="-3.4420195"
       id="radialGradient9195"
       xlink:href="#linearGradient8740"
       gradientUnits="userSpaceOnUse"
       gradientTransform="matrix(1,0,0,0.930233,0,0.589884)" />
    <radialGradient
       cx="24.478569"
       cy="17.573915"
       r="2.9719501"
       fx="24.478539"
       fy="17.573889"
       id="radialGradient9197"
       xlink:href="#linearGradient8912"
       gradientUnits="userSpaceOnUse"
       gradientTransform="matrix(0.222034,8.004376,-0.597156,1.656095e-2,29.5454,-182.3268)" />
    <linearGradient
       id="linearGradient8912">
      <stop
         id="stop8914"
         style="stop-color:#cee14b;stop-opacity:1"
         offset="0" />
      <stop
         id="stop8916"
         style="stop-color:#9db029;stop-opacity:1"
         offset="1" />
    </linearGradient>
    <radialGradient
       cx="62.225391"
       cy="-3.4420195"
       r="10.081216"
       fx="62.225391"
       fy="-3.4420195"
       id="radialGradient8820"
       xlink:href="#linearGradient8740"
       gradientUnits="userSpaceOnUse"
       gradientTransform="matrix(1,0,0,0.930233,0,-0.240141)" />
    <radialGradient
       cx="24.478569"
       cy="17.573915"
       r="2.9719501"
       fx="24.478539"
       fy="17.573889"
       id="radialGradient9199"
       xlink:href="#linearGradient8912"
       gradientUnits="userSpaceOnUse"
       gradientTransform="matrix(0.222034,8.004376,-0.597156,1.656095e-2,29.85665,-181.6002)" />
    <radialGradient
       cx="62.225391"
       cy="-3.4420195"
       r="10.081216"
       fx="62.225391"
       fy="-3.4420195"
       id="radialGradient9201"
       xlink:href="#linearGradient8740"
       gradientUnits="userSpaceOnUse"
       gradientTransform="matrix(1,0,0,0.930233,0.311259,0.486131)" />
    <radialGradient
       cx="25.969097"
       cy="17.257854"
       r="9.8222504"
       fx="25.968998"
       fy="17.257843"
       id="radialGradient9203"
       xlink:href="#linearGradient8918"
       gradientUnits="userSpaceOnUse"
       gradientTransform="matrix(6.718136e-2,2.42191,-1.629357,4.51789e-2,52.36869,-50.34012)" />
    <linearGradient
       id="linearGradient8918">
      <stop
         id="stop8920"
         style="stop-color:#cee14b;stop-opacity:1"
         offset="0" />
      <stop
         id="stop8922"
         style="stop-color:#9db029;stop-opacity:1"
         offset="1" />
    </linearGradient>
    <radialGradient
       cx="62.225391"
       cy="-3.4420195"
       r="10.081216"
       fx="62.225391"
       fy="-3.4420195"
       id="radialGradient8824"
       xlink:href="#linearGradient8740"
       gradientUnits="userSpaceOnUse"
       gradientTransform="matrix(1,0,0,0.930233,0,-0.240141)" />
    <radialGradient
       cx="25.969097"
       cy="17.257854"
       r="9.8222504"
       fx="25.968998"
       fy="17.257843"
       id="radialGradient9205"
       xlink:href="#linearGradient8918"
       gradientUnits="userSpaceOnUse"
       gradientTransform="matrix(6.168149e-2,2.223638,-1.495968,4.148028e-2,50.51125,-44.50839)" />
    <radialGradient
       cx="62.225391"
       cy="-3.4420195"
       r="10.081216"
       fx="62.225391"
       fy="-3.4420195"
       id="radialGradient9207"
       xlink:href="#linearGradient8740"
       gradientUnits="userSpaceOnUse"
       gradientTransform="matrix(0.918134,0,0,0.854079,2.429764,1.490099)" />
    <radialGradient
       cx="17.81411"
       cy="24.149399"
       r="9.125"
       fx="17.81411"
       fy="24.149399"
       id="radialGradient4851"
       xlink:href="#linearGradient4845"
       gradientUnits="userSpaceOnUse"
       gradientTransform="matrix(2.643979,0,-2.93653e-8,2.534421,-28.97514,-41.1733)" />
    <linearGradient
       x1="63.397362"
       y1="-9.3832779"
       x2="68.910904"
       y2="16.839214"
       id="linearGradient4879"
       xlink:href="#linearGradient4873"
       gradientUnits="userSpaceOnUse" />
  </defs>
  <g
     id="layer1"
     transform="matrix(3.6081811,0,0,3.7451299,4.0365286,0.8610775)">
    <g
       transform="matrix(1.3928976,0,0,1.4413968,-4.5415224,-4.4537519)"
       id="g3020">
      <g
         transform="matrix(1.284706,0,0,1.284706,-63.89629,19.96894)"
         id="g8936"
         style="display:inline">
        <path
           d="M 73.25,4.625 C 73.25,6.6270323 68.493026,8.2500001 62.625,8.2500001 C 56.756974,8.2500001 52,6.6270323 52,4.625 C 52,2.6229677 56.756974,0.99999989 62.625,0.99999989 C 68.493026,0.99999989 73.25,2.6229677 73.25,4.625 L 73.25,4.625 z"
           transform="matrix(1,0,0,1.192473,-0.590821,-2.378705)"
           id="path8836"
           style="opacity:0.56043958;fill:url(#radialGradient9169);fill-opacity:1;fill-rule:evenodd;stroke:none;stroke-width:0.99999988;stroke-linecap:butt;stroke-linejoin:round;marker:none;marker-start:none;marker-mid:none;marker-end:none;stroke-miterlimit:4;stroke-dasharray:none;stroke-dashoffset:0;stroke-opacity:1;visibility:visible;display:inline;overflow:visible" />
        <path
           d="M 71.455637,-3.5111605 C 71.455637,1.6006722 67.3116,5.7446615 62.20047,5.7446615 C 57.088872,5.7446615 52.94507,1.6006253 52.94507,-3.5111605 C 52.94507,-8.6227588 57.088872,-12.766327 62.20047,-12.766327 C 67.3116,-12.766327 71.455637,-8.6227588 71.455637,-3.5111605 L 71.455637,-3.5111605 z"
           id="path6495"
           style="fill:url(#radialGradient9171);fill-opacity:1;fill-rule:nonzero;stroke:#204a87;stroke-width:0.46514398;stroke-miterlimit:4;stroke-dasharray:none" />
        <path
           d="M 70.945908,-3.5111451 C 70.945908,1.3191267 67.030126,5.234864 62.200518,5.234864 C 57.370468,5.234864 53.454907,1.3190823 53.454907,-3.5111451 C 53.454907,-8.3411954 57.370468,-12.256535 62.200518,-12.256535 C 67.030126,-12.256535 70.945908,-8.3411954 70.945908,-3.5111451 L 70.945908,-3.5111451 z"
           id="path8655"
           style="opacity:0.52747258;fill:none;fill-opacity:1;fill-rule:nonzero;stroke:url(#linearGradient4879);stroke-width:0.46514425;stroke-miterlimit:4;stroke-dasharray:none;stroke-opacity:1" />
        <g
           transform="matrix(0.468894,0,0,0.468894,50.39042,-14.57365)"
           id="g6532"
           style="fill:#9db029;fill-rule:nonzero;stroke:url(#radialGradient8752);stroke-miterlimit:4">
          <path
             d="M 26.0703,9.2363 L 25.9971,9.7295 L 26.5069,10.0586 L 27.378,9.4829 L 26.9425,8.9892 L 26.3605,9.3188 L 26.0705,9.2363"
             id="path6534"
             style="fill:#9db029;stroke:url(#radialGradient9173)" />
        </g>
        <g
           transform="matrix(0.468894,0,0,0.468894,49.7717,-14.57365)"
           id="g6548"
           style="fill:#9db029;fill-rule:nonzero;stroke:url(#radialGradient8760);stroke-miterlimit:4">
          <path
             d="M 28.833,12.7749 L 28.542,12.0337 L 28.0322,12.1987 L 28.1787,13.103 L 28.833,12.7749"
             id="path6550"
             style="fill:#9db029;stroke:url(#radialGradient9175)" />
        </g>
        <g
           transform="matrix(0.468894,0,0,0.468894,49.94848,-14.57365)"
           id="g6556"
           style="fill:#9db029;fill-rule:nonzero;stroke:url(#radialGradient8766);stroke-miterlimit:4">
          <path
             d="M 29.123,12.6089 L 28.9775,13.5972 L 29.7773,13.4322 L 30.3584,12.857 L 29.8496,12.3629 C 29.6787,11.9078 29.4824,11.483 29.2685,11.0465 L 28.833,11.0465 L 28.833,11.5397 L 29.123,11.8688 L 29.123,12.609"
             id="path6558"
             style="fill:#9db029;stroke:url(#radialGradient9177)" />
        </g>
        <g
           transform="matrix(0.468894,0,0,0.468894,50.39042,-14.57365)"
           id="g6572"
           style="fill:#9db029;fill-rule:nonzero;stroke:url(#radialGradient8774);stroke-miterlimit:4">
          <path
             d="M 16.7656,9.5649 L 17.4922,10.0586 L 18.0742,10.0586 L 18.0742,9.4829 L 17.3476,9.1538 L 16.7656,9.5649"
             id="path6574"
             style="fill:#9db029;stroke:url(#radialGradient9179)" />
        </g>
        <g
           transform="matrix(0.468894,0,0,0.468894,50.96494,-14.52946)"
           id="g6608"
           style="fill:#9db029;fill-rule:nonzero;stroke:url(#radialGradient8782);stroke-miterlimit:4">
          <path
             d="M 17.4922,7.887132 L 17.856,7.558532 L 18.5831,7.393932 C 19.0811,7.151732 19.5811,6.988632 20.1095,6.817732 L 19.8195,6.324032 L 18.881,6.458832 L 18.4376,6.900732 L 17.7066,7.006732 L 17.0567,7.311932 L 16.7408,7.464732 L 16.5479,7.723032 L 17.4922,7.887132"
             id="path6610"
             style="fill:#9db029;stroke:url(#radialGradient9181)" />
        </g>
        <g
           transform="matrix(0.468894,0,0,0.468894,50.56718,-14.30851)"
           id="g6616"
           style="fill:#9db029;fill-rule:nonzero;stroke:url(#radialGradient8788);stroke-miterlimit:4">
          <path
             d="M 18.7285,14.6665 L 19.165,14.0083 L 18.5102,13.5151 L 18.7285,14.6665"
             id="path6618"
             style="fill:#9db029;stroke:url(#radialGradient9183)" />
        </g>
        <g
           transform="matrix(0.468894,0,0,0.468894,50.74397,-14.61784)"
           id="g6564"
           style="fill:url(#radialGradient9185);fill-opacity:1;fill-rule:nonzero;stroke:url(#radialGradient8812);stroke-miterlimit:4">
          <path
             d="M 17.943241,27.768799 L 17.424668,26.742079 L 16.453191,26.522353 L 15.935064,25.130138 L 14.639881,25.276354 L 13.539117,24.470606 L 12.372685,25.496524 L 12.372685,25.658333 C 12.019842,25.55649 11.586095,25.54259 11.271922,25.349417 L 11.012635,24.616733 L 11.012635,23.810095 L 10.235579,23.883158 C 10.300445,23.369754 10.364776,22.85724 10.430088,22.343925 L 9.9762924,22.343925 L 9.523388,22.930393 L 9.0695925,23.149672 L 8.4217333,22.784177 L 8.3568672,21.977538 L 8.4865103,21.097836 L 9.4584328,20.365152 L 10.23549,20.365152 L 10.364687,19.9249 L 11.336164,20.144179 L 12.0488,21.024772 L 12.178443,19.557711 L 13.409207,18.531793 L 13.862557,17.431921 L 14.769256,17.065623 L 15.287383,16.332939 L 16.452924,16.111966 L 17.036363,15.233155 C 16.45337,15.233155 15.870376,15.233155 15.287383,15.233155 L 16.388503,14.719751 L 17.165115,14.719751 L 18.26668,14.352562 L 18.396323,13.914003 L 18.007394,13.546815 L 17.554044,13.399797 L 17.683687,12.960347 L 17.35998,12.300815 L 16.582478,12.593158 L 16.712121,12.007136 L 15.805421,11.493731 L 15.093231,12.739285 L 15.157651,13.179537 L 14.445461,13.473662 L 13.991665,14.426428 L 13.797601,13.546726 L 12.566838,13.033321 L 12.372329,12.37379 L 13.991665,11.420133 L 14.704301,10.760601 L 14.769167,9.9544084 L 14.380684,9.7342382 L 13.862557,9.6607292 L 13.53885,10.467367 C 13.53885,10.467367 12.9972,10.573488 12.857934,10.607881 C 11.079373,12.246819 7.4857189,15.784785 6.650835,22.463945 C 6.6838918,22.618804 7.2560145,23.516772 7.2560145,23.516772 L 8.6160643,24.322519 L 9.9761142,24.689708 L 10.559553,25.423194 L 11.465807,26.082725 L 11.983934,26.009662 L 12.372418,26.184569 L 12.372418,26.302896 L 11.854647,27.695557 L 11.465718,28.282025 L 11.595361,28.57615 L 11.271654,29.674241 L 12.437641,31.800833 L 13.603181,32.827553 L 14.121754,33.560237 L 14.056531,35.100362 L 14.445461,35.979173 L 14.056531,37.665514 C 14.056531,37.665514 14.026058,37.655089 14.075688,37.823848 C 14.125763,37.992695 16.150958,39.116893 16.27971,39.021198 C 16.408017,38.92372 16.517701,38.83845 16.517701,38.83845 L 16.388503,38.472954 L 16.906274,37.95955 L 17.100783,37.446145 L 17.943063,37.15202 L 18.590476,35.538832 L 18.396413,35.100273 L 18.848871,34.440741 L 19.820794,34.219769 L 20.339366,33.046833 L 20.209723,31.581554 L 20.98678,30.481681 L 21.116423,29.381808 C 20.053082,28.854504 18.998473,28.311518 17.943063,27.76862"
             id="path6566"
             style="fill:url(#radialGradient9187);fill-opacity:1;stroke:url(#radialGradient9189)" />
        </g>
        <g
           transform="matrix(0.468894,0,0,0.468894,50.523,-14.44107)"
           id="g6540"
           style="fill:url(#radialGradient9191);fill-opacity:1;fill-rule:nonzero;stroke:url(#radialGradient8816);stroke-miterlimit:4">
          <path
             d="M 26.8701,6.6933256 L 24.9795,5.9526256 L 22.7998,6.1992256 L 20.1094,6.9394256 L 19.6006,7.4335256 L 21.2725,8.5849256 L 21.2725,9.2431256 L 20.6182,9.9013256 L 21.4912,11.630324 L 22.0713,11.300224 L 22.7998,10.148825 C 23.9228,9.8016256 24.9297,9.4081256 25.9971,8.9144256 L 26.8701,6.6932256"
             id="path6542"
             style="fill:url(#radialGradient9193);fill-opacity:1;stroke:url(#radialGradient9195)" />
        </g>
        <g
           transform="matrix(0.468894,0,0,0.468894,50.83236,-14.75043)"
           id="g6580"
           style="fill:url(#radialGradient9197);fill-opacity:1;fill-rule:nonzero;stroke:url(#radialGradient8820);stroke-miterlimit:4">
          <path
             d="M 15.187259,9.6334723 L 14.823459,10.538271 L 15.550559,10.538271 L 15.914359,9.7154723 C 16.227859,9.4937723 16.539859,9.2706723 16.859159,9.0572723 L 17.586259,9.3043723 C 18.070659,9.6334723 18.555059,9.9625723 19.039859,10.291172 L 19.767359,9.6334723 L 18.967059,9.3043723 L 18.603259,8.5636723 L 17.222359,8.3990723 L 17.149559,7.9874723 L 16.495259,8.1524723 L 16.204859,8.7282723 L 15.841059,7.9875723 L 15.696059,8.3166723 L 15.768859,9.1394723 L 15.187259,9.6334723"
             id="path6582"
             style="fill:url(#radialGradient9199);fill-opacity:1;stroke:url(#radialGradient9201)" />
        </g>
        <g
           transform="matrix(0.468894,0,0,0.468894,50.12526,-14.48526)"
           id="g6626"
           style="fill:url(#radialGradient9203);fill-opacity:1;fill-rule:nonzero;stroke:url(#radialGradient8824);stroke-miterlimit:4">
          <path
             d="M 42.893123,20.729176 C 42.893123,20.97037 42.893123,20.729176 42.893123,20.729176 L 42.392832,21.295848 C 42.086175,20.934471 41.741875,20.630568 41.392249,20.313169 L 40.624781,20.4261 L 39.923602,19.633475 L 39.923602,20.614409 L 40.524337,21.068977 L 40.924185,21.521801 L 41.458539,20.917485 C 41.593045,21.169421 41.725716,21.421357 41.859304,21.673293 L 41.859304,22.428275 L 41.257651,23.107877 L 40.156625,23.863685 L 39.322775,24.69579 L 38.788421,24.089638 L 39.055598,23.410035 L 38.522071,22.80572 L 37.621014,20.87975 L 36.853546,20.011838 L 36.652658,20.237791 L 36.953898,21.333492 L 37.52057,21.975451 C 37.844212,22.909744 38.164366,23.802721 38.58937,24.69579 C 39.248406,24.69579 39.869708,24.625828 40.524245,24.54338 L 40.524245,25.072409 L 39.723541,27.036481 L 38.989217,27.86675 L 38.388482,29.152504 C 38.388482,29.857264 38.388482,30.562024 38.388482,31.266692 L 38.58937,32.098797 L 38.255812,32.475415 L 37.52057,32.929065 L 36.753102,33.571024 L 37.3879,34.288362 L 36.519988,35.045089 L 36.686721,35.534638 L 35.384807,37.008702 L 34.517813,37.008702 L 33.783489,37.462352 L 33.315425,37.462352 L 33.315425,36.858036 L 33.116373,35.647568 C 32.858102,34.889006 32.589181,34.13586 32.315668,33.382715 C 32.315668,32.826785 32.348813,32.276272 32.382049,31.720433 L 32.716526,30.965452 L 32.248461,30.05806 L 32.282524,28.811785 L 31.647726,28.094447 L 31.965125,27.056129 L 31.448674,26.470176 L 30.5467,26.470176 L 30.246378,26.130375 L 29.345321,26.697506 L 28.978619,26.28104 L 28.143851,26.998746 C 27.577179,26.356327 27.009588,25.714368 26.44209,25.072409 L 25.774974,23.485414 L 26.375709,22.579859 L 26.042151,22.202414 L 26.775556,20.463835 C 27.378127,19.714271 28.007508,18.995188 28.644142,18.273443 L 29.779231,17.971285 L 31.047083,17.820619 L 31.914995,18.04749 L 33.14961,19.292847 L 33.583611,18.80238 L 34.183428,18.727093 L 35.318517,19.104538 L 36.18643,19.104538 L 36.787165,18.575509 L 37.054342,18.198064 L 36.452688,17.820619 L 35.451188,17.745332 C 35.173269,17.359808 34.914998,16.954543 34.58502,16.611988 L 34.250544,16.762653 L 34.116955,17.745332 L 33.51622,17.065729 L 33.38355,16.309003 L 32.716434,15.781811 L 32.448339,15.781811 L 33.116281,16.536792 L 32.849104,17.216395 L 32.315577,17.367061 L 32.649135,16.687458 L 32.047481,16.386218 L 31.514872,15.781903 L 30.512453,16.007855 L 30.379783,16.309095 L 29.779048,16.687458 L 29.44549,17.518645 L 28.61164,17.933733 L 28.24402,17.518645 L 27.844172,17.518645 L 27.844172,16.158521 L 28.712084,15.704871 L 29.3792,15.704871 L 29.244694,15.176761 L 28.712084,14.647732 L 29.612315,14.458504 L 30.112606,13.89275 L 30.512453,13.212229 L 31.247695,13.212229 L 31.046807,12.684119 L 31.514872,12.381961 L 31.514872,12.986276 L 32.515454,13.212229 L 33.516037,12.381961 L 33.583244,12.003598 L 34.450238,11.399741 C 34.13642,11.438762 33.822602,11.467407 33.515945,11.550866 L 33.515945,10.870437 L 33.849503,10.114996 L 33.515945,10.114996 L 32.782907,10.794599 L 32.582019,11.172503 L 32.782907,11.701991 L 32.448431,12.607546 L 31.914903,12.305388 L 31.448674,11.777278 L 30.713433,12.305388 L 30.446256,11.097216 L 31.714107,10.266488 L 31.714107,9.8128376 L 32.515638,9.284268 L 33.783489,8.981651 L 34.651401,9.284268 L 36.252719,9.5864259 L 35.852871,10.03925 L 34.984959,10.03925 L 35.852871,10.945724 L 36.519988,10.190742 L 36.72262,9.8585606 C 36.72262,9.8585606 39.281551,12.15206 40.743955,14.660861 C 42.206359,17.170489 42.893123,20.128441 42.893123,20.729176 z"
             id="path6628"
             style="fill:url(#radialGradient9205);fill-opacity:1;stroke:url(#radialGradient9207)" />
        </g>
      </g>
    </g>
    <g
       transform="translate(4.358709,-7.1310812)"
       id="g2469">
      <path
         d="M 24,18.125 C 24,21.438708 21.313708,24.125 18,24.125 C 14.686292,24.125 12,21.438708 12,18.125 C 12,14.811292 14.686292,12.125 18,12.125 C 21.313708,12.125 24,14.811292 24,18.125 L 24,18.125 z"
         transform="matrix(0.714286,0,0,0.714286,6.267857,6.428571)"
         id="path3066"
         style="opacity:0.35714285;fill:none;fill-opacity:1;fill-rule:evenodd;stroke:#ffffff;stroke-width:2.79999995;stroke-linecap:butt;stroke-linejoin:round;marker:none;marker-start:none;marker-mid:none;marker-end:none;stroke-miterlimit:4;stroke-dasharray:none;stroke-dashoffset:0;stroke-opacity:1;visibility:visible;display:inline;overflow:visible" />
      <path
         d="M 24,18.125 C 24,21.438708 21.313708,24.125 18,24.125 C 14.686292,24.125 12,21.438708 12,18.125 C 12,14.811292 14.686292,12.125 18,12.125 C 21.313708,12.125 24,14.811292 24,18.125 L 24,18.125 z"
         transform="matrix(1.406854,0,0,1.406854,-6.198359,-6.124216)"
         id="path3941"
         style="opacity:0.35714285;fill:none;fill-opacity:1;fill-rule:evenodd;stroke:#ffffff;stroke-width:0.71080583;stroke-linecap:butt;stroke-linejoin:round;marker:none;marker-start:none;marker-mid:none;marker-end:none;stroke-miterlimit:4;stroke-dasharray:none;stroke-dashoffset:0;stroke-opacity:1;visibility:visible;display:inline;overflow:visible" />
      <path
         d="M 24,18.125 C 24,21.438708 21.313708,24.125 18,24.125 C 14.686292,24.125 12,21.438708 12,18.125 C 12,14.811292 14.686292,12.125 18,12.125 C 21.313708,12.125 24,14.811292 24,18.125 L 24,18.125 z"
         transform="matrix(2.051269,0,0,2.051269,-17.79782,-17.80423)"
         id="path3943"
         style="opacity:0.35714285;fill:none;fill-opacity:1;fill-rule:evenodd;stroke:#ffffff;stroke-width:0.24375159;stroke-linecap:butt;stroke-linejoin:round;marker:none;marker-start:none;marker-mid:none;marker-end:none;stroke-miterlimit:4;stroke-dasharray:none;stroke-dashoffset:0;stroke-opacity:1;visibility:visible;display:inline;overflow:visible" />
    </g>
    <g
       transform="matrix(-5.4194332e-2,-5.0128145e-2,-5.4660887e-2,4.4869099e-2,56.681769,13.023012)"
       id="Layer_3">
      <path
         d="M 182.65,173.129 L 180.317,179.313 L 366.793,248.008 C 367.197,245.901 368.293,243.928 368.955,241.761 L 182.65,173.129 z"
         id="path2825"
         style="fill:#ff0000" />
      <path
         d="M 180.528,179.824 L 146.634,375.649 C 148.836,377.131 151.066,378.469 153.35,379.751 L 187.764,180.926 L 180.528,179.824 z"
         id="path2827"
         style="fill:#ff0000" />
      <path
         d="M 244.787,288.181 C 178.161,329.39 153.069,369.037 148.716,376.557 C 150.416,377.575 152.133,378.519 153.874,379.429 C 164.181,363.311 191.775,326.883 248.078,292.568 C 299.292,261.354 344.08,251.673 365.922,248.677 C 366.276,246.897 367.141,245.277 367.993,243.606 C 353.696,245.325 300.475,253.737 244.787,288.181 z"
         id="path2829"
         style="fill:#ff0000" />
      <polygon
         points="263.86,51.352 183.091,103.005 168.93,51.652 249.699,0 263.86,51.352 "
         id="polygon2831"
         style="fill:#0000ff;fill-opacity:1" />
      <path
         d="M 175.983,114.397 C 175.983,114.397 163.461,117.858 152.68,124.242 C 141.899,130.626 132.857,139.935 132.857,139.935 L 98.65,82.435 C 98.65,82.435 105.303,70.087 116.292,63.581 C 126.857,57.324 141.774,56.898 141.774,56.898 L 175.983,114.397 z"
         id="path2833"
         style="fill:#000080" />
      <path
         d="M 152.493,136.525 C 172.213,123.634 193.736,116.427 202.23,119.623 C 196.757,117.116 175.087,108.797 152.042,121.867 C 128.184,135.398 125.859,156.424 125.877,164.246 C 126.953,157.471 136.976,146.669 152.493,136.525 z"
         id="path2835"
         style="fill:#666667" />
      <path
         d="M 205.773,125.483 C 205.912,124.498 205.857,123.598 205.596,122.802 C 205.485,122.46 205.336,122.137 205.148,121.835 C 205.023,121.634 204.881,121.441 204.721,121.257 C 204.403,120.89 204.014,120.56 203.554,120.269 C 202.175,119.398 200.25,118.946 197.896,118.876 C 197.504,118.864 197.1,118.864 196.684,118.873 C 195.853,118.891 194.976,118.953 194.058,119.053 C 193.599,119.104 193.129,119.165 192.65,119.235 C 192.41,119.27 192.169,119.308 191.923,119.349 C 191.435,119.43 190.936,119.52 190.429,119.62 C 190.175,119.671 189.919,119.722 189.66,119.777 C 189.144,119.886 188.619,120.006 188.086,120.135 C 177.956,122.582 164.868,128.435 152.492,136.525 C 140.441,144.401 131.704,152.677 127.896,159.155 C 127.691,159.504 127.499,159.849 127.323,160.189 C 127.146,160.528 126.984,160.862 126.837,161.19 C 126.691,161.518 126.559,161.84 126.441,162.155 C 126.031,163.259 125.807,164.286 125.781,165.221 C 125.773,165.489 125.782,165.748 125.807,166.001 C 125.954,167.512 126.691,168.741 128.07,169.612 C 135.427,174.259 158.288,166.982 179.132,153.356 C 179.783,152.93 180.425,152.503 181.056,152.076 C 195.589,142.238 204.864,131.969 205.773,125.483 z"
         id="path2837"
         style="fill:#989898" />
      <rect
         width="49.895"
         height="2.4549999"
         x="141.008"
         y="160.14"
         transform="matrix(0.7021,0.7121,-0.7121,0.7021,164.3516,-70.1016)"
         id="rect2839" />
      <rect
         width="49.894001"
         height="2.454"
         x="155.701"
         y="153.297"
         transform="matrix(-0.2491,-0.9685,0.9685,-0.2491,75.9908,367.9678)"
         id="rect2841" />
      <path
         d="M 182.736,172.197 L 160.539,131.878 C 159.648,132.151 158.848,132.333 158.325,132.948 L 180.586,173.381 L 182.736,172.197 z"
         id="path2843" />
      <circle
         cx="184.314"
         cy="176.851"
         r="6.6620002"
         id="circle2845"
         sodipodi:cx="184.314"
         sodipodi:cy="176.851"
         sodipodi:rx="6.6620002"
         sodipodi:ry="6.6620002" />
      <polygon
         points="110.624,151.075 26.927,204.696 13.282,152.997 96.979,99.375 110.624,151.075 "
         id="polygon2847"
         style="fill:#0000ff" />
      <path
         d="M 97.479,128.201 L 100.008,131.775 L 123.553,116.514 C 123.285,115.946 121.371,113.221 121.033,112.724 L 97.479,128.201 z"
         id="path2849" />
      <path
         d="M 157.986,89.501 L 160.515,93.075 L 184.061,77.814 C 183.792,77.245 181.879,74.52 181.54,74.023 L 157.986,89.501 z"
         id="path2851" />
    </g>
    <g
       id="g2621">
      <text
         x="21.522072"
         y="30.883551"
         transform="scale(0.9127181,1.0956285)"
         id="text2485"
         xml:space="preserve"
         style="font-size:13.03157616px;font-style:normal;font-variant:normal;font-weight:bold;font-stretch:normal;text-align:start;line-height:125%;writing-mode:lr-tb;text-anchor:start;fill:#ff0000;fill-opacity:1;stroke:#000000;stroke-width:0.15254754;stroke-linecap:butt;stroke-linejoin:miter;stroke-miterlimit:4;stroke-dasharray:none;stroke-opacity:1;font-family:Bitstream Vera Sans;-inkscape-font-specification:Bitstream Vera Sans Bold"
         sodipodi:linespacing="125%"><tspan
           x="21.522072"
           y="30.883551"
           id="tspan2487"
           style="stroke-width:0.15254754">GSD</tspan></text>
      <text
         x="-0.057800204"
         y="26.1395"
         transform="scale(0.9002193,1.1108405)"
         id="text3127"
         xml:space="preserve"
         style="font-size:19.24011421px;font-style:oblique;font-variant:normal;font-weight:bold;font-stretch:normal;text-align:start;line-height:81.99999928%;writing-mode:lr-tb;text-anchor:start;fill:#000080;fill-opacity:1;fill-rule:nonzero;stroke:#000000;stroke-width:0.26911601;stroke-linecap:butt;stroke-linejoin:miter;stroke-miterlimit:4;stroke-dasharray:none;stroke-opacity:1;display:inline;font-family:Bitstream Vera Sans;-inkscape-font-specification:Bitstream Vera Sans Bold Oblique"
         sodipodi:linespacing="81.999999%"><tspan
           x="-0.057800204"
           y="26.1395"
           id="tspan3125"
           style="font-size:19.24011421px;font-style:oblique;font-variant:normal;font-weight:bold;font-stretch:normal;text-align:start;line-height:81.99999928%;writing-mode:lr-tb;text-anchor:start;fill:#000080;fill-opacity:1;fill-rule:nonzero;stroke:#000000;stroke-width:0.26911601;stroke-miterlimit:4;stroke-dasharray:none;stroke-opacity:1;font-family:Bitstream Vera Sans;-inkscape-font-specification:Bitstream Vera Sans Bold Oblique" /><tspan
           x="-0.057800204"
           y="41.916393"
           id="tspan3123"
           style="font-size:19.24011421px;font-style:oblique;font-variant:normal;font-weight:bold;font-stretch:normal;text-align:start;line-height:81.99999928%;writing-mode:lr-tb;text-anchor:start;fill:#000080;fill-opacity:1;fill-rule:nonzero;stroke:#000000;stroke-width:0.26911601;stroke-miterlimit:4;stroke-dasharray:none;stroke-opacity:1;font-family:Bitstream Vera Sans;-inkscape-font-specification:Bitstream Vera Sans Bold Oblique">View</tspan></text>
    </g>
  </g>
  <text
     xml:space="preserve"
     style="font-size:40px;font-style:italic;font-variant:normal;font-weight:bold;font-stretch:normal;text-align:start;line-height:125%;writing-mode:lr-tb;text-anchor:start;fill:#848484;fill-opacity:1;stroke:none;stroke-width:1px;stroke-linecap:butt;stroke-linejoin:miter;stroke-opacity:1;font-family:Comic Sans MS;-inkscape-font-specification:Comic Sans MS Bold Italic"
     x="4.3497467"
     y="223.98642"
     id="text2490"
     sodipodi:linespacing="125%"><tspan
       sodipodi:role="line"
       id="tspan2492"
       x="4.3497467"
       y="223.98642">Geo-Spatial Data Viewer</tspan></text>
</svg>
