<?xml version="1.0" encoding="UTF-8" standalone="no"?>
<!-- Created with Sodipodi ("http://www.sodipodi.com/") -->

<svg
   xmlns:dc="http://purl.org/dc/elements/1.1/"
   xmlns:cc="http://creativecommons.org/ns#"
   xmlns:rdf="http://www.w3.org/1999/02/22-rdf-syntax-ns#"
   xmlns:svg="http://www.w3.org/2000/svg"
   xmlns="http://www.w3.org/2000/svg"
   xmlns:xlink="http://www.w3.org/1999/xlink"
   xmlns:sodipodi="http://sodipodi.sourceforge.net/DTD/sodipodi-0.dtd"
   xmlns:inkscape="http://www.inkscape.org/namespaces/inkscape"
   id="svg604"
   sodipodi:version="0.32"
   width="90"
   height="90"
   sodipodi:docname="mouse-pointer.svg"
   inkscape:version="0.47 r22583"
   inkscape:output_extension="org.inkscape.output.svg.inkscape"
   version="1.0">
  <metadata
     id="metadata14">
    <rdf:RDF>
      <cc:Work
         rdf:about="">
        <dc:format>image/svg+xml</dc:format>
        <dc:type
           rdf:resource="http://purl.org/dc/dcmitype/StillImage" />
      </cc:Work>
    </rdf:RDF>
  </metadata>
  <defs
     id="defs606">
    <inkscape:perspective
       sodipodi:type="inkscape:persp3d"
       inkscape:vp_x="0 : 45 : 1"
       inkscape:vp_y="0 : 1000 : 0"
       inkscape:vp_z="90 : 45 : 1"
       inkscape:persp3d-origin="45 : 30 : 1"
       id="perspective2865" />
    <linearGradient
       xlink:href="#linearGradient556"
       id="linearGradient600"
       x1="38.770719"
       y1="28.499883"
       x2="45.893176"
       y2="31.002362"
       gradientUnits="userSpaceOnUse" />
    <radialGradient
       id="radialGradient586"
       xlink:href="#linearGradient627"
       cx="42.264157"
       cy="30.905696"
       r="0.71442052"
       fx="42.315449"
       fy="30.751819"
       spreadMethod="reflect"
       gradientUnits="userSpaceOnUse" />
    <linearGradient
       x1="0.00000000"
       y1="0.00000000"
       x2="1.00000000"
       y2="0.00000000"
       id="linearGradient627"
       gradientUnits="objectBoundingBox"
       spreadMethod="pad">
      <stop
         style="stop-color:#f1e36c;stop-opacity:1;"
         offset="0.00000000"
         id="stop628" />
      <stop
         style="stop-color:#ffc83d;stop-opacity:1;"
         offset="1.00000000"
         id="stop629" />
    </linearGradient>
    <linearGradient
       xlink:href="#linearGradient627"
       id="linearGradient637"
       x1="8.1830017"
       y1="26.828369"
       x2="39.174589"
       y2="26.163691"
       gradientTransform="matrix(0.7215841,0,0,1.1255035,0.8253503,35.770367)"
       gradientUnits="userSpaceOnUse" />
    <linearGradient
       x1="0.00000000"
       y1="0.00000000"
       x2="1.00000000"
       y2="0.00000000"
       id="linearGradient556"
       gradientUnits="objectBoundingBox"
       spreadMethod="pad">
      <stop
         style="stop-color:#000000;stop-opacity:1;"
         offset="0.00000000"
         id="stop557" />
      <stop
         style="stop-color:#ffffff;stop-opacity:1;"
         offset="1.00000000"
         id="stop558" />
    </linearGradient>
    <linearGradient
       id="linearGradient559"
       xlink:href="#linearGradient556"
       x1="37.596279"
       y1="22.342376"
       x2="37.596279"
       y2="41.664553"
       gradientTransform="matrix(0.8389179,0,0,0.9680914,0.8253503,35.770367)"
       gradientUnits="userSpaceOnUse" />
    <linearGradient
       id="linearGradient612">
      <stop
         style="stop-color:#7fa8e3;stop-opacity:0.741176;"
         offset="0.000000"
         id="stop613" />
      <stop
         style="stop-color:#ffffff;stop-opacity:0;"
         offset="1.000000"
         id="stop614" />
    </linearGradient>
    <linearGradient
       xlink:href="#linearGradient612"
       id="linearGradient615"
       x1="50.643887"
       y1="5.3679295"
       x2="35.752094"
       y2="68.044357"
       gradientUnits="userSpaceOnUse"
       spreadMethod="pad"
       gradientTransform="matrix(0.7285966,0,0,0.7285966,12.673761,8.8682592)" />
    <linearGradient
       inkscape:collect="always"
       xlink:href="#linearGradient612"
       id="linearGradient1070"
       gradientUnits="userSpaceOnUse"
       spreadMethod="pad"
       x1="50.643887"
       y1="5.3679295"
       x2="35.752094"
       y2="68.044357"
       gradientTransform="matrix(0.7285966,0,0,0.7285966,12.673761,8.8682592)" />
    <inkscape:perspective
       id="perspective2875"
       inkscape:persp3d-origin="0.5 : 0.33333333 : 1"
       inkscape:vp_z="1 : 0.5 : 1"
       inkscape:vp_y="0 : 1000 : 0"
       inkscape:vp_x="0 : 0.5 : 1"
       sodipodi:type="inkscape:persp3d" />
  </defs>
  <sodipodi:namedview
     id="base"
     inkscape:zoom="2.5208334"
     inkscape:cx="32.728133"
     inkscape:cy="62.338728"
     inkscape:window-width="897"
     inkscape:window-height="619"
     inkscape:window-x="5"
     inkscape:window-y="48"
     inkscape:current-layer="svg604"
     width="90px"
     height="90px"
     showgrid="false"
     inkscape:window-maximized="0" />
  <g
     id="g921"
     transform="matrix(0.86166951,0.95917598,-0.83083541,0.69077713,118.26014,-137.80486)"
     inkscape:transform-center-y="-10.922503">
    <path
       d="m 51.9665,36.0486 c 1.9937,0.9968 13.5059,-1.2773 13.7907,-3.4133 1.1166,-3.5514 -1.9125,-4.8576 -1.6932,-6.3995 0.4272,-1.4241 5.3257,-6.9264 4.7718,-8.6553 -1.5935,-3.1443 -5.8656,-7.0137 -8.8764,-5.1424 -2.5949,2.3432 -4.3287,8.277 -5.8952,7.7074 -1.5665,-0.5696 -2.9521,-0.0821 -3.3793,0.9147 -0.4272,0.9968 -0.9968,14.2763 1.2816,14.9884 z"
       transform="matrix(1.435965,1.971143,-1.73768,1.265889,27.79248,15.41795)"
       style="fill:#3c4c65;fill-opacity:0.98131355;fill-rule:evenodd;stroke-width:1pt"
       id="path582" />
    <path
       d="m 51.5506,35.4589 c 1.9937,0.9968 12.6741,-0.5697 12.9589,-2.7057 0.2848,-2.1361 -2.8481,-3.5602 -2.4209,-4.9842 0.4272,-1.4241 7.4051,-10.1108 6.1234,-11.25 -1.2816,-1.1393 -5.5538,-5.1266 -6.693,-3.845 -1.1393,1.2817 -6.4082,11.1076 -7.9747,10.538 -1.5665,-0.5696 -2.8481,-1.8512 -3.2753,-0.8544 -0.4272,0.9968 -0.9968,12.3892 1.2816,13.1013 z"
       style="fill:#9bb9e3;fill-opacity:1;fill-rule:evenodd;stroke-width:1pt"
       id="path581"
       transform="matrix(1.048427,1.439171,-1.439171,1.048427,43.51239,52.10931)" />
    <path
       d="m 67.6424,15.9494 c 0,0 1.4241,0.8544 0.4272,2.5633 -0.9968,1.7088 -6.5506,9.2563 -6.1234,9.8259 1.5664,1.2816 3.4177,4.4145 2.4209,5.269 -1.7088,1.5664 -11.5348,2.7057 -12.6741,2.1361 -1.1392,-0.5697 8.4019,-2.2785 8.5443,-4.6994 0.1424,-2.4209 -2.4208,-3.4177 -1.5664,-4.8418 0.8544,-1.424 6.693,-11.25 7.5475,-10.9652 0.8544,0.2848 1.5664,1.2817 1.424,0.7121 z"
       style="fill:#437caf;fill-opacity:1;fill-rule:evenodd;stroke-width:1pt"
       id="path583"
       transform="matrix(1.048427,1.439171,-1.439171,1.048427,43.51239,52.10931)" />
    <path
       d="m 89.897203,156.97832 c 0,0 -21.793542,-1.06389 -22.724711,0.24188 -0.931025,1.30567 17.639087,4.40407 22.724711,-0.24188 z"
       style="font-size:12px;fill:#ffffff;fill-rule:evenodd;stroke-width:1pt"
       id="path588" />
    <path
       d="m 49.931228,160.68275 c 0,0 8.38233,-8.30243 10.469876,-8.88208 2.087412,-0.57952 0.916232,3.41078 0.916232,3.41078 0,0 -10.604379,3.9607 -11.386108,5.4713 z"
       style="font-size:12px;fill:#ffffff;fill-rule:evenodd;stroke-width:1pt"
       id="path589" />
  </g>
</svg>
