<?xml version="1.0" encoding="UTF-8" standalone="no"?>
<!DOCTYPE svg PUBLIC "-//W3C//DTD SVG 20010904//EN"
"http://www.w3.org/TR/2001/REC-SVG-20010904/DTD/svg10.dtd">
<!-- Created with Sodipodi ("http://www.sodipodi.com/") -->
<svg
   version="1"
   x="0.00000000"
   y="0.00000000"
   width="24.000000pt"
   height="24.000000pt"
   id="svg548"
   sodipodi:version="0.32"
   sodipodi:docname="stock_goto-bottom.svg"
   sodipodi:docbase="/home/zeus/.icons/gartoon/scalable/stock-gar"
   inkscape:version="0.40"
   xmlns="http://www.w3.org/2000/svg"
   xmlns:inkscape="http://www.inkscape.org/namespaces/inkscape"
   xmlns:sodipodi="http://sodipodi.sourceforge.net/DTD/sodipodi-0.dtd"
   xmlns:xlink="http://www.w3.org/1999/xlink"
   xmlns:rdf="http://www.w3.org/1999/02/22-rdf-syntax-ns#"
   xmlns:cc="http://web.resource.org/cc/"
   xmlns:dc="http://purl.org/dc/elements/1.1/">
  <metadata
     id="metadata18">
    <rdf:RDF
       id="RDF19">
      <cc:Work
         rdf:about=""
         id="Work20">
        <dc:format
           id="format21">image/svg+xml</dc:format>
        <dc:type
           id="type23"
           rdf:resource="http://purl.org/dc/dcmitype/StillImage" />
      </cc:Work>
    </rdf:RDF>
  </metadata>
  <sodipodi:namedview
     id="base"
     inkscape:zoom="9.6562500"
     inkscape:cx="16.000000"
     inkscape:cy="-0.72476423"
     inkscape:window-width="1014"
     inkscape:window-height="696"
     inkscape:window-x="0"
     inkscape:window-y="25"
     inkscape:current-layer="svg548">
    <sodipodi:guide
       orientation="horizontal"
       position="8.80258900"
       id="guide587" />
  </sodipodi:namedview>
  <defs
     id="defs550">
    <linearGradient
       x1="0.00000000"
       y1="0.00000000"
       x2="1.00000000"
       y2="0.00000000"
       id="linearGradient556"
       gradientUnits="objectBoundingBox"
       spreadMethod="pad">
      <stop
         style="stop-color:#ff8700;stop-opacity:1;"
         offset="0.00000000"
         id="stop557" />
      <stop
         style="stop-color:#ffff8d;stop-opacity:0;"
         offset="1.00000000"
         id="stop558" />
    </linearGradient>
    <linearGradient
       x1="0.00000000"
       y1="0.00000000"
       x2="1.00000000"
       y2="0.00000000"
       id="linearGradient559"
       xlink:href="#linearGradient556"
       gradientUnits="objectBoundingBox"
       spreadMethod="pad" />
  </defs>
  <path
     d="M 15.420387,23.914152 C 17.758987,23.471288 26.648982,15.585548 25.673961,14.010375 C 24.622430,11.035230 21.188987,11.846297 20.497300,10.701639 C 20.057441,9.5200035 21.234705,3.1554490 19.750733,2.3149879 C 16.532717,1.1111320 10.525584,0.90980173 8.9340454,3.8192686 C 7.9820094,6.8115137 9.8557174,11.709454 8.1409554,12.199175 C 6.4261983,12.688887 5.4790459,13.779877 5.6733868,14.677968 C 5.8677372,15.576058 12.993210,24.703629 15.420387,23.914152 z "
     style="font-size:12.000000;fill:#0d3c07;fill-rule:evenodd"
     id="path582" />
  <path
     d="M 15.401633,21.325771 C 17.165273,21.067316 23.326681,15.887028 22.494406,14.597929 C 21.662088,13.308769 18.958407,13.793098 18.557037,12.837717 C 18.155619,11.882280 18.534415,4.2861616 17.163451,4.1784105 C 15.792505,4.0705653 11.132321,3.6069362 11.005491,4.7720068 C 10.878641,5.9371702 12.147130,13.468234 10.863047,13.788708 C 9.5789644,14.109183 8.1403014,13.923131 8.3383864,14.643727 C 8.5364624,15.364328 13.589368,21.855837 15.401633,21.325771 z "
     style="font-size:12.000000;fill:#2aaf18;fill-rule:evenodd"
     id="path581" />
  <path
     d="M 16.524047,4.0957156 C 16.524047,4.0957156 17.851568,3.9893540 18.020099,5.3317160 C 18.188645,6.6739778 18.188682,13.068074 18.736000,13.208351 C 20.358841,13.279224 23.046890,14.252333 22.808898,15.125089 C 22.449238,16.677037 16.637073,21.277001 15.629249,21.424706 C 14.621448,21.572321 19.978368,16.774582 18.918430,15.386488 C 17.858496,13.998398 15.726572,14.487173 15.601423,13.358966 C 15.476312,12.230811 14.576182,4.4693026 15.264304,4.2802460 C 15.952360,4.0912319 16.887187,4.3511758 16.524047,4.0957156 z "
     style="font-size:12.000000;fill:#208c11;fill-rule:evenodd"
     id="path583" />
  <path
     d="M 12.378212,4.7178770 C 12.378212,4.7178770 11.945578,13.071503 12.536386,13.425944 C 13.127152,13.780334 14.484147,6.6582470 12.378212,4.7178770 z "
     style="font-size:12.000000;fill:#ffffff;fill-rule:evenodd"
     id="path588" />
  <path
     d="M 14.134972,20.026744 C 14.134972,20.026744 10.373132,16.829729 10.107245,16.030814 C 9.8414144,15.231940 11.643251,15.673433 11.643251,15.673433 C 11.643251,15.673433 13.452120,19.729942 14.134972,20.026744 z "
     style="font-size:12.000000;fill:#ffffff;fill-rule:evenodd"
     id="path589" />
  <path
     style="font-size:12.000000;fill:#0d3c07;fill-rule:evenodd;stroke-width:1.0000000"
     d="M 4.5048338,23.756543 L 4.2583552,25.773821 C 4.1937131,26.774740 4.1517016,27.387166 4.2822905,28.715465 L 25.170958,28.435160 C 25.576704,27.130208 25.695000,26.633644 25.471293,25.482029 C 25.213426,24.659234 25.440378,25.284424 25.003110,24.206650 C 25.245072,24.115501 5.3516549,23.424586 4.5048338,23.756543 z "
     id="path590"
     sodipodi:nodetypes="ccccccc" />
  <path
     style="font-size:12.000000;fill:#2aaf18;fill-rule:evenodd;stroke-width:1.0000000"
     d="M 5.3331548,25.102649 C 5.1467433,25.504273 5.1142126,25.904928 5.0816867,26.305572 C 5.0491560,26.706226 4.9908015,27.064139 5.1379783,27.506560 L 24.628760,27.383450 C 24.845298,27.031689 24.933602,26.680751 24.944967,26.330285 C 24.956327,25.979823 24.917029,25.779849 24.696958,25.280670 L 5.3331548,25.102649 z "
     id="path591"
     sodipodi:nodetypes="ccccccc" />
  <path
     style="font-size:12.000000;fill:#208c11;fill-rule:evenodd;stroke-width:1.0000000"
     d="M 5.3678331,27.276580 L 24.448454,27.194907 C 24.448454,27.194907 24.568639,26.800861 24.586226,26.405039 C 24.603817,26.009217 24.518809,25.611610 24.518772,25.601903 C 24.518692,25.582484 24.185049,25.526329 23.750206,25.800977 C 23.286982,26.111698 23.875755,26.631826 23.471574,26.637854 L 5.4175923,26.907265 C 5.3051691,26.908946 5.0247922,27.278049 5.3678331,27.276580 z "
     id="path592"
     sodipodi:nodetypes="ccssssss" />
  <path
     style="font-size:12.000000;fill:#ffffff;fill-rule:evenodd;stroke-width:1.0000000"
     d="M 5.6884064,25.387771 C 5.2102080,25.731583 5.4866381,26.297829 5.5208926,26.297613 C 7.0608544,25.890294 14.735020,25.927021 14.735020,25.927021 C 15.060139,25.844505 16.103484,25.723920 16.121353,25.648474 C 16.137155,25.581712 15.136470,25.504094 14.836027,25.500392 L 5.6884064,25.387771 z "
     id="path577"
     sodipodi:nodetypes="ccsssc" />
</svg>
