<?xml version="1.0" encoding="UTF-8" standalone="no"?>
<!DOCTYPE svg PUBLIC "-//W3C//DTD SVG 20010904//EN"
"http://www.w3.org/TR/2001/REC-SVG-20010904/DTD/svg10.dtd">
<!-- Created with Sodipodi ("http://www.sodipodi.com/") -->
<svg
   version="1"
   x="0.00000000"
   y="0.00000000"
   width="24.000000pt"
   height="24.000000pt"
   id="svg548"
   sodipodi:version="0.32"
   sodipodi:docname="stock_open.svg"
   sodipodi:docbase="/home/zeus/.icons/gartoon/scalable/stock-gar"
   inkscape:version="0.40"
   xmlns="http://www.w3.org/2000/svg"
   xmlns:inkscape="http://www.inkscape.org/namespaces/inkscape"
   xmlns:sodipodi="http://sodipodi.sourceforge.net/DTD/sodipodi-0.dtd"
   xmlns:xlink="http://www.w3.org/1999/xlink"
   xmlns:rdf="http://www.w3.org/1999/02/22-rdf-syntax-ns#"
   xmlns:cc="http://web.resource.org/cc/"
   xmlns:dc="http://purl.org/dc/elements/1.1/">
  <metadata
     id="metadata18">
    <rdf:RDF
       id="RDF19">
      <cc:Work
         rdf:about=""
         id="Work20">
        <dc:format
           id="format21">image/svg+xml</dc:format>
        <dc:type
           id="type23"
           rdf:resource="http://purl.org/dc/dcmitype/StillImage" />
      </cc:Work>
    </rdf:RDF>
  </metadata>
  <sodipodi:namedview
     id="base"
     inkscape:zoom="4.2916667"
     inkscape:cx="36.000000"
     inkscape:cy="13.531060"
     inkscape:window-width="1014"
     inkscape:window-height="696"
     inkscape:window-x="0"
     inkscape:window-y="25"
     inkscape:current-layer="svg548" />
  <defs
     id="defs550">
    <linearGradient
       x1="0.00000000"
       y1="0.00000000"
       x2="1.00000000"
       y2="0.00000000"
       id="linearGradient632"
       gradientUnits="objectBoundingBox"
       spreadMethod="pad">
      <stop
         style="stop-color:#ffb700;stop-opacity:1;"
         offset="0.000000"
         id="stop633" />
      <stop
         style="stop-color:#ffd58f;stop-opacity:0;"
         offset="1.000000"
         id="stop634" />
    </linearGradient>
    <linearGradient
       x1="0.00000000"
       y1="0.00000000"
       x2="1.00000000"
       y2="0.00000000"
       id="linearGradient556"
       gradientUnits="objectBoundingBox"
       spreadMethod="pad">
      <stop
         style="stop-color:#000000;stop-opacity:1;"
         offset="0.000000"
         id="stop557" />
      <stop
         style="stop-color:#bdf2ff;stop-opacity:0.384314;"
         offset="1.000000"
         id="stop558" />
    </linearGradient>
    <linearGradient
       id="linearGradient559"
       xlink:href="#linearGradient632"
       x1="60.6446152"
       y1="19.2956886"
       x2="35.3705750"
       y2="69.1427994"
       gradientUnits="userSpaceOnUse"
       spreadMethod="pad"
       gradientTransform="matrix(0.553205,0.000000,0.000000,0.553205,-2.024333,-2.522912)" />
    <linearGradient
       xlink:href="#linearGradient632"
       id="linearGradient631"
       x1="85.6376572"
       y1="17.4438438"
       x2="73.9162979"
       y2="54.6281815"
       gradientUnits="userSpaceOnUse"
       spreadMethod="pad"
       gradientTransform="matrix(0.409740,0.000000,0.000000,0.746903,-2.024333,-2.522912)" />
  </defs>
  <path
     d="M 26.081295,2.4364943 C 26.318306,2.4090050 29.795610,1.3146161 29.728130,3.2571871 C 29.660656,5.1997460 26.933481,19.098220 25.485499,20.845580 C 24.810617,21.970219 23.223050,23.575836 20.623876,24.489399 C 18.512479,25.227879 4.8915522,28.782860 3.9643082,28.712763 C 3.0370747,28.642632 1.0644669,28.851727 0.91568940,26.756574 C 0.76686334,24.661414 1.1065238,11.924559 1.2315559,11.515231 C 1.5359975,9.5451457 3.5285096,8.4848550 4.4273520,8.1238891 C 6.0440668,7.6204559 21.376086,2.6862001 22.268062,2.3853262 C 23.159996,2.0844162 25.487701,1.4985088 26.081295,2.4364943 z "
     style="font-size:12.000000;fill:#593a28;fill-rule:evenodd;stroke-width:1.0000000pt"
     id="path554"
     sodipodi:nodetypes="cccccccccc" />
  <path
     d="M 24.602611,2.9411781 C 24.602611,2.9411781 25.483883,4.2431152 25.567456,4.1939518 C 26.780082,3.5802424 28.454237,3.7490751 28.086134,4.9170968 C 27.850662,6.2868991 25.848275,19.595873 22.748267,21.475659 C 19.642157,24.086616 4.1230615,27.332112 3.7188565,27.457988 C 3.3147019,27.583832 2.4779363,27.404526 2.4901975,25.942178 C 2.5024587,24.479823 2.4103738,13.415474 2.7163589,12.787682 C 2.8337413,11.767239 3.3552325,10.620914 4.8323647,9.9757321 C 6.3095004,9.3305576 24.142444,2.8761101 24.602611,2.9411781 z "
     style="font-size:12.000000;fill:#f1e36c;fill-rule:evenodd;stroke-width:1.0000000pt"
     id="path552"
     sodipodi:nodetypes="ccccccccc" />
  <path
     d="M 20.718098,6.3753787 C 20.718098,6.3753787 5.3415680,10.728441 4.6106788,11.662130 C 3.8797784,12.595857 3.8139415,25.275306 3.7794325,25.575425 C 3.7449180,25.875582 7.7360231,15.405199 9.3596470,14.841720 C 10.983266,14.278281 17.793025,12.537488 18.613649,10.823425 C 19.434268,9.1093581 19.672722,6.6546036 21.373065,6.1019733"
     style="font-size:12.000000;fill:url(#linearGradient631);fill-rule:evenodd;stroke-width:1.0000000pt"
     id="path562"
     sodipodi:nodetypes="cccccc" />
  <path
     d="M 4.2496239,26.203186 C 6.7674993,21.251937 7.4246465,17.895010 8.6288135,16.235217 C 9.7286078,14.804601 10.049185,14.727964 11.512463,14.202874 C 13.993555,13.638637 18.934978,12.112433 19.087575,11.462953 C 20.168256,11.554741 19.576094,7.4949890 22.223585,6.1612550 C 23.958437,5.3085059 28.424347,3.0728149 28.424347,3.0728149 L 25.615020,3.1026104 C 24.604962,3.7528093 20.152854,5.8684430 19.707236,6.3544458 C 18.822202,6.5953610 19.245576,9.4111756 18.375096,10.203161 C 17.512267,11.606223 10.375128,13.248949 9.7968290,13.533197 C 9.2185803,13.817450 8.0067619,14.866167 7.4921699,15.952485 C 5.1706664,20.799382 4.6024360,24.156896 4.2496239,26.203186 z "
     style="font-size:12.000000;fill:#593a28;fill-rule:evenodd;stroke-width:1.0000000pt"
     id="path553"
     sodipodi:nodetypes="cccccccccccc" />
  <path
     style="font-size:12.000000;fill:url(#linearGradient559);fill-rule:evenodd;stroke-width:1.0000000pt"
     d="M 27.887533,5.4797005 C 26.970230,5.6207905 23.439723,7.2421401 22.285229,8.3979361 C 21.695241,9.6948867 22.011070,12.390042 19.666128,13.611364 C 17.321191,14.832648 11.891607,15.200154 10.976191,16.451051 C 10.060769,17.701985 6.2152064,25.189935 5.9104070,25.923269 C 5.6056462,26.656648 22.847755,22.345508 23.614597,20.469699 C 24.663674,18.593858 26.271532,14.741109 27.887533,5.4797005 z "
     id="path635"
     sodipodi:nodetypes="ccccccc" />
</svg>
