<?xml version="1.0" encoding="UTF-8" standalone="no"?>
<!DOCTYPE svg PUBLIC "-//W3C//DTD SVG 20010904//EN"
"http://www.w3.org/TR/2001/REC-SVG-20010904/DTD/svg10.dtd">
<!-- Created with Sodipodi ("http://www.sodipodi.com/") -->
<svg
   version="1.0"
   x="0"
   y="0"
   width="24.000000pt"
   height="24.000000pt"
   id="svg548"
   sodipodi:version="0.32"
   inkscape:version="0.40"
   sodipodi:docname="gtk-jump-to-rtl.svg"
   sodipodi:docbase="/home/zeus/.icons/gartoon/scalable/stock"
   xmlns="http://www.w3.org/2000/svg"
   xmlns:cc="http://web.resource.org/cc/"
   xmlns:inkscape="http://www.inkscape.org/namespaces/inkscape"
   xmlns:sodipodi="http://sodipodi.sourceforge.net/DTD/sodipodi-0.dtd"
   xmlns:rdf="http://www.w3.org/1999/02/22-rdf-syntax-ns#"
   xmlns:dc="http://purl.org/dc/elements/1.1/"
   xmlns:xlink="http://www.w3.org/1999/xlink">
  <metadata
     id="metadata18">
    <rdf:RDF
       id="RDF19">
      <cc:Work
         rdf:about=""
         id="Work20">
        <dc:format
           id="format21">image/svg+xml</dc:format>
        <dc:type
           id="type23"
           rdf:resource="http://purl.org/dc/dcmitype/StillImage" />
      </cc:Work>
    </rdf:RDF>
  </metadata>
  <sodipodi:namedview
     id="base"
     pagecolor="#ffffff"
     bordercolor="#666666"
     borderopacity="1.0"
     inkscape:pageopacity="0.0"
     inkscape:pageshadow="2"
     inkscape:zoom="6.9634732"
     inkscape:cx="22.964847"
     inkscape:cy="8.4207760"
     inkscape:window-width="1014"
     inkscape:window-height="693"
     inkscape:window-x="0"
     inkscape:window-y="25"
     inkscape:current-layer="svg548" />
  <defs
     id="defs550">
    <linearGradient
       x1="0.00000000"
       y1="0.00000000"
       x2="1.00000000"
       y2="0.00000000"
       id="linearGradient556"
       gradientUnits="objectBoundingBox"
       spreadMethod="pad">
      <stop
         style="stop-color:#ffff00;stop-opacity:1;"
         offset="0"
         id="stop557" />
      <stop
         style="stop-color:#ffd300;stop-opacity:1;"
         offset="1"
         id="stop558" />
    </linearGradient>
    <linearGradient
       x1="0.00000000"
       y1="0.00000000"
       x2="1.00000000"
       y2="0.00000000"
       id="linearGradient559"
       xlink:href="#linearGradient556"
       gradientUnits="objectBoundingBox"
       spreadMethod="pad" />
    <radialGradient
       cx="46.67118073"
       cy="26.60194206"
       r="6.84199047"
       fx="47.14081192"
       fy="26.36529160"
       id="radialGradient586"
       xlink:href="#linearGradient556"
       gradientUnits="userSpaceOnUse"
       spreadMethod="reflect" />
  </defs>
  <ellipse
     cx="46.084141"
     cy="26.601942"
     rx="15.145631"
     ry="15.145631"
     transform="matrix(-0.503990,0.000000,0.000000,0.503990,32.15714,2.561702)"
     style="font-size:12.000000;fill:#ffd056;fill-opacity:1.0000000;fill-rule:evenodd;stroke:#7e0000;stroke-width:3.1250000;stroke-opacity:1.0000000"
     id="path585"
     sodipodi:cx="46.084141"
     sodipodi:cy="26.601942"
     sodipodi:rx="15.145631"
     sodipodi:ry="15.145631" />
  <g
     transform="matrix(0.352739,0.484202,-0.484202,0.352739,26.78482,0.659279)"
     style="font-size:12.000000"
     id="g572">
    <g
       transform="matrix(1.008714,0.000000,0.000000,1.008714,-45.46822,-0.252175)"
       id="g584">
      <path
         d="M 51.966500,36.048600 C 53.960200,37.045400 65.472400,34.771300 65.757200,32.635300 C 66.873800,29.083900 63.844700,27.777700 64.064000,26.235800 C 64.491200,24.811700 69.389700,19.309400 68.835800,17.580500 C 67.242300,14.436200 62.970200,10.566800 59.959400,12.438100 C 57.364500,14.781300 55.630700,20.715100 54.064200,20.145500 C 52.497700,19.575900 51.112100,20.063400 50.684900,21.060200 C 50.257700,22.057000 49.688100,35.336500 51.966500,36.048600 z "
         transform="matrix(1.369638,0.000000,0.000000,1.207417,-21.85404,-4.997635)"
         style="fill:#0d3c07;fill-rule:evenodd;stroke-width:1.0000000pt"
         id="path582" />
      <path
         d="M 51.550600,35.458900 C 53.544300,36.455700 64.224700,34.889200 64.509500,32.753200 C 64.794300,30.617100 61.661400,29.193000 62.088600,27.769000 C 62.515800,26.344900 69.493700,17.658200 68.212000,16.519000 C 66.930400,15.379700 62.658200,11.392400 61.519000,12.674000 C 60.379700,13.955700 55.110800,23.781600 53.544300,23.212000 C 51.977800,22.642400 50.696200,21.360800 50.269000,22.357600 C 49.841800,23.354400 49.272200,34.746800 51.550600,35.458900 z "
         style="fill:#2aaf18;fill-rule:evenodd;stroke-width:1.0000000pt"
         id="path581" />
      <path
         d="M 67.642400,15.949400 C 67.642400,15.949400 69.066500,16.803800 68.069600,18.512700 C 67.072800,20.221500 61.519000,27.769000 61.946200,28.338600 C 63.512600,29.620200 65.363900,32.753100 64.367100,33.607600 C 62.658300,35.174000 52.832300,36.313300 51.693000,35.743700 C 50.553800,35.174000 60.094900,33.465200 60.237300,31.044300 C 60.379700,28.623400 57.816500,27.626600 58.670900,26.202500 C 59.525300,24.778500 65.363900,14.952500 66.218400,15.237300 C 67.072800,15.522100 67.784800,16.519000 67.642400,15.949400 z "
         style="fill:#208c11;fill-rule:evenodd;stroke-width:1.0000000pt"
         id="path583" />
    </g>
    <path
       d="M 16.946200,4.6519000 C 16.946200,4.6519000 9.2563300,14.193000 9.5411400,15.047500 C 9.8259500,15.901900 17.373400,8.4968300 16.946200,4.6519000 z "
       transform="matrix(1.008714,0.000000,0.000000,1.008714,0.929487,8.797523)"
       style="fill:#ffffff;fill-rule:evenodd;stroke-width:1.0000000pt"
       id="path588" />
    <path
       d="M 5.4113900,24.019000 C 5.4113900,24.019000 4.4145600,17.468400 4.8417700,16.329100 C 5.2689900,15.189900 6.6930400,17.041100 6.6930400,17.041100 C 6.6930400,17.041100 4.9841800,23.164600 5.4113900,24.019000 z "
       transform="matrix(1.008714,0.000000,0.000000,1.008714,0.929487,8.797523)"
       style="fill:#ffffff;fill-rule:evenodd;stroke-width:1.0000000pt"
       id="path589" />
  </g>
  <path
     d="M 10.866832,9.4510254 C 5.8245302,9.5711183 1.5929302,10.896511 3.0464832,17.827830 C 3.0606552,17.895091 3.5782602,14.241690 5.7074242,12.276972 C 7.7264322,10.444233 10.930942,9.4491829 10.866832,9.4510254 z "
     style="font-size:12.000000;fill:#ffffff;fill-rule:evenodd;stroke-width:1.0000000pt"
     id="path590"
     sodipodi:nodetypes="cssc" />
</svg>
