<?xml version="1.0" encoding="UTF-8" standalone="no"?>
<!DOCTYPE svg PUBLIC "-//W3C//DTD SVG 20010904//EN"
"http://www.w3.org/TR/2001/REC-SVG-20010904/DTD/svg10.dtd">
<!-- Created with Sodipodi ("http://www.sodipodi.com/") -->
<svg
   id="svg601"
   sodipodi:version="0.32"
   width="24.000000pt"
   height="24.000000pt"
   sodipodi:docbase="/home/zeus/.icons/gartoon/scalable/stock-gar"
   sodipodi:docname="stock_about.svg"
   inkscape:version="0.40"
   xmlns="http://www.w3.org/2000/svg"
   xmlns:inkscape="http://www.inkscape.org/namespaces/inkscape"
   xmlns:sodipodi="http://sodipodi.sourceforge.net/DTD/sodipodi-0.dtd"
   xmlns:xlink="http://www.w3.org/1999/xlink"
   xmlns:rdf="http://www.w3.org/1999/02/22-rdf-syntax-ns#"
   xmlns:cc="http://web.resource.org/cc/"
   xmlns:dc="http://purl.org/dc/elements/1.1/">
  <metadata
     id="metadata18">
    <rdf:RDF
       id="RDF19">
      <cc:Work
         rdf:about=""
         id="Work20">
        <dc:format
           id="format21">image/svg+xml</dc:format>
        <dc:type
           id="type23"
           rdf:resource="http://purl.org/dc/dcmitype/StillImage" />
      </cc:Work>
    </rdf:RDF>
  </metadata>
  <defs
     id="defs603" />
  <sodipodi:namedview
     id="base"
     inkscape:zoom="5.0416667"
     inkscape:cx="25.614827"
     inkscape:cy="-7.0250365"
     inkscape:window-width="1014"
     inkscape:window-height="695"
     inkscape:window-x="0"
     inkscape:window-y="25"
     inkscape:current-layer="svg601" />
  <path
     style="font-size:12.000000;fill:#000000;fill-opacity:0.29999998;fill-rule:evenodd;stroke-width:1.0000000pt"
     d="M 24.760361,28.334434 L 16.314332,23.934552 L 7.9571538,28.509267 L 9.4675967,18.988308 L 2.6039075,12.328053 L 11.983445,10.843646 L 16.098615,2.1526371 L 20.385058,10.756215 L 29.792049,12.045121 L 23.061686,18.846843 L 24.760361,28.334434 z "
     id="path643" />
  <path
     style="font-size:12.000000;fill:#532c25;fill-opacity:1.0000000;fill-rule:evenodd;stroke-width:1.0000000pt"
     d="M 24.030167,26.309409 L 15.836667,22.090461 L 7.7293614,26.477053 L 9.1946437,17.347618 L 2.5361730,10.961248 L 11.635270,9.5378852 L 15.627400,1.2042705 L 19.785682,9.4540485 L 28.911412,10.689952 L 22.382281,17.211970 L 24.030167,26.309409 z "
     id="path635" />
  <polygon
     sodipodi:type="star"
     style="font-size:12.000000;fill:#f1e36c;fill-opacity:1.0000000;fill-rule:evenodd;stroke-width:1.0000000pt"
     id="polygon609"
     sodipodi:sides="5"
     sodipodi:cx="17.385765"
     sodipodi:cy="20.456940"
     sodipodi:r1="39.259846"
     sodipodi:r2="19.629923"
     sodipodi:arg1="0.91022110"
     sodipodi:arg2="1.5385396"
     points="41.4745,51.4581 18.0189,40.0767 -4.65423,52.9465 -1.07805,27.1219 -20.3244,9.53549 5.34141,4.95638 16.1196,-18.7825 28.4058,4.21214 54.3134,7.12709 36.2409,25.9177 41.4745,51.4581 "
     transform="matrix(0.287823,6.363349e-3,-6.389732e-3,0.289017,10.95335,8.968806)"
     inkscape:flatsided="false"
     inkscape:rounded="0.0000000"
     inkscape:randomized="0.0000000"
     d="M 41.474475,51.458061 L 18.018852,40.076651 L -4.6542332,52.946537 L -1.0780545,27.121866 L -20.324413,9.5354936 L 5.3414098,4.9563792 L 16.119592,-18.782483 L 28.405764,4.2121405 L 54.313405,7.1270889 L 36.240854,25.917662 L 41.474475,51.458061 z " />
  <path
     style="fill:#e07d25;fill-opacity:1.0000000;fill-rule:evenodd;stroke:none;stroke-width:1.0000000pt;stroke-linecap:butt;stroke-linejoin:miter;stroke-opacity:1.0000000"
     d="M 22.598024,24.261853 C 22.530273,23.855412 15.823984,14.913693 15.823984,14.913693 L 15.891702,20.739380 L 22.598024,24.261853 z "
     id="path629"
     sodipodi:nodetypes="cccc" />
  <path
     style="fill:#e07d25;fill-opacity:1.0000000;fill-rule:evenodd;stroke:none;stroke-width:1.0000000pt;stroke-linecap:butt;stroke-linejoin:miter;stroke-opacity:1.0000000"
     d="M 9.1854127,24.397356 L 15.891702,15.049162 L 15.891735,20.671661 L 9.1854127,24.397356 z "
     id="path630"
     sodipodi:nodetypes="cccc" />
  <path
     style="fill:#e07d25;fill-opacity:1.0000000;fill-rule:evenodd;stroke:none;stroke-width:1.0000000pt;stroke-linecap:butt;stroke-linejoin:miter;stroke-opacity:1.0000000"
     d="M 16.162674,15.116913 L 4.9177742,11.594407 L 10.540241,16.878183 L 16.162674,15.116913 z "
     id="path631"
     sodipodi:nodetypes="cccc" />
  <path
     style="fill:#e07d25;fill-opacity:1.0000000;fill-rule:evenodd;stroke:none;stroke-width:1.0000000pt;stroke-linecap:butt;stroke-linejoin:miter;stroke-opacity:1.0000000"
     d="M 15.823984,14.981444 L 26.526940,11.391186 L 21.378699,16.674962 L 15.823984,14.981444 z "
     id="path632"
     sodipodi:nodetypes="cccc" />
  <path
     style="fill:#e07d25;fill-opacity:1.0000000;fill-rule:evenodd;stroke:none;stroke-width:1.0000000pt;stroke-linecap:butt;stroke-linejoin:miter;stroke-opacity:1.0000000"
     d="M 15.688514,3.6687831 C 15.688514,3.8042659 15.688514,15.184632 15.823984,15.116913 L 19.075518,10.442833 L 15.688514,3.6687831 z "
     id="path633"
     sodipodi:nodetypes="cccc" />
  <path
     style="fill:#fff7dc;fill-opacity:1.0000000;fill-rule:evenodd;stroke:none;stroke-width:1.0000000pt;stroke-linecap:butt;stroke-linejoin:miter;stroke-opacity:1.0000000"
     d="M 15.688482,3.8042659 L 15.756233,14.981444 L 14.265935,13.152456 L 15.688482,3.8042659 z "
     id="path636" />
  <path
     style="fill:#fff7dc;fill-opacity:1.0000000;fill-rule:evenodd;stroke:none;stroke-width:1.0000000pt;stroke-linecap:butt;stroke-linejoin:miter;stroke-opacity:1.0000000"
     d="M 15.620763,14.778223 L 4.9177742,11.729909 L 14.198217,13.355677 L 15.620763,14.778223 z "
     id="path637" />
  <path
     style="fill:#fff7dc;fill-opacity:1.0000000;fill-rule:evenodd;stroke:none;stroke-width:1.0000000pt;stroke-linecap:butt;stroke-linejoin:miter;stroke-opacity:1.0000000"
     d="M 15.756233,15.320134 L 9.3886337,24.261886 L 13.859526,15.862078 L 15.756233,15.320134 z "
     id="path638"
     sodipodi:nodetypes="cccc" />
  <path
     style="fill:#fff7dc;fill-opacity:1.0000000;fill-rule:evenodd;stroke:none;stroke-width:1.0000000pt;stroke-linecap:butt;stroke-linejoin:miter;stroke-opacity:1.0000000"
     d="M 25.016294,11.766991 L 16.241191,14.886293 C 16.241191,14.886293 16.783878,13.501617 16.850824,13.491412 C 16.917801,13.481201 25.093445,11.823731 25.016294,11.766991 z "
     id="path639" />
  <path
     style="fill:#fff7dc;fill-opacity:1.0000000;fill-rule:evenodd;stroke:none;stroke-width:1.0000000pt;stroke-linecap:butt;stroke-linejoin:miter;stroke-opacity:1.0000000"
     d="M 16.094923,15.184665 L 22.462554,23.923163 L 21.581920,18.910392 L 21.446417,21.213540 L 16.094923,15.184665 z "
     id="path640" />
  <path
     style="fill:#a15a1a;fill-opacity:1.0000000;fill-rule:evenodd;stroke:none;stroke-width:1.0000000pt;stroke-linecap:butt;stroke-linejoin:miter;stroke-opacity:1.0000000"
     d="M 9.5241037,24.126384 C 9.5241037,24.329604 13.046610,20.671629 15.282040,18.503950 L 15.823984,15.252383 L 9.5241037,24.126384 z "
     id="path641"
     sodipodi:nodetypes="cccc" />
</svg>
