<?xml version="1.0" encoding="UTF-8" standalone="no"?>
<!DOCTYPE svg PUBLIC "-//W3C//DTD SVG 20010904//EN"
"http://www.w3.org/TR/2001/REC-SVG-20010904/DTD/svg10.dtd">
<!-- Created with Sodipodi ("http://www.sodipodi.com/") -->
<svg
   id="svg604"
   sodipodi:version="0.32"
   width="24.000000pt"
   height="24.000000pt"
   sodipodi:docbase="/home/zeus/.icons/gartoon/scalable/stock-gar"
   sodipodi:docname="stock-edit.svg"
   xmlns="http://www.w3.org/2000/svg"
   xmlns:sodipodi="http://sodipodi.sourceforge.net/DTD/sodipodi-0.dtd"
   xmlns:xlink="http://www.w3.org/1999/xlink"
   xmlns:inkscape="http://www.inkscape.org/namespaces/inkscape"
   inkscape:version="0.40"
   xmlns:rdf="http://www.w3.org/1999/02/22-rdf-syntax-ns#"
   xmlns:cc="http://web.resource.org/cc/"
   xmlns:dc="http://purl.org/dc/elements/1.1/">
  <metadata
     id="metadata44">
    <rdf:RDF
       id="RDF45">
      <cc:Work
         rdf:about=""
         id="Work46">
        <dc:format
           id="format47">image/svg+xml</dc:format>
        <dc:type
           id="type49"
           rdf:resource="http://purl.org/dc/dcmitype/StillImage" />
      </cc:Work>
    </rdf:RDF>
  </metadata>
  <defs
     id="defs606">
    <linearGradient
       id="linearGradient612">
      <stop
         style="stop-color:#7fa8e3;stop-opacity:0.741176;"
         offset="0.000000"
         id="stop613" />
      <stop
         style="stop-color:#ffffff;stop-opacity:0;"
         offset="1.000000"
         id="stop614" />
    </linearGradient>
    <linearGradient
       xlink:href="#linearGradient612"
       id="linearGradient615"
       x1="50.6438866"
       y1="5.36792946"
       x2="35.7520943"
       y2="68.0443573"
       gradientUnits="userSpaceOnUse"
       spreadMethod="pad"
       gradientTransform="matrix(0.299825,0.000000,0.000000,0.299825,0.624089,0.724954)" />
    <linearGradient
       inkscape:collect="always"
       xlink:href="#linearGradient619"
       id="linearGradient1100"
       gradientUnits="userSpaceOnUse"
       gradientTransform="scale(1.004516,0.995504)"
       spreadMethod="pad"
       x1="66.3316956"
       y1="23.2124691"
       x2="63.4654961"
       y2="20.9627991" />
    <linearGradient
       inkscape:collect="always"
       xlink:href="#linearGradient626"
       id="linearGradient1101"
       gradientUnits="userSpaceOnUse"
       gradientTransform="scale(0.912664,1.095694)"
       spreadMethod="pad"
       x1="56.3276138"
       y1="43.3772469"
       x2="51.6545258"
       y2="39.7629089" />
  </defs>
  <sodipodi:namedview
     id="base"
     inkscape:zoom="5.0416667"
     inkscape:cx="36.000000"
     inkscape:cy="-2.0148260"
     inkscape:window-width="845"
     inkscape:window-height="753"
     inkscape:window-x="5"
     inkscape:window-y="48"
     inkscape:current-layer="svg604" />
  <path
     style="fill:#000000;fill-opacity:0.30147097;fill-rule:evenodd;stroke:none;stroke-width:1.0000000pt;stroke-linecap:butt;stroke-linejoin:miter;stroke-opacity:1.0000000"
     d="M 3.6211895,25.756373 C 2.7629917,25.366271 1.5927436,24.118006 2.2168832,22.401610 C 2.5289336,20.529230 8.1461903,3.9895316 9.3944908,3.2093615 C 10.174626,2.5072119 11.305920,2.2341435 12.905274,2.6632424 C 14.231567,2.9753140 26.168201,6.0960298 26.870344,6.7201447 C 27.572522,7.3442949 28.118644,7.8514037 27.572522,9.2167103 C 27.182454,9.9188528 22.540377,25.678346 22.462385,26.692599 C 22.150309,27.784844 21.253133,29.111137 19.770785,29.033109 C 18.288473,28.955082 4.7134347,25.990421 3.6211895,25.756373 z "
     id="path794"
     sodipodi:nodetypes="ccccccccc" />
  <path
     style="fill:#3d4e67;fill-opacity:1.0000000;fill-rule:evenodd;stroke:none;stroke-width:1.0000000pt;stroke-linecap:butt;stroke-linejoin:miter;stroke-opacity:1.0000000"
     d="M 2.7163943,24.308699 C 1.8581965,23.918597 0.68794841,22.670332 1.3120880,20.953936 C 1.6241384,19.081556 7.2413951,2.5418575 8.4896956,1.7616874 C 9.2698304,1.0595378 10.401125,0.78646943 12.000479,1.2155683 C 13.326772,1.5276399 25.263406,4.6483557 25.965549,5.2724706 C 26.667727,5.8966208 27.213849,6.4037296 26.667727,7.7690362 C 26.277659,8.4711787 21.635582,24.230672 21.557589,25.244925 C 21.245514,26.337170 20.348338,27.663463 18.865990,27.585435 C 17.383677,27.507408 3.8086395,24.542747 2.7163943,24.308699 z "
     id="path609"
     sodipodi:nodetypes="ccccccccc" />
  <path
     style="fill:#ffffff;fill-opacity:1.0000000;fill-rule:evenodd;stroke:none;stroke-width:1.0000000pt;stroke-linecap:butt;stroke-linejoin:miter;stroke-opacity:1.0000000"
     d="M 4.5108173,22.982407 C 3.6136411,22.748359 2.3262916,22.514276 2.7944219,21.109991 C 3.6526196,17.677236 8.0216006,4.4923005 9.8939806,2.8539326 C 10.323097,2.4638299 11.766396,2.3078100 14.497009,3.1660077 C 17.617725,4.1021978 23.937114,6.2086606 24.561264,6.5207358 C 25.185379,6.8328109 25.419461,6.8328109 24.951331,8.2371312 C 24.249189,9.6414516 21.128508,21.656114 20.348303,23.684549 C 19.802215,25.127883 19.685174,25.791012 18.748949,25.791012"
     id="path608"
     sodipodi:nodetypes="cccccccs" />
  <path
     style="fill:url(#linearGradient615);fill-opacity:1.0000000;fill-rule:evenodd;stroke:none;stroke-width:1.0000000pt;stroke-linecap:butt;stroke-linejoin:miter;stroke-opacity:1.0000000"
     d="M 9.2440612,4.8475497 C 9.2440612,4.8475497 10.181015,2.9736278 12.523398,3.5357999 C 14.865782,4.0979869 24.047926,6.5340659 23.954230,7.2836286 C 23.860535,8.0331914 22.174019,12.436873 22.080323,12.811654 C 21.986628,13.186435 13.366656,12.999045 10.087319,14.966647 C 6.8079822,16.934249 4.3719033,18.620765 4.3719033,18.620765 C 4.3719033,18.620765 7.7449357,8.1268867 9.2440612,4.8475497 z "
     id="path636" />
  <path
     style="fill:none;fill-opacity:1.0000000;fill-rule:evenodd;stroke:#42667e;stroke-width:0.31667874pt;stroke-linecap:butt;stroke-linejoin:miter;stroke-opacity:1.0000000"
     d="M 10.396514,5.8999029 L 23.253481,9.3164232"
     id="path671" />
  <path
     style="fill:none;fill-opacity:1.0000000;fill-rule:evenodd;stroke:#42667e;stroke-width:0.31667879pt;stroke-linecap:butt;stroke-linejoin:miter;stroke-opacity:1.0000000"
     d="M 9.4669334,8.1659593 L 22.205055,11.635712"
     id="path672" />
  <path
     style="fill:none;fill-opacity:1.0000000;fill-rule:evenodd;stroke:#42667e;stroke-width:0.31667874pt;stroke-linecap:butt;stroke-linejoin:miter;stroke-opacity:1.0000000"
     d="M 8.3286120,11.024704 L 21.185579,14.441224"
     id="path673" />
  <path
     style="fill:none;fill-opacity:1.0000000;fill-rule:evenodd;stroke:#42667e;stroke-width:0.31667874pt;stroke-linecap:butt;stroke-linejoin:miter;stroke-opacity:1.0000000"
     d="M 6.4405267,16.419231 L 19.297494,19.835751"
     id="path675" />
  <path
     style="fill:none;fill-opacity:1.0000000;fill-rule:evenodd;stroke:#42667e;stroke-width:0.31667879pt;stroke-linecap:butt;stroke-linejoin:miter;stroke-opacity:1.0000000"
     d="M 5.5109480,18.685288 L 18.249069,22.155042"
     id="path676" />
  <path
     style="fill:none;fill-opacity:1.0000000;fill-rule:evenodd;stroke:#42667e;stroke-width:0.31667879pt;stroke-linecap:butt;stroke-linejoin:miter;stroke-opacity:1.0000000"
     d="M 7.3990317,13.290761 L 20.137153,16.760514"
     id="path674" />
  <path
     style="font-size:12.000000;fill:none;fill-rule:evenodd;stroke:#4f4f4f;stroke-width:0.88679928;stroke-linecap:round;stroke-opacity:1.0000000"
     d="M 15.523641,5.5402480 C 14.487788,5.5402480 13.988248,4.7332239 13.988248,3.5173073 C 13.988248,2.3013813 14.828966,1.3145407 15.864819,1.3145407 C 16.900672,1.3145407 17.229563,1.6720203 17.229563,2.8879432"
     id="path667"
     sodipodi:nodetypes="cccc" />
  <path
     style="font-size:12.000000;fill:none;fill-rule:evenodd;stroke:#c2c2c2;stroke-width:0.19278246;stroke-linecap:round;stroke-opacity:1.0000000"
     d="M 15.523641,5.4503429 C 14.487788,5.4503429 13.902954,4.7332239 13.902954,3.5173073 C 13.902954,2.3013813 14.743672,1.0448146 15.779525,1.0448146 C 16.815378,1.0448146 17.229563,1.6720203 17.229563,2.8879432"
     id="path668"
     sodipodi:nodetypes="cccc" />
  <path
     style="font-size:12.000000;fill:none;fill-rule:evenodd;stroke:#4f4f4f;stroke-width:0.88679928;stroke-linecap:round;stroke-opacity:1.0000000"
     d="M 18.940175,6.1696093 C 17.904322,6.1696093 17.404782,5.3625852 17.404782,4.1466687 C 17.404782,2.9307426 18.245500,1.9439020 19.281353,1.9439020 C 20.317206,1.9439020 20.646096,2.3013816 20.646096,3.5173045"
     id="path669"
     sodipodi:nodetypes="cccc" />
  <path
     style="font-size:12.000000;fill:none;fill-rule:evenodd;stroke:#c2c2c2;stroke-width:0.19278246;stroke-linecap:round;stroke-opacity:1.0000000"
     d="M 18.940175,6.0797042 C 17.904322,6.0797042 17.319488,5.3625852 17.319488,4.1466687 C 17.319488,2.9307426 18.160205,1.6741759 19.196058,1.6741759 C 20.231911,1.6741759 20.646096,2.3013816 20.646096,3.5173045"
     id="path670"
     sodipodi:nodetypes="cccc" />
  <g
     id="g677"
     transform="matrix(0.221172,0.000000,0.000000,0.221172,10.72119,0.807826)">
    <defs
       id="defs611">
      <linearGradient
         id="linearGradient626">
        <stop
           style="stop-color:#b5772d;stop-opacity:1;"
           offset="0.000000"
           id="stop627" />
        <stop
           style="stop-color:#ffffff;stop-opacity:0;"
           offset="1.000000"
           id="stop628" />
      </linearGradient>
      <linearGradient
         id="linearGradient619">
        <stop
           style="stop-color:#770000;stop-opacity:1;"
           offset="0.000000"
           id="stop620" />
        <stop
           style="stop-color:#ffffff;stop-opacity:0;"
           offset="1.000000"
           id="stop621" />
      </linearGradient>
      <linearGradient
         xlink:href="#linearGradient619"
         id="linearGradient622"
         x1="66.331696"
         y1="23.212469"
         x2="63.465496"
         y2="20.962799"
         gradientUnits="userSpaceOnUse"
         spreadMethod="pad"
         gradientTransform="scale(1.004516,0.995504)" />
      <linearGradient
         xlink:href="#linearGradient626"
         id="linearGradient625"
         x1="56.327614"
         y1="43.377247"
         x2="51.654526"
         y2="39.762909"
         gradientUnits="userSpaceOnUse"
         spreadMethod="pad"
         gradientTransform="scale(0.912664,1.095694)" />
    </defs>
    <sodipodi:namedview
       id="namedview687" />
    <path
       style="fill:#000000;fill-opacity:0.28318599;fill-rule:evenodd;stroke:none;stroke-width:1.0000000pt;stroke-linecap:butt;stroke-linejoin:miter;stroke-opacity:1.0000000"
       d="M 9.3368500,82.115600 C 17.912900,79.764100 30.911200,77.563700 40.109700,71.892400 C 56.985100,62.071400 66.011800,41.633200 76.455100,25.587700 C 77.285000,12.308600 64.112800,5.9687200 59.133100,8.8734500 C 46.476600,25.472200 37.554800,43.523500 23.445800,55.972500 C 19.088600,66.554200 9.1293400,82.738000 9.3368500,82.115600 z "
       id="path632"
       sodipodi:nodetypes="cccccc"
       transform="translate(3.814559,2.934275)" />
    <path
       style="fill:#000000;fill-opacity:1.0000000;fill-rule:evenodd;stroke:none;stroke-width:1.0000000pt;stroke-linecap:butt;stroke-linejoin:miter;stroke-opacity:1.0000000"
       d="M 9.3368500,82.115600 C 17.912900,79.764100 28.563800,74.922800 37.762300,69.251600 C 54.637700,59.430600 64.251200,38.405500 74.694500,22.360000 C 75.524400,9.0809200 64.112800,5.9687200 59.133100,8.8734500 C 46.476600,25.472200 37.554800,43.523500 23.445800,55.972500 C 19.088600,66.554200 9.1293400,82.738000 9.3368500,82.115600 z "
       id="path617"
       sodipodi:nodetypes="cccccc" />
    <path
       style="fill:#be6d6d;fill-opacity:1.0000000;fill-rule:evenodd;stroke:none;stroke-width:1.0000000pt;stroke-linecap:butt;stroke-linejoin:miter;stroke-opacity:1.0000000"
       d="M 71.997200,20.907600 C 70.268200,23.397400 68.539100,25.887200 66.810100,28.377000 C 64.527800,22.982400 61.830500,20.285100 54.983500,19.662700 C 57.196700,16.965400 59.409800,14.268100 61.623000,11.570800 C 67.155900,10.948300 71.443900,15.720500 71.997200,20.907600 z "
       id="path613"
       sodipodi:nodetypes="ccccc" />
    <path
       style="fill:#ffbc24;fill-opacity:1.0000000;fill-rule:evenodd;stroke:none;stroke-width:1.0000000pt;stroke-linecap:butt;stroke-linejoin:miter;stroke-opacity:1.0000000"
       d="M 54.776000,20.907600 C 60.170600,20.561800 63.905300,24.573200 65.980100,29.207000 C 57.542400,42.831800 50.557100,56.249200 36.309800,66.969200 C 36.309800,66.969200 32.782600,56.802400 27.595500,58.047400 C 34.027500,50.785400 48.966400,30.037000 54.776000,20.907600 z "
       id="path614"
       sodipodi:nodetypes="ccccc" />
    <path
       style="fill:#e9dbb9;fill-opacity:1.0000000;fill-rule:evenodd;stroke:none;stroke-width:1.0000000pt;stroke-linecap:butt;stroke-linejoin:miter;stroke-opacity:1.0000000"
       d="M 27.076700,58.669800 C 31.745100,58.427700 35.687300,63.995300 34.649900,67.384200 C 32.644200,68.905700 29.393700,70.427300 27.388000,71.948800 C 27.042200,69.182400 25.244000,67.038400 21.370900,67.384200 C 23.099900,64.410200 25.347700,61.643800 27.076700,58.669800 z "
       id="path615"
       sodipodi:nodetypes="ccccc" />
    <path
       style="fill:#586f93;fill-opacity:1.0000000;fill-rule:evenodd;stroke:none;stroke-width:1.0000000pt;stroke-linecap:butt;stroke-linejoin:miter;stroke-opacity:1.0000000"
       d="M 21.785900,66.969200 C 25.347700,66.139300 26.834700,69.666500 27.595500,71.741400 L 14.316400,77.758400 L 21.785900,66.969200 z "
       id="path616"
       sodipodi:nodetypes="cccc" />
    <path
       style="fill:url(#linearGradient1100);fill-opacity:1.0000000;fill-rule:evenodd;stroke:none;stroke-width:1.0000000pt;stroke-linecap:butt;stroke-linejoin:miter;stroke-opacity:1.0000000"
       d="M 71.997200,20.907600 C 70.268200,23.397400 68.539100,25.887200 66.810100,28.377000 C 64.527800,22.982400 61.830500,20.285100 54.983500,19.662700 C 57.196700,16.965400 59.409800,14.268100 61.623000,11.570800 C 67.155900,10.948300 71.443900,15.720500 71.997200,20.907600 z "
       id="path618"
       sodipodi:nodetypes="ccccc" />
    <path
       style="fill:#ffffff;fill-opacity:1.0000000;fill-rule:evenodd;stroke:none;stroke-width:1.0000000pt;stroke-linecap:butt;stroke-linejoin:miter;stroke-opacity:1.0000000"
       d="M 62.867900,12.193200 L 57.473300,19.040200 L 60.378100,20.077600 L 65.772700,13.645600 L 62.867900,12.193200 z "
       id="path623"
       sodipodi:nodetypes="ccccc" />
    <path
       style="fill:url(#linearGradient1101);fill-opacity:1.0000000;fill-rule:evenodd;stroke:none;stroke-width:1.0000000pt;stroke-linecap:butt;stroke-linejoin:miter;stroke-opacity:1.0000000"
       d="M 54.776000,20.907600 C 60.170600,20.561800 63.905300,24.573200 65.980100,29.207000 C 57.542400,42.831800 50.557100,56.249200 36.309800,66.969200 C 36.309800,66.969200 32.782600,56.802400 27.595500,58.047400 C 34.027500,50.785400 48.966400,30.037000 54.776000,20.907600 z "
       id="path624"
       sodipodi:nodetypes="ccccc" />
    <path
       style="fill:#ffffff;fill-opacity:1.0000000;fill-rule:evenodd;stroke:none;stroke-width:1.0000000pt;stroke-linecap:butt;stroke-linejoin:miter;stroke-opacity:1.0000000"
       d="M 29.670300,56.180000 C 30.915200,56.940800 32.160100,57.701500 33.405000,58.462300 C 42.534400,47.603900 46.684100,36.538100 58.925700,24.642300 C 57.749900,23.881500 56.574200,23.120800 55.398400,22.360000 C 48.067300,35.085700 39.698700,47.396500 29.670300,56.180000 z "
       id="path630"
       sodipodi:nodetypes="ccccc" />
    <path
       style="fill:#9c7850;fill-opacity:1.0000000;fill-rule:evenodd;stroke:none;stroke-width:1.0000000pt;stroke-linecap:butt;stroke-linejoin:miter;stroke-opacity:1.0000000"
       d="M 34.753800,67.280500 C 34.961200,65.101900 34.442500,63.545700 33.301300,61.782100 C 31.779800,65.171000 29.428300,67.626200 26.143100,68.421600 C 25.416900,69.044000 27.388000,70.392700 27.595500,71.637600 C 29.462900,70.496400 34.753800,67.902900 34.753800,67.280500 z "
       id="path631"
       sodipodi:nodetypes="ccccc" />
  </g>
</svg>
