<?xml version="1.0" encoding="UTF-8" standalone="no"?>
<!DOCTYPE svg PUBLIC "-//W3C//DTD SVG 20010904//EN"
"http://www.w3.org/TR/2001/REC-SVG-20010904/DTD/svg10.dtd">
<!-- Created with Sodipodi ("http://www.sodipodi.com/") -->
<svg
   id="svg695"
   sodipodi:version="0.32"
   width="72pt"
   height="72pt"
   sodipodi:docbase="/home/zeus/images/icons/gartoon/svg/"
   sodipodi:docname="/home/zeus/images/icons/gartoon/svg/hard-disk.svg"
   xmlns="http://www.w3.org/2000/svg"
   xmlns:sodipodi="http://sodipodi.sourceforge.net/DTD/sodipodi-0.dtd"
   xmlns:xlink="http://www.w3.org/1999/xlink">
  <defs
     id="defs697">
    <linearGradient
       id="linearGradient768">
      <stop
         style="stop-color:#970000;stop-opacity:1;"
         offset="0.000000"
         id="stop769" />
      <stop
         style="stop-color:#ffffff;stop-opacity:0;"
         offset="1.000000"
         id="stop770" />
    </linearGradient>
    <linearGradient
       id="linearGradient762">
      <stop
         style="stop-color:#7d7d7d;stop-opacity:1;"
         offset="0.000000"
         id="stop763" />
      <stop
         style="stop-color:#ffffff;stop-opacity:1;"
         offset="1.000000"
         id="stop764" />
    </linearGradient>
    <linearGradient
       id="linearGradient734">
      <stop
         style="stop-color:#7fa8e3;stop-opacity:0.741176;"
         offset="0.000000"
         id="stop735" />
      <stop
         style="stop-color:#ffffff;stop-opacity:0.290196;"
         offset="1.000000"
         id="stop736" />
    </linearGradient>
    <linearGradient
       id="linearGradient714">
      <stop
         style="stop-color:#7fa8e3;stop-opacity:0.741176;"
         offset="0.000000"
         id="stop715" />
      <stop
         style="stop-color:#ffffff;stop-opacity:0.290196;"
         offset="1.000000"
         id="stop716" />
    </linearGradient>
    <linearGradient
       xlink:href="#linearGradient714"
       id="linearGradient717"
       x1="52.6992607"
       y1="118.880966"
       x2="27.7516518"
       y2="95.9015198"
       gradientUnits="userSpaceOnUse"
       gradientTransform="scale(1.615491,0.619007)"
       spreadMethod="pad" />
    <linearGradient
       xlink:href="#linearGradient734"
       id="linearGradient719"
       x1="8.76167965"
       y1="64.3047867"
       x2="27.9378262"
       y2="87.7629700"
       gradientUnits="userSpaceOnUse"
       gradientTransform="matrix(1.615491,0.000000,0.000000,0.619007,7.394509e-8,-1.278808e-6)"
       spreadMethod="pad" />
    <linearGradient
       xlink:href="#linearGradient714"
       id="linearGradient721"
       x1="21.6558495"
       y1="86.0028992"
       x2="33.8251724"
       y2="57.5816307"
       gradientUnits="userSpaceOnUse"
       spreadMethod="pad"
       gradientTransform="matrix(1.066005,0.000000,0.000000,0.938082,7.394509e-8,-1.278808e-6)" />
    <linearGradient
       xlink:href="#linearGradient714"
       id="linearGradient723"
       x1="43.4018326"
       y1="124.642860"
       x2="42.5384789"
       y2="116.731438"
       gradientUnits="userSpaceOnUse"
       gradientTransform="scale(1.519424,0.658144)"
       spreadMethod="pad" />
    <linearGradient
       xlink:href="#linearGradient714"
       id="linearGradient725"
       x1="42.1643028"
       y1="103.865761"
       x2="46.2594757"
       y2="115.265465"
       gradientUnits="userSpaceOnUse"
       gradientTransform="matrix(1.519424,0.000000,0.000000,0.658144,7.394509e-8,-1.278808e-6)"
       spreadMethod="pad" />
    <linearGradient
       xlink:href="#linearGradient762"
       id="linearGradient761"
       x1="28.3446159"
       y1="41.4478455"
       x2="5.58026600"
       y2="27.4692936"
       gradientUnits="userSpaceOnUse"
       spreadMethod="pad"
       gradientTransform="scale(1.517740,0.658874)" />
    <linearGradient
       xlink:href="#linearGradient768"
       id="linearGradient766"
       x1="9.88407040"
       y1="34.8408470"
       x2="-1.72168255"
       y2="27.3536949"
       gradientUnits="userSpaceOnUse"
       spreadMethod="pad"
       gradientTransform="scale(1.618590,0.617822)" />
  </defs>
  <sodipodi:namedview
     id="base" />
  <path
     style="font-size:12;fill:#000000;fill-rule:evenodd;stroke-width:1pt;fill-opacity:0.3;"
     d="M 5.08233 49.7833 C 3.68284 55.0129 4.49307 60.6846 5.52427 65.4723 C 15.3206 71.8067 29.5364 79.0251 42.8684 87.7903 C 58.5573 83.9601 75.358 81.2348 91.2679 78.9515 C 90.605 72.4697 90.384 66.4298 91.2679 60.169 C 87.9533 57.5173 49.4974 39.6186 46.4039 38.0719 C 26.7375 35.6412 5.3033 47.5736 5.08233 49.7833 z "
     id="path780"
     sodipodi:nodetypes="ccccccc"
     transform="matrix(0.994837,0.000000,0.000000,1.423897,-4.089137,-34.46167)" />
  <path
     style="font-size:12;fill:#3d4e67;fill-rule:evenodd;stroke-width:1pt;"
     d="M 5.08233 49.7833 C 3.68284 55.0129 4.49307 60.6846 5.52427 65.4723 C 15.3206 71.8067 29.5364 79.0251 42.8684 87.7903 C 58.5573 83.9601 75.358 81.2348 91.2679 78.9515 C 90.605 72.4697 90.384 66.4298 91.2679 60.169 C 87.9533 57.5173 49.4974 39.6186 46.4039 38.0719 C 26.7375 35.6412 5.3033 47.5736 5.08233 49.7833 z "
     id="path726"
     sodipodi:nodetypes="ccccccc"
     transform="matrix(0.994837,0.000000,0.000000,1.423897,-1.745386,-40.08667)" />
  <path
     style="font-size:12;fill:#ffffff;fill-rule:evenodd;stroke-width:1pt;"
     d="M 9.50172 52.4349 C 9.64904 55.6022 9.79637 58.7694 9.94369 61.9367 C 9.94369 61.9367 43.5313 82.266 43.3103 82.266 C 43.0893 82.266 85.5157 74.0901 85.5157 74.0901 C 85.5157 70.4072 85.5157 66.7244 85.5157 63.0415 C 72.2575 56.2651 58.9992 49.4886 45.741 42.7122 C 34.3242 41.0918 20.6976 44.3327 9.50172 52.4349 z "
     id="path727"
     sodipodi:nodetypes="ccccccc"
     transform="matrix(0.994837,0.000000,0.000000,1.423897,-1.745386,-40.08667)" />
  <path
     style="font-size:12;fill:url(#linearGradient717);fill-rule:evenodd;stroke-width:1pt;"
     d="M 9.94369 51.772 C 22.9073 59.0641 31.2306 63.9254 44.1942 71.2174 C 57.5997 66.8717 71.0053 62.7469 85.7367 62.8205 C 70.2687 54.7183 61.2089 50.8145 45.7409 42.7122 C 33.2929 40.5762 20.8449 45.0692 9.94369 51.772 z "
     id="path702"
     sodipodi:nodetypes="ccccc"
     transform="matrix(0.994837,0.000000,0.000000,1.423897,-1.745386,-40.08667)" />
  <path
     style="font-size:12;fill:url(#linearGradient719);fill-rule:evenodd;stroke-width:1pt;"
     d="M 9.94369 51.772 C 22.9073 59.0641 31.2306 63.9254 44.1942 71.2174 C 57.5997 66.8717 71.0053 62.7469 85.7367 62.8205 C 70.2687 54.7183 61.2089 50.8145 45.7409 42.7122 C 33.2929 40.5762 20.8449 45.0692 9.94369 51.772 z "
     id="path718"
     sodipodi:nodetypes="ccccc"
     transform="matrix(0.994837,0.000000,0.000000,1.423897,-1.745386,-40.08667)" />
  <path
     style="font-size:12;fill:url(#linearGradient721);fill-rule:evenodd;stroke-width:1pt;"
     d="M 9.72272 52.8769 C 20.6976 59.2114 31.0096 65.104 42.6474 71.8804 C 42.7211 75.2686 42.7947 78.6568 42.8684 82.045 C 31.8198 75.4159 20.7713 68.7868 9.72272 62.1577 C 9.05981 59.2851 8.83884 55.9705 9.72272 52.8769 z "
     id="path720"
     sodipodi:nodetypes="ccccc"
     transform="matrix(0.994837,0.000000,0.000000,1.423897,-1.745386,-40.08667)" />
  <path
     style="font-size:12;fill:url(#linearGradient723);fill-rule:evenodd;stroke-width:1pt;"
     d="M 43.9732 72.3223 L 44.1942 81.3821 L 85.2948 73.6482 L 84.8528 63.4835 L 43.9732 72.3223 z "
     id="path722"
     transform="matrix(0.994837,0.000000,0.000000,1.423897,-1.745386,-40.08667)" />
  <path
     style="font-size:12;fill:url(#linearGradient725);fill-rule:evenodd;stroke-width:1pt;"
     d="M 44.1942 73.2062 C 44.1942 75.9315 44.1942 78.6568 44.1942 81.3821 C 57.8944 78.8041 71.5946 76.2262 85.2948 73.6482 C 85.1475 70.26 85.663 66.6507 85.5157 63.2625 C 68.4273 64.7356 53.1067 68.6395 44.1942 73.2062 z "
     id="path724"
     sodipodi:nodetypes="ccccc"
     transform="matrix(0.994837,0.000000,0.000000,1.423897,-1.745386,-40.08667)" />
  <path
     style="font-size:12;fill:none;fill-rule:evenodd;stroke:#3d4e67;stroke-width:2;"
     d="M 8.61787 51.772 L 43.3103 71.2175 L 43.0893 83.1499 "
     id="path728"
     transform="matrix(0.994837,0.000000,0.000000,1.423897,-1.745386,-40.08667)" />
  <path
     style="font-size:12;fill:none;fill-rule:evenodd;stroke:#3d4e67;stroke-width:2;"
     d="M 43.5313 71.6594 C 58.41 66.3561 70.4161 64.1464 86.1787 62.5996 "
     id="path729"
     sodipodi:nodetypes="cc"
     transform="matrix(0.994837,0.000000,0.000000,1.423897,-1.745386,-40.08667)" />
  <path
     style="font-size:12;fill:#810b0b;fill-rule:evenodd;stroke-width:1pt;fill-opacity:1;"
     d="M 47.0668 64.1464 C 45.8426 64.1464 44.8571 65.1319 44.8571 66.3561 L 44.5634 68.7146 C 44.5634 69.9388 45.5489 70.9243 46.7731 70.9243 L 51.6713 70.7121 C 52.8337 70.594 53.5011 70.4665 53.7225 68.7762 L 54.0887 66.1875 C 54.0887 64.9633 53.36 64.0412 52.1359 64.0412 L 47.0668 64.1464 z "
     id="path758"
     transform="matrix(0.859958,-0.246416,0.212199,0.998628,-8.377747,10.19030)"
     sodipodi:nodetypes="ccccccccc" />
  <path
     style="font-size:12;fill:#d01111;fill-rule:evenodd;stroke-width:1pt;fill-opacity:1;"
     d="M 47.0668 64.1464 C 45.8426 64.1464 44.8571 65.1319 44.8571 66.3561 L 44.5634 68.7146 C 44.5634 69.9388 45.5489 70.9243 46.7731 70.9243 L 51.6713 70.7121 C 52.8337 70.594 53.5011 70.4665 53.7225 68.7762 L 54.0887 66.1875 C 54.0887 64.9633 53.36 64.0412 52.1359 64.0412 L 47.0668 64.1464 z "
     id="path759"
     transform="matrix(0.758064,-0.223914,0.203866,0.800327,-3.183137,22.06495)"
     sodipodi:nodetypes="ccccccccc" />
  <path
     transform="translate(1.987381,3.406944)"
     style="font-size:12;fill:none;fill-rule:evenodd;stroke:#3d4e67;stroke-width:2.875;"
     d="M 61.6088 38.1861 C 61.6088 44.69 53.5957 49.9685 43.7224 49.9685 C 33.8491 49.9685 25.836 44.69 25.836 38.1861 C 25.836 31.6823 33.8491 26.4038 43.7224 26.4038 C 53.5957 26.4038 61.6088 31.6823 61.6088 38.1861 z "
     id="path584" />
  <path
     style="fill:none;fill-rule:evenodd;stroke:#3d4e67;stroke-opacity:1;stroke-width:1.25;stroke-linejoin:miter;stroke-linecap:butt;fill-opacity:1;stroke-dasharray:none;"
     d="M 62.7445 72.9653 C 62.4606 68.4227 62.1766 63.8801 61.8927 59.3375 C 68.9905 55.3628 76.3723 53.9432 84.0379 55.0789 "
     id="path587"
     sodipodi:nodetypes="ccc" />
  <path
     style="fill:none;fill-rule:evenodd;stroke:#3d4e67;stroke-opacity:1;stroke-width:1.25;stroke-linejoin:miter;stroke-linecap:butt;fill-opacity:1;stroke-dasharray:none;"
     d="M 67.0032 56.7823 L 68.1388 70.9779 "
     id="path588"
     sodipodi:nodetypes="cc" />
  <path
     style="fill:none;fill-rule:evenodd;stroke:#3d4e67;stroke-opacity:1;stroke-width:1.25;stroke-linejoin:miter;stroke-linecap:butt;fill-opacity:1;stroke-dasharray:none;"
     d="M 72.6814 55.0789 L 73.5332 69.2745 "
     id="path589"
     sodipodi:nodetypes="cc" />
  <path
     style="fill:none;fill-rule:evenodd;stroke:#3d4e67;stroke-opacity:1;stroke-width:1.25;stroke-linejoin:miter;stroke-linecap:butt;fill-opacity:1;stroke-dasharray:none;"
     d="M 78.6435 54.2271 L 78.9274 67.2871 "
     id="path590"
     sodipodi:nodetypes="cc" />
</svg>
