<?xml version="1.0" encoding="UTF-8" standalone="no"?>
<!DOCTYPE svg PUBLIC "-//W3C//DTD SVG 20010904//EN"
"http://www.w3.org/TR/2001/REC-SVG-20010904/DTD/svg10.dtd">
<!-- Created with Inkscape (http://www.inkscape.org/) -->
<svg
   id="svg604"
   sodipodi:version="0.32"
   width="24.000000pt"
   height="24.000000pt"
   sodipodi:docbase="/home/zeus/.icons/gartoon/scalable/stock-gar"
   sodipodi:docname="stock_filesaveas.svg"
   inkscape:version="0.40"
   xmlns="http://www.w3.org/2000/svg"
   xmlns:inkscape="http://www.inkscape.org/namespaces/inkscape"
   xmlns:sodipodi="http://sodipodi.sourceforge.net/DTD/sodipodi-0.dtd"
   xmlns:xlink="http://www.w3.org/1999/xlink"
   xmlns:rdf="http://www.w3.org/1999/02/22-rdf-syntax-ns#"
   xmlns:cc="http://web.resource.org/cc/"
   xmlns:dc="http://purl.org/dc/elements/1.1/">
  <metadata
     id="metadata59">
    <rdf:RDF
       id="RDF60">
      <cc:Work
         rdf:about=""
         id="Work61">
        <dc:format
           id="format62">image/svg+xml</dc:format>
        <dc:type
           id="type64"
           rdf:resource="http://purl.org/dc/dcmitype/StillImage" />
      </cc:Work>
    </rdf:RDF>
  </metadata>
  <defs
     id="defs606">
    <linearGradient
       id="linearGradient612">
      <stop
         style="stop-color:#7fa8e3;stop-opacity:0.741176;"
         offset="0.000000"
         id="stop613" />
      <stop
         style="stop-color:#ffffff;stop-opacity:0;"
         offset="1.000000"
         id="stop614" />
    </linearGradient>
    <linearGradient
       xlink:href="#linearGradient612"
       id="linearGradient615"
       x1="50.6438866"
       y1="5.36792946"
       x2="35.7520943"
       y2="68.0443573"
       gradientUnits="userSpaceOnUse"
       spreadMethod="pad" />
    <linearGradient
       inkscape:collect="always"
       xlink:href="#linearGradient619"
       id="linearGradient1144"
       gradientUnits="userSpaceOnUse"
       gradientTransform="scale(1.004516,0.995504)"
       spreadMethod="pad"
       x1="66.3316956"
       y1="23.2124691"
       x2="63.4654961"
       y2="20.9627991" />
    <linearGradient
       inkscape:collect="always"
       xlink:href="#linearGradient626"
       id="linearGradient1145"
       gradientUnits="userSpaceOnUse"
       gradientTransform="scale(0.912664,1.095694)"
       spreadMethod="pad"
       x1="56.3276138"
       y1="43.3772469"
       x2="51.6545258"
       y2="39.7629089" />
    <linearGradient
       inkscape:collect="always"
       xlink:href="#linearGradient677"
       id="linearGradient1146"
       gradientUnits="userSpaceOnUse"
       gradientTransform="scale(1.011562,0.988570)"
       spreadMethod="pad"
       x1="68.3116760"
       y1="71.2960510"
       x2="52.5783653"
       y2="39.5797806" />
    <linearGradient
       inkscape:collect="always"
       xlink:href="#linearGradient684"
       id="linearGradient1147"
       gradientUnits="userSpaceOnUse"
       gradientTransform="scale(1.017548,0.982755)"
       spreadMethod="pad"
       x1="49.0257645"
       y1="44.3401871"
       x2="56.4553261"
       y2="53.1827507" />
    <linearGradient
       inkscape:collect="always"
       xlink:href="#linearGradient689"
       id="linearGradient1148"
       gradientUnits="userSpaceOnUse"
       gradientTransform="scale(1.326975,0.753594)"
       spreadMethod="pad"
       x1="26.2959213"
       y1="98.9529343"
       x2="31.7159863"
       y2="102.827583" />
    <linearGradient
       inkscape:collect="always"
       xlink:href="#linearGradient689"
       id="linearGradient1149"
       gradientUnits="userSpaceOnUse"
       gradientTransform="scale(0.780786,1.280761)"
       spreadMethod="pad"
       x1="33.5794411"
       y1="53.8219566"
       x2="-14.0691185"
       y2="26.5526485" />
  </defs>
  <sodipodi:namedview
     id="base"
     inkscape:zoom="4.2916667"
     inkscape:cx="36.000000"
     inkscape:cy="7.2441857"
     inkscape:window-width="1014"
     inkscape:window-height="696"
     inkscape:window-x="143"
     inkscape:window-y="288"
     inkscape:current-layer="svg604" />
  <g
     id="g614"
     transform="matrix(0.323944,0.000000,0.000000,0.323944,0.477462,-0.106738)">
    <defs
       id="defs668">
      <linearGradient
         id="linearGradient689">
        <stop
           style="stop-color:#ffb700;stop-opacity:1;"
           offset="0.000000"
           id="stop690" />
        <stop
           style="stop-color:#fdffff;stop-opacity:0;"
           offset="1.000000"
           id="stop691" />
      </linearGradient>
      <linearGradient
         id="linearGradient684">
        <stop
           style="stop-color:#ffffff;stop-opacity:0.647059;"
           offset="0.000000"
           id="stop685" />
        <stop
           style="stop-color:#fdffff;stop-opacity:0;"
           offset="1.000000"
           id="stop686" />
      </linearGradient>
      <linearGradient
         id="linearGradient677">
        <stop
           style="stop-color:#000000;stop-opacity:1;"
           offset="0.000000"
           id="stop678" />
        <stop
           style="stop-color:#6a6762;stop-opacity:1;"
           offset="1.000000"
           id="stop679" />
      </linearGradient>
      <linearGradient
         xlink:href="#linearGradient677"
         id="linearGradient680"
         x1="68.311676"
         y1="71.296051"
         x2="52.578365"
         y2="39.579781"
         gradientUnits="userSpaceOnUse"
         spreadMethod="pad"
         gradientTransform="scale(1.011562,0.988570)" />
      <linearGradient
         xlink:href="#linearGradient684"
         id="linearGradient683"
         x1="49.025764"
         y1="44.340187"
         x2="56.455326"
         y2="53.182751"
         gradientUnits="userSpaceOnUse"
         spreadMethod="pad"
         gradientTransform="scale(1.017548,0.982755)" />
      <linearGradient
         xlink:href="#linearGradient689"
         id="linearGradient688"
         x1="26.295921"
         y1="98.952934"
         x2="31.715986"
         y2="102.82758"
         gradientUnits="userSpaceOnUse"
         spreadMethod="pad"
         gradientTransform="scale(1.326975,0.753594)" />
      <linearGradient
         xlink:href="#linearGradient689"
         id="linearGradient693"
         x1="33.579441"
         y1="53.821957"
         x2="-14.069118"
         y2="26.552649"
         gradientUnits="userSpaceOnUse"
         spreadMethod="pad"
         gradientTransform="scale(0.780786,1.280761)" />
      <linearGradient
         xlink:href="#linearGradient689"
         id="linearGradient698" />
    </defs>
    <sodipodi:namedview
       id="namedview630" />
    <path
       style="fill:#000000;fill-opacity:0.29824600;fill-rule:evenodd;stroke:none;stroke-width:1.0000000pt;stroke-linecap:butt;stroke-linejoin:miter;stroke-opacity:1.0000000"
       d="M 1.4358700,43.334100 C 1.4358700,43.334100 13.982900,62.133400 24.409900,77.615600 C 26.361000,79.271000 38.751800,85.130700 41.640400,83.718000 C 44.216400,82.149200 79.089200,55.306700 79.714200,52.122500 C 80.698200,48.532700 79.488300,46.205800 78.614100,44.411000 C 77.896200,42.616100 54.563200,6.5397800 53.665800,5.6423600 C 52.768400,4.7449300 50.255600,3.4885400 47.204400,4.5654500 C 39.440100,9.0461700 15.007000,24.332000 2.5824800,37.168300 C 0.96712000,38.963200 1.2563900,41.539200 1.4358700,43.334100 z "
       id="path699"
       sodipodi:nodetypes="ccccccccc"
       transform="matrix(1.120973,0.000000,0.000000,0.970624,-0.312708,8.246927)" />
    <path
       style="fill:none;fill-opacity:1.0000000;fill-rule:evenodd;stroke:#000000;stroke-width:1.0000000pt;stroke-linecap:butt;stroke-linejoin:miter;stroke-opacity:1.0000000"
       d="M 8.7947300,37.411100 C 8.7947300,37.470900 8.7947300,37.530700 8.7947300,37.590600"
       id="path671" />
    <path
       style="fill:#261d14;fill-opacity:1.0000000;fill-rule:evenodd;stroke:none;stroke-width:1.0000000pt;stroke-linecap:butt;stroke-linejoin:miter;stroke-opacity:1.0000000"
       d="M 1.4358700,43.334100 C 1.4358700,43.334100 13.982900,62.133400 24.409900,77.615600 C 26.361000,79.271000 38.751800,85.130700 41.640400,83.718000 C 44.216400,82.149200 79.089200,55.306700 79.714200,52.122500 C 80.698200,48.532700 79.488300,46.205800 78.614100,44.411000 C 77.896200,42.616100 54.563200,6.5397800 53.665800,5.6423600 C 52.768400,4.7449300 50.255600,3.4885400 47.204400,4.5654500 C 39.440100,9.0461700 15.007000,24.332000 2.5824800,37.168300 C 0.96712000,38.963200 1.2563900,41.539200 1.4358700,43.334100 z "
       id="path676"
       sodipodi:nodetypes="ccccccccc" />
    <path
       style="fill:#f1e36c;fill-opacity:1.0000000;fill-rule:evenodd;stroke:none;stroke-width:1.0000000pt;stroke-linecap:butt;stroke-linejoin:miter;stroke-opacity:1.0000000"
       d="M 8.6152500,37.590600 C 8.6152500,37.590600 27.281600,66.846500 27.999500,68.102900 C 28.717500,69.359300 30.332900,71.154200 33.563600,72.051600 C 38.409700,74.025900 43.076200,75.820700 43.435200,75.820700 C 43.794200,75.820700 46.127500,73.666900 46.127500,73.666900 L 35.537900,60.385100 L 59.768300,39.205900 L 69.998900,54.103100 L 75.562900,49.616000 C 75.562900,49.616000 50.435100,8.6935900 50.076100,8.6935900 C 49.717200,8.6935900 43.794200,12.283300 43.794200,12.283300 L 56.358100,31.308600 C 56.358100,31.308600 31.768700,49.436600 29.614900,51.231400 C 27.640600,51.231400 13.461300,33.462400 13.461300,33.462400 L 8.6152500,37.590600 z "
       id="path672"
       sodipodi:nodetypes="ccccccccccccccc" />
    <path
       style="fill:#ffffff;fill-opacity:1.0000000;fill-rule:evenodd;stroke:none;stroke-width:1.0000000pt;stroke-linecap:butt;stroke-linejoin:miter;stroke-opacity:1.0000000"
       d="M 14.897200,32.565000 L 29.614900,49.257100 L 54.204300,30.770200 L 42.358300,12.821700 L 14.897200,32.565000 z "
       id="path673"
       sodipodi:nodetypes="ccccc" />
    <path
       style="fill:url(#linearGradient1146);fill-opacity:1.0000000;fill-rule:evenodd;stroke:none;stroke-width:1.0000000pt;stroke-linecap:butt;stroke-linejoin:miter;stroke-opacity:1.0000000"
       d="M 37.512200,60.564600 L 47.024900,72.410500 L 49.358200,70.615700 L 41.101900,60.385100 C 41.101900,60.385100 43.794200,57.333800 45.589000,57.154400 C 48.460800,59.846600 54.204300,67.026000 54.204300,67.026000 L 69.101500,55.718500 L 59.229800,41.539200 L 37.512200,60.564600 z "
       id="path674"
       sodipodi:nodetypes="ccccccccc" />
    <path
       style="fill:#f1e36c;fill-opacity:1.0000000;fill-rule:evenodd;stroke:none;stroke-width:1.0000000pt;stroke-linecap:butt;stroke-linejoin:miter;stroke-opacity:1.0000000"
       d="M 7.9205400,38.534500 C 7.2026100,38.355000 28.897000,71.872000 29.435500,71.872000 C 29.973900,71.872000 41.460900,76.718200 41.460900,76.718200 L 40.743000,79.051400 L 28.717500,75.641300 L 5.4077600,41.250000 L 7.9205400,38.534500 z "
       id="path675"
       sodipodi:nodetypes="ccccccc" />
    <path
       style="fill:#f1e36c;fill-opacity:1.0000000;fill-rule:evenodd;stroke:none;stroke-width:1.0000000pt;stroke-linecap:butt;stroke-linejoin:miter;stroke-opacity:1.0000000"
       d="M 42.358300,60.205600 L 49.717200,69.718300 L 52.947900,67.026000 L 45.230100,57.692800 L 42.358300,60.205600 z "
       id="path681" />
    <path
       style="fill:url(#linearGradient1147);fill-opacity:1.0000000;fill-rule:evenodd;stroke:none;stroke-width:1.0000000pt;stroke-linecap:butt;stroke-linejoin:miter;stroke-opacity:1.0000000"
       d="M 59.062500,42.500000 L 45.156300,54.687500 C 46.354200,58.229100 50.364600,60.989500 52.031300,62.968700 C 54.583400,43.802000 59.948000,45.416600 65.312600,52.343700 L 59.062500,42.500000 z "
       id="path682"
       sodipodi:nodetypes="ccccc" />
    <path
       style="fill:url(#linearGradient1148);fill-opacity:1.0000000;fill-rule:evenodd;stroke:none;stroke-width:1.0000000pt;stroke-linecap:butt;stroke-linejoin:miter;stroke-opacity:1.0000000"
       d="M 41.250000,76.718700 L 40.625000,79.062500 L 28.593800,75.937500 L 29.062500,71.875000 L 41.250000,76.718700 z "
       id="path687" />
    <path
       style="fill:url(#linearGradient1149);fill-opacity:1.0000000;fill-rule:evenodd;stroke:none;stroke-width:1.0000000pt;stroke-linecap:butt;stroke-linejoin:miter;stroke-opacity:1.0000000"
       d="M 28.593800,75.781200 L 29.375000,72.187500 L 12.500000,46.562500 L 11.562500,50.000000 L 28.593800,75.781200 z "
       id="path692" />
    <path
       style="fill:#bae6ff;fill-opacity:1.0000000;fill-rule:evenodd;stroke:none;stroke-width:1.0000000pt;stroke-linecap:butt;stroke-linejoin:miter;stroke-opacity:1.0000000"
       d="M 14.843800,32.500000 L 21.093800,39.531200 L 47.812600,20.781200 L 42.343800,12.812500 L 14.843800,32.500000 z "
       id="path697"
       sodipodi:nodetypes="ccccc" />
  </g>
  <g
     id="g677"
     transform="matrix(0.209854,8.455077e-2,-8.455077e-2,0.209854,14.59180,-5.276890)">
    <defs
       id="defs611">
      <linearGradient
         id="linearGradient626">
        <stop
           style="stop-color:#b5772d;stop-opacity:1;"
           offset="0.000000"
           id="stop627" />
        <stop
           style="stop-color:#ffffff;stop-opacity:0;"
           offset="1.000000"
           id="stop628" />
      </linearGradient>
      <linearGradient
         id="linearGradient619">
        <stop
           style="stop-color:#770000;stop-opacity:1;"
           offset="0.000000"
           id="stop620" />
        <stop
           style="stop-color:#ffffff;stop-opacity:0;"
           offset="1.000000"
           id="stop621" />
      </linearGradient>
      <linearGradient
         xlink:href="#linearGradient619"
         id="linearGradient622"
         x1="66.331696"
         y1="23.212469"
         x2="63.465496"
         y2="20.962799"
         gradientUnits="userSpaceOnUse"
         spreadMethod="pad"
         gradientTransform="scale(1.004516,0.995504)" />
      <linearGradient
         xlink:href="#linearGradient626"
         id="linearGradient625"
         x1="56.327614"
         y1="43.377247"
         x2="51.654526"
         y2="39.762909"
         gradientUnits="userSpaceOnUse"
         spreadMethod="pad"
         gradientTransform="scale(0.912664,1.095694)" />
    </defs>
    <sodipodi:namedview
       id="namedview687" />
    <path
       style="fill:#000000;fill-opacity:0.28318599;fill-rule:evenodd;stroke:none;stroke-width:1.0000000pt;stroke-linecap:butt;stroke-linejoin:miter;stroke-opacity:1.0000000"
       d="M 9.3368500,82.115600 C 17.912900,79.764100 30.911200,77.563700 40.109700,71.892400 C 56.985100,62.071400 66.011800,41.633200 76.455100,25.587700 C 77.285000,12.308600 64.112800,5.9687200 59.133100,8.8734500 C 46.476600,25.472200 37.554800,43.523500 23.445800,55.972500 C 19.088600,66.554200 9.1293400,82.738000 9.3368500,82.115600 z "
       id="path632"
       sodipodi:nodetypes="cccccc"
       transform="translate(3.814559,2.934275)" />
    <path
       style="fill:#000000;fill-opacity:1.0000000;fill-rule:evenodd;stroke:none;stroke-width:1.0000000pt;stroke-linecap:butt;stroke-linejoin:miter;stroke-opacity:1.0000000"
       d="M 9.3368500,82.115600 C 17.912900,79.764100 28.563800,74.922800 37.762300,69.251600 C 54.637700,59.430600 64.251200,38.405500 74.694500,22.360000 C 75.524400,9.0809200 64.112800,5.9687200 59.133100,8.8734500 C 46.476600,25.472200 37.554800,43.523500 23.445800,55.972500 C 19.088600,66.554200 9.1293400,82.738000 9.3368500,82.115600 z "
       id="path617"
       sodipodi:nodetypes="cccccc" />
    <path
       style="fill:#be6d6d;fill-opacity:1.0000000;fill-rule:evenodd;stroke:none;stroke-width:1.0000000pt;stroke-linecap:butt;stroke-linejoin:miter;stroke-opacity:1.0000000"
       d="M 71.997200,20.907600 C 70.268200,23.397400 68.539100,25.887200 66.810100,28.377000 C 64.527800,22.982400 61.830500,20.285100 54.983500,19.662700 C 57.196700,16.965400 59.409800,14.268100 61.623000,11.570800 C 67.155900,10.948300 71.443900,15.720500 71.997200,20.907600 z "
       id="path613"
       sodipodi:nodetypes="ccccc" />
    <path
       style="fill:#ffbc24;fill-opacity:1.0000000;fill-rule:evenodd;stroke:none;stroke-width:1.0000000pt;stroke-linecap:butt;stroke-linejoin:miter;stroke-opacity:1.0000000"
       d="M 54.776000,20.907600 C 60.170600,20.561800 63.905300,24.573200 65.980100,29.207000 C 57.542400,42.831800 50.557100,56.249200 36.309800,66.969200 C 36.309800,66.969200 32.782600,56.802400 27.595500,58.047400 C 34.027500,50.785400 48.966400,30.037000 54.776000,20.907600 z "
       id="path614"
       sodipodi:nodetypes="ccccc" />
    <path
       style="fill:#e9dbb9;fill-opacity:1.0000000;fill-rule:evenodd;stroke:none;stroke-width:1.0000000pt;stroke-linecap:butt;stroke-linejoin:miter;stroke-opacity:1.0000000"
       d="M 27.076700,58.669800 C 31.745100,58.427700 35.687300,63.995300 34.649900,67.384200 C 32.644200,68.905700 29.393700,70.427300 27.388000,71.948800 C 27.042200,69.182400 25.244000,67.038400 21.370900,67.384200 C 23.099900,64.410200 25.347700,61.643800 27.076700,58.669800 z "
       id="path615"
       sodipodi:nodetypes="ccccc" />
    <path
       style="fill:#586f93;fill-opacity:1.0000000;fill-rule:evenodd;stroke:none;stroke-width:1.0000000pt;stroke-linecap:butt;stroke-linejoin:miter;stroke-opacity:1.0000000"
       d="M 21.785900,66.969200 C 25.347700,66.139300 26.834700,69.666500 27.595500,71.741400 L 14.316400,77.758400 L 21.785900,66.969200 z "
       id="path616"
       sodipodi:nodetypes="cccc" />
    <path
       style="fill:url(#linearGradient1144);fill-opacity:1.0000000;fill-rule:evenodd;stroke:none;stroke-width:1.0000000pt;stroke-linecap:butt;stroke-linejoin:miter;stroke-opacity:1.0000000"
       d="M 71.997200,20.907600 C 70.268200,23.397400 68.539100,25.887200 66.810100,28.377000 C 64.527800,22.982400 61.830500,20.285100 54.983500,19.662700 C 57.196700,16.965400 59.409800,14.268100 61.623000,11.570800 C 67.155900,10.948300 71.443900,15.720500 71.997200,20.907600 z "
       id="path618"
       sodipodi:nodetypes="ccccc" />
    <path
       style="fill:#ffffff;fill-opacity:1.0000000;fill-rule:evenodd;stroke:none;stroke-width:1.0000000pt;stroke-linecap:butt;stroke-linejoin:miter;stroke-opacity:1.0000000"
       d="M 62.867900,12.193200 L 57.473300,19.040200 L 60.378100,20.077600 L 65.772700,13.645600 L 62.867900,12.193200 z "
       id="path623"
       sodipodi:nodetypes="ccccc" />
    <path
       style="fill:url(#linearGradient1145);fill-opacity:1.0000000;fill-rule:evenodd;stroke:none;stroke-width:1.0000000pt;stroke-linecap:butt;stroke-linejoin:miter;stroke-opacity:1.0000000"
       d="M 54.776000,20.907600 C 60.170600,20.561800 63.905300,24.573200 65.980100,29.207000 C 57.542400,42.831800 50.557100,56.249200 36.309800,66.969200 C 36.309800,66.969200 32.782600,56.802400 27.595500,58.047400 C 34.027500,50.785400 48.966400,30.037000 54.776000,20.907600 z "
       id="path624"
       sodipodi:nodetypes="ccccc" />
    <path
       style="fill:#ffffff;fill-opacity:1.0000000;fill-rule:evenodd;stroke:none;stroke-width:1.0000000pt;stroke-linecap:butt;stroke-linejoin:miter;stroke-opacity:1.0000000"
       d="M 29.670300,56.180000 C 30.915200,56.940800 32.160100,57.701500 33.405000,58.462300 C 42.534400,47.603900 46.684100,36.538100 58.925700,24.642300 C 57.749900,23.881500 56.574200,23.120800 55.398400,22.360000 C 48.067300,35.085700 39.698700,47.396500 29.670300,56.180000 z "
       id="path630"
       sodipodi:nodetypes="ccccc" />
    <path
       style="fill:#9c7850;fill-opacity:1.0000000;fill-rule:evenodd;stroke:none;stroke-width:1.0000000pt;stroke-linecap:butt;stroke-linejoin:miter;stroke-opacity:1.0000000"
       d="M 34.753800,67.280500 C 34.961200,65.101900 34.442500,63.545700 33.301300,61.782100 C 31.779800,65.171000 29.428300,67.626200 26.143100,68.421600 C 25.416900,69.044000 27.388000,70.392700 27.595500,71.637600 C 29.462900,70.496400 34.753800,67.902900 34.753800,67.280500 z "
       id="path631"
       sodipodi:nodetypes="ccccc" />
  </g>
</svg>
