<?xml version="1.0" encoding="UTF-8" standalone="no"?>
<!DOCTYPE svg PUBLIC "-//W3C//DTD SVG 20010904//EN"
"http://www.w3.org/TR/2001/REC-SVG-20010904/DTD/svg10.dtd">
<!-- Created with Sodipodi ("http://www.sodipodi.com/") -->
<svg
   id="svg604"
   sodipodi:version="0.32"
   width="24.000000pt"
   height="24.000000pt"
   sodipodi:docbase="/home/zeus/.icons/gartoon/scalable/stock-gar"
   sodipodi:docname="stock_zoom-out.svg"
   inkscape:version="0.40"
   xmlns="http://www.w3.org/2000/svg"
   xmlns:inkscape="http://www.inkscape.org/namespaces/inkscape"
   xmlns:sodipodi="http://sodipodi.sourceforge.net/DTD/sodipodi-0.dtd"
   xmlns:xlink="http://www.w3.org/1999/xlink"
   xmlns:rdf="http://www.w3.org/1999/02/22-rdf-syntax-ns#"
   xmlns:cc="http://web.resource.org/cc/"
   xmlns:dc="http://purl.org/dc/elements/1.1/">
  <metadata
     id="metadata39">
    <rdf:RDF
       id="RDF40">
      <cc:Work
         rdf:about=""
         id="Work41">
        <dc:format
           id="format42">image/svg+xml</dc:format>
        <dc:type
           id="type44"
           rdf:resource="http://purl.org/dc/dcmitype/StillImage" />
      </cc:Work>
    </rdf:RDF>
  </metadata>
  <defs
     id="defs606">
    <linearGradient
       id="linearGradient621">
      <stop
         offset="0.00000000"
         style="stop-color:#666565;stop-opacity:1;"
         id="stop623" />
      <stop
         offset="1.00000000"
         style="stop-color:#ffffff;stop-opacity:1;"
         id="stop622" />
    </linearGradient>
    <linearGradient
       id="linearGradient610">
      <stop
         offset="0.00000000"
         style="stop-color:#666565;stop-opacity:1;"
         id="stop612" />
      <stop
         offset="1.00000000"
         style="stop-color:#ffffff;stop-opacity:1;"
         id="stop611" />
    </linearGradient>
    <linearGradient
       id="linearGradient612">
      <stop
         style="stop-color:#7fa8e3;stop-opacity:0.741176;"
         offset="0.000000"
         id="stop613" />
      <stop
         style="stop-color:#ffffff;stop-opacity:0;"
         offset="1.000000"
         id="stop614" />
    </linearGradient>
    <linearGradient
       xlink:href="#linearGradient610"
       id="linearGradient615"
       x1="0.00768350"
       y1="0.96245670"
       x2="1.02190578"
       y2="0.07761747"
       gradientUnits="objectBoundingBox"
       gradientTransform="scale(0.993504,1.006539)" />
    <defs
       id="defs550">
      <linearGradient
         id="linearGradient554"
         x1="0.00000000"
         y1="0.00000000"
         x2="1.00000000"
         y2="0.00000000"
         gradientUnits="objectBoundingBox"
         spreadMethod="pad"
         xlink:href="#linearGradient610" />
      <linearGradient
         xlink:href="#linearGradient554"
         id="linearGradient557"
         x1="12.9236002"
         y1="79.9603500"
         x2="8.33575153"
         y2="72.2902298"
         gradientUnits="userSpaceOnUse"
         spreadMethod="pad"
         gradientTransform="scale(1.122498,0.890870)" />
      <linearGradient
         xlink:href="#linearGradient554"
         id="linearGradient559"
         x1="7.79836702"
         y1="68.6560287"
         x2="12.9945765"
         y2="78.4289169"
         gradientUnits="userSpaceOnUse"
         spreadMethod="pad"
         gradientTransform="scale(1.122498,0.890870)" />
      <linearGradient
         xlink:href="#linearGradient554"
         id="linearGradient563" />
    </defs>
    <sodipodi:namedview
       id="namedview578" />
    <defs
       id="defs573">
      <linearGradient
         id="linearGradient604"
         x1="0.00000000"
         y1="0.00000000"
         x2="1.00000000"
         y2="0.00000000"
         gradientUnits="objectBoundingBox"
         spreadMethod="pad"
         xlink:href="#linearGradient621" />
      <linearGradient
         id="linearGradient600">
        <stop
           style="stop-color:#000;stop-opacity:1;"
           offset="0"
           id="stop601" />
        <stop
           style="stop-color:#fff;stop-opacity:1;"
           offset="1"
           id="stop602" />
      </linearGradient>
      <linearGradient
         xlink:href="#linearGradient604"
         id="linearGradient603"
         x1="61.0468903"
         y1="28.6572132"
         x2="79.6281509"
         y2="14.1547699"
         gradientUnits="userSpaceOnUse"
         spreadMethod="pad"
         gradientTransform="scale(0.994399,1.005632)" />
    </defs>
    <sodipodi:namedview
       id="namedview799" />
    <linearGradient
       xlink:href="#linearGradient610"
       id="linearGradient613"
       x1="26.44122696"
       y1="54.83988953"
       x2="29.67018700"
       y2="59.91422272"
       gradientUnits="userSpaceOnUse"
       gradientTransform="scale(1.122498,0.890870)" />
    <radialGradient
       xlink:href="#linearGradient612"
       id="radialGradient614"
       cx="0.06201551"
       cy="0.11718750"
       r="0.76277786"
       fx="0.06201551"
       fy="0.11718750"
       spreadMethod="repeat" />
  </defs>
  <sodipodi:namedview
     id="base"
     inkscape:zoom="8.2190765"
     inkscape:cx="26.179886"
     inkscape:cy="5.3074249"
     inkscape:window-width="1014"
     inkscape:window-height="696"
     inkscape:window-x="0"
     inkscape:window-y="25"
     showgrid="true"
     snaptogrid="true"
     gridspacingx="0mm"
     gridspacingy="0mm"
     inkscape:current-layer="svg604" />
  <path
     style="font-size:12.000000;fill-rule:evenodd;stroke:#000000;stroke-width:0.53282008pt"
     d="M 24.566871,28.570130 L 19.084864,23.976876 C 19.039086,23.938520 15.117989,25.411036 13.053768,25.391077 C 8.2555398,25.344112 1.5509133,22.332864 1.0028987,14.089484 C 0.56978058,7.5200767 4.9636160,1.4059819 12.970516,1.3934052 C 19.549536,1.3831638 25.626865,6.1412454 24.979757,13.964605 C 24.670788,17.817699 23.597281,19.156306 23.906937,19.508886 L 28.863567,25.152607 C 29.370018,25.729262 29.086955,27.692859 28.191009,28.433970 C 27.224448,29.214796 25.194733,29.096202 24.566871,28.570130 z "
     id="path634"
     sodipodi:nodetypes="csssssssss" />
  <path
     style="font-size:12.000000;fill:#efe16b;fill-opacity:1.0000000;fill-rule:evenodd;stroke-width:1.0000000pt"
     d="M 23.443372,13.202896 C 23.443372,14.665154 23.146682,16.058538 22.610256,17.326093 C 22.342043,17.959871 22.065985,18.601144 21.632934,19.125935 L 27.617522,26.829498 L 26.862118,27.870033 L 18.770338,21.988531 C 18.245547,22.421582 17.604274,22.697640 16.970496,22.965853 C 15.702941,23.502279 14.309557,23.798969 12.847299,23.798969 C 6.9982665,23.798969 2.2512255,19.051928 2.2512255,13.202896 C 2.2512255,7.3538638 6.9982665,2.6068229 12.847299,2.6068229 C 18.696332,2.6068229 23.443372,7.3538638 23.443372,13.202896 z "
     id="path620"
     sodipodi:nodetypes="csccccscccc" />
  <path
     style="font-size:12.000000;fill:#ffc83d;fill-rule:evenodd"
     d="M 21.742708,19.120075 L 27.510126,25.557454 C 28.443303,26.886539 26.946609,28.555453 25.394531,27.746162 L 18.788875,21.975769 C 18.915032,20.637350 20.771096,19.358381 21.742708,19.120075 z "
     id="path562"
     sodipodi:nodetypes="ccccc" />
  <path
     style="font-size:12.000000;fill:#ff933d;fill-rule:evenodd"
     d="M 21.558799,19.312895 L 27.314929,25.660194 C 27.718557,26.684446 27.056221,24.961925 26.205020,26.743705 L 20.313455,20.444234 C 20.323999,20.030427 20.546739,19.514980 21.558799,19.312895 z "
     id="path567"
     sodipodi:nodetypes="ccccc" />
  <path
     style="font-size:12.000000;fill:#ffffff;fill-rule:evenodd"
     d="M 19.709400,20.817441 L 25.832458,26.856733 C 26.082703,26.928231 25.539093,27.051329 25.629331,27.680031 C 25.415679,27.379253 19.134307,21.631109 19.134307,21.631109 L 19.709400,20.817441 z "
     id="path568"
     sodipodi:nodetypes="ccccc" />
  <path
     sodipodi:type="arc"
     style="font-size:12.000000;fill:#bae6ff;fill-opacity:1.0000000;fill-rule:evenodd;stroke:none;stroke-width:1.0000000pt"
     id="path611"
     sodipodi:cx="29.499611"
     sodipodi:cy="28.953592"
     sodipodi:rx="18.451067"
     sodipodi:ry="18.451067"
     d="M 47.950678 28.953592 A 18.451067 18.451067 0 1 1  11.048544,28.953592 A 18.451067 18.451067 0 1 1  47.950678 28.953592 z"
     transform="matrix(0.501087,0.000000,0.000000,0.501087,-1.934578,-1.305378)" />
  <path
     style="font-size:12.000000;fill:#437caf;fill-opacity:1.0000000;fill-rule:evenodd;stroke-width:1.0000000pt"
     d="M 18.601181,5.9936442 C 20.527568,7.3683874 21.929884,9.4774949 22.350481,11.994380 C 22.771072,14.511260 22.130698,16.961723 20.755955,18.888106 C 19.381216,20.814498 17.272104,22.216809 14.755224,22.637406 C 12.238339,23.057997 10.582613,22.550079 7.8614933,21.042885 M 7.8614933,21.042885 C 21.094112,17.060330 17.840264,13.825790 18.601181,5.9936442"
     id="path610"
     sodipodi:nodetypes="ccscscs" />
  <path
     style="fill:#ff0000;fill-opacity:1.0000000;fill-rule:evenodd;stroke:none;stroke-width:1.0000000pt;stroke-linecap:butt;stroke-linejoin:miter;stroke-opacity:1.0000000"
     d="M 21.718083,19.018960 C 20.728533,19.391401 21.032703,19.335534 20.123684,19.922725 C 20.073096,20.005470 19.526274,19.951361 18.813425,22.013117 L 20.329220,23.371304 C 20.740336,22.826096 21.342908,21.834750 21.700336,21.584823 C 22.218615,21.200466 22.475113,21.004015 23.234986,20.700189 L 21.718083,19.018960 z "
     id="path651"
     sodipodi:nodetypes="ccccccc" />
  <path
     style="fill:#ffffff;fill-opacity:1.0000000;fill-rule:evenodd;stroke:none;stroke-width:1.0000000pt;stroke-linecap:butt;stroke-linejoin:miter;stroke-opacity:1.0000000"
     d="M 20.540596,21.861181 L 20.064065,22.542258 L 19.147829,21.780429 L 19.577328,21.109335 L 20.540596,21.861181 z "
     id="path652"
     sodipodi:nodetypes="ccccc" />
  <path
     style="font-size:12.000000;fill:#000001;fill-opacity:1.0000000;fill-rule:evenodd;stroke:none;stroke-width:1.0000000pt"
     d="M 18.651197,12.185135 L 6.9254528,12.196831 C 6.0198058,12.197734 6.0225162,14.914675 6.9281627,14.913772 L 18.653907,14.902076 C 19.559554,14.901172 19.556844,12.184231 18.651197,12.185135 z "
     id="path614"
     sodipodi:nodetypes="cssss" />
</svg>
