<?xml version="1.0" encoding="UTF-8" standalone="no"?>
<!DOCTYPE svg PUBLIC "-//W3C//DTD SVG 20010904//EN"
"http://www.w3.org/TR/2001/REC-SVG-20010904/DTD/svg10.dtd">
<!-- Created with Sodipodi ("http://www.sodipodi.com/") -->
<svg
   id="svg596"
   sodipodi:version="0.32"
   width="72pt"
   height="72pt"
   sodipodi:docbase="/home/zeus/.icons/gartoon/scalable/mimetypes"
   sodipodi:docname="gnome-mime-image-x-3ds.svg"
   xmlns="http://www.w3.org/2000/svg"
   xmlns:sodipodi="http://sodipodi.sourceforge.net/DTD/sodipodi-0.dtd"
   xmlns:xlink="http://www.w3.org/1999/xlink"
   xmlns:inkscape="http://www.inkscape.org/namespaces/inkscape"
   inkscape:version="0.40"
   xmlns:rdf="http://www.w3.org/1999/02/22-rdf-syntax-ns#"
   xmlns:cc="http://web.resource.org/cc/"
   xmlns:dc="http://purl.org/dc/elements/1.1/">
  <metadata
     id="metadata36">
    <rdf:RDF
       id="RDF37">
      <cc:Work
         rdf:about=""
         id="Work38">
        <dc:format
           id="format39">image/svg+xml</dc:format>
        <dc:type
           id="type41"
           rdf:resource="http://purl.org/dc/dcmitype/StillImage" />
      </cc:Work>
    </rdf:RDF>
  </metadata>
  <defs
     id="defs598">
    <linearGradient
       id="linearGradient612">
      <stop
         style="stop-color:#7fa8e3;stop-opacity:0.741176;"
         offset="0.000000"
         id="stop613" />
      <stop
         style="stop-color:#ffffff;stop-opacity:0;"
         offset="1.000000"
         id="stop614" />
    </linearGradient>
    <linearGradient
       id="linearGradient626">
      <stop
         style="stop-color:#ff0047;stop-opacity:1;"
         offset="0.000000"
         id="stop627" />
      <stop
         style="stop-color:#ab322d;stop-opacity:0;"
         offset="1.000000"
         id="stop628" />
    </linearGradient>
    <linearGradient
       id="linearGradient618">
      <stop
         style="stop-color:#956d47;stop-opacity:1;"
         offset="0.000000"
         id="stop619" />
      <stop
         style="stop-color:#ab322d;stop-opacity:0;"
         offset="1.000000"
         id="stop620" />
    </linearGradient>
    <linearGradient
       id="linearGradient614">
      <stop
         style="stop-color:#000;stop-opacity:1;"
         offset="0"
         id="stop615" />
      <stop
         style="stop-color:#fff;stop-opacity:1;"
         offset="1"
         id="stop616" />
    </linearGradient>
    <linearGradient
       xlink:href="#linearGradient618"
       id="linearGradient617"
       y2="0.52343726"
       x2="1.07843077"
       y1="0.57031226"
       x1="-0.19608469"
       spreadMethod="pad"
       gradientUnits="objectBoundingBox" />
    <linearGradient
       xlink:href="#linearGradient626"
       id="linearGradient625"
       x1="42.9995728"
       y1="77.3980103"
       x2="28.5382881"
       y2="63.0152588"
       gradientUnits="userSpaceOnUse"
       spreadMethod="pad"
       gradientTransform="matrix(0.934001,0.000000,0.000000,1.070663,-1.516226e-6,-1.716230e-7)" />
    <linearGradient
       xlink:href="#linearGradient612"
       id="linearGradient636"
       x1="16.4110699"
       y1="10.6072874"
       x2="24.6243172"
       y2="61.6665344"
       gradientUnits="userSpaceOnUse"
       spreadMethod="pad" />
  </defs>
  <sodipodi:namedview
     id="base"
     inkscape:zoom="5.0416667"
     inkscape:cx="36.000000"
     inkscape:cy="36.000000"
     inkscape:window-width="640"
     inkscape:window-height="536"
     inkscape:window-x="5"
     inkscape:window-y="48"
     inkscape:current-layer="svg596" />
  <g
     id="g898"
     transform="translate(-1.146498,1.146498)">
    <path
       style="fill:#000000;fill-rule:evenodd;stroke:none;stroke-opacity:1;stroke-width:1pt;stroke-linejoin:miter;stroke-linecap:butt;fill-opacity:0.301471;"
       d="M 12.8163 74.753 C 10.3856 73.6481 7.07107 70.1126 8.83884 65.2512 C 9.72267 59.948 25.6326 13.1021 29.1682 10.8924 C 31.3778 8.90368 34.582 8.13026 39.1119 9.34561 C 42.8684 10.2295 76.6769 19.0684 78.6656 20.8361 C 80.6544 22.6039 82.2012 24.0402 80.6544 27.9072 C 79.5496 29.8959 66.4017 74.532 66.1808 77.4047 C 65.2969 80.4983 62.7558 84.2548 58.5573 84.0338 C 54.3589 83.8128 15.9099 75.4159 12.8163 74.753 z "
       id="path794"
       sodipodi:nodetypes="ccccccccc"
       transform="matrix(1.114903,0.000000,0.000000,1.114903,1.287023,-5.035753)" />
    <path
       style="fill:#3d4e67;fill-rule:evenodd;stroke:none;stroke-opacity:1;stroke-width:1pt;stroke-linejoin:miter;stroke-linecap:butt;fill-opacity:1;"
       d="M 12.8163 74.753 C 10.3856 73.6481 7.07107 70.1126 8.83884 65.2512 C 9.72267 59.948 25.6326 13.1021 29.1682 10.8924 C 31.3778 8.90368 34.582 8.13026 39.1119 9.34561 C 42.8684 10.2295 76.6769 19.0684 78.6656 20.8361 C 80.6544 22.6039 82.2012 24.0402 80.6544 27.9072 C 79.5496 29.8959 66.4017 74.532 66.1808 77.4047 C 65.2969 80.4983 62.7558 84.2548 58.5573 84.0338 C 54.3589 83.8128 15.9099 75.4159 12.8163 74.753 z "
       id="path895"
       sodipodi:nodetypes="ccccccccc"
       transform="matrix(1.114903,0.000000,0.000000,1.114903,-1.570116,-9.607182)" />
    <path
       style="fill:#ffffff;fill-rule:evenodd;stroke:none;stroke-opacity:1;stroke-width:1pt;stroke-linejoin:miter;stroke-linecap:butt;fill-opacity:1;"
       d="M 17.8987 70.9965 C 15.3576 70.3336 11.7114 69.6706 13.0373 65.6932 C 15.468 55.9705 27.8424 18.6264 33.1456 13.986 C 34.361 12.8811 38.4489 12.4392 46.1829 14.8699 C 55.0218 17.5215 72.9204 23.4877 74.6882 24.3716 C 76.4559 25.2555 77.1189 25.2555 75.793 29.233 C 73.8043 33.2105 64.9655 67.24 62.7557 72.9852 C 61.209 77.0732 60.8775 78.9514 58.2258 78.9514 "
       id="path896"
       sodipodi:nodetypes="cccccccs"
       transform="matrix(1.114903,0.000000,0.000000,1.114903,-1.570116,-9.607182)" />
    <path
       style="fill:url(#linearGradient636);fill-rule:evenodd;stroke:none;stroke-opacity:1;stroke-width:1pt;stroke-linejoin:miter;stroke-linecap:butt;fill-opacity:1;"
       d="M 28.75 13.75 C 28.75 13.75 31.875 7.49995 39.6875 9.37495 C 47.5 11.25 78.125 19.375 77.8125 21.875 C 77.5 24.375 71.875 39.0625 71.5625 40.3125 C 71.25 41.5625 42.5 40.9375 31.5625 47.5 C 20.625 54.0625 12.5 59.6875 12.5 59.6875 C 12.5 59.6875 23.75 24.6875 28.75 13.75 z "
       id="path636"
       transform="matrix(0.946780,0.000000,0.000000,0.946780,6.111789,-0.736980)" />
  </g>
  <polygon
     sodipodi:type="star"
     style="font-size:12.000000;fill:#f17419;fill-opacity:1.0000000;fill-rule:evenodd;stroke-width:1.0000000pt"
     id="polygon1234"
     sodipodi:sides="6"
     sodipodi:cx="31.528662"
     sodipodi:cy="26.082802"
     sodipodi:r1="18.471146"
     sodipodi:r2="15.996481"
     sodipodi:arg1="0.73050851"
     sodipodi:arg2="1.2541074"
     points="45.2866,38.4076 36.5103,41.2838 27.734,44.16 20.855,37.9975 13.9761,31.8351 15.8734,22.7965 17.7707,13.758 26.547,10.8818 35.3233,8.00564 42.2023,14.1681 49.0813,20.3305 47.1839,29.3691 45.2866,38.4076 "
     transform="matrix(1.244941,0.000000,0.000000,1.244941,5.623906,17.37263)"
     inkscape:flatsided="false"
     inkscape:rounded="0.0000000"
     inkscape:randomized="0.0000000"
     d="M 45.286621,38.407646 L 36.510315,41.283806 L 27.734014,44.159966 L 20.855033,37.997543 L 13.976054,31.835122 L 15.873379,22.796538 L 17.770702,13.757958 L 26.547008,10.881798 L 35.323310,8.0056376 L 42.202291,14.168061 L 49.081269,20.330481 L 47.183944,29.369065 L 45.286621,38.407646 z " />
  <path
     style="fill:#8f450e;fill-opacity:1.0000000;fill-rule:evenodd;stroke:none;stroke-width:1.0000000pt;stroke-linecap:butt;stroke-linejoin:miter;stroke-opacity:1.0000000"
     d="M 44.301956,49.270933 L 40.289256,71.914233 L 61.499456,64.748633 L 65.512156,42.391933 L 44.301956,49.270933 z "
     id="path1271" />
  <path
     style="fill:#f1e36c;fill-opacity:1.0000000;fill-rule:evenodd;stroke:none;stroke-width:1.0000000pt;stroke-linecap:butt;stroke-linejoin:miter;stroke-opacity:1.0000000"
     d="M 44.301956,49.557533 L 40.002656,71.341033 L 23.378456,56.436533 L 29.110956,33.793233 C 28.824356,35.226333 43.728756,50.130833 44.301956,49.557533 z "
     id="path1270"
     sodipodi:nodetypes="ccccc" />
  <path
     style="fill:none;fill-opacity:1.0000000;fill-rule:evenodd;stroke:#00ff00;stroke-width:1.0000000pt;stroke-linecap:butt;stroke-linejoin:miter;stroke-opacity:1.0000000"
     d="M 28.251056,34.939733 L 44.588656,49.844233 L 66.085456,42.678533"
     id="path1237" />
  <path
     style="fill:none;fill-opacity:1.0000000;fill-rule:evenodd;stroke:#00ff00;stroke-width:1.0000000pt;stroke-linecap:butt;stroke-linejoin:miter;stroke-opacity:1.0000000"
     d="M 44.588656,49.844233 L 40.002656,71.914233"
     id="path1238" />
  <path
     style="fill:none;fill-opacity:1.0000000;fill-rule:evenodd;stroke:#00ff00;stroke-width:1.0000000pt;stroke-linecap:butt;stroke-linejoin:miter;stroke-opacity:1.0000000"
     d="M 28.251056,34.939733 L 23.378456,57.009833 L 40.289256,71.914233 L 61.212856,65.321933 L 66.085456,42.965233 L 49.461256,27.774133 L 28.251056,34.939733 z "
     id="path1239"
     sodipodi:nodetypes="ccccccc" />
  <path
     style="fill:none;fill-opacity:1.0000000;fill-rule:evenodd;stroke:#00ff00;stroke-width:1.0000000pt;stroke-linecap:butt;stroke-linejoin:miter;stroke-opacity:1.0000000"
     d="M 37.136356,42.678533 L 57.200056,35.799633"
     id="path1241" />
  <path
     style="fill:none;fill-opacity:1.0000000;fill-rule:evenodd;stroke:#00ff00;stroke-width:1.0000000pt;stroke-linecap:butt;stroke-linejoin:miter;stroke-opacity:1.0000000"
     d="M 36.563156,42.965233 L 31.977156,64.175433"
     id="path1242"
     sodipodi:nodetypes="cc" />
  <path
     style="fill:none;fill-opacity:1.0000000;fill-rule:evenodd;stroke:#00ff00;stroke-width:1.0000000pt;stroke-linecap:butt;stroke-linejoin:miter;stroke-opacity:1.0000000"
     d="M 56.626856,46.404733 L 51.754256,68.474733"
     id="path1243" />
  <path
     style="fill:none;fill-opacity:1.0000000;fill-rule:evenodd;stroke:#00ff00;stroke-width:1.0000000pt;stroke-linecap:butt;stroke-linejoin:miter;stroke-opacity:1.0000000"
     d="M 38.569556,31.213533 C 39.716056,32.073433 55.766956,46.691333 55.766956,46.691333"
     id="path1244"
     sodipodi:nodetypes="cc" />
  <path
     style="fill:none;fill-opacity:1.0000000;fill-rule:evenodd;stroke:#00ff00;stroke-width:1.0000000pt;stroke-linecap:butt;stroke-linejoin:miter;stroke-opacity:1.0000000"
     d="M 25.384756,45.831433 L 42.582156,60.735933 L 63.792456,53.283633"
     id="path1245"
     sodipodi:nodetypes="ccc" />
  <path
     style="font-size:13.000000;font-weight:bold;fill:#3d4e67;stroke-width:1.0000000pt;font-family:Kid Kosmic"
     d="M 75.123191,23.086022 C 74.981289,23.345288 74.743698,23.569388 74.410512,23.758351 C 74.054202,23.967171 73.737347,24.033243 73.460045,23.956595 C 73.231611,23.893453 73.074372,23.731510 72.988480,23.470596 C 71.689110,22.707543 70.363706,22.165541 69.012338,21.844718 C 67.695812,21.524706 66.942349,21.518443 66.752070,21.825861 C 66.718557,21.851769 66.695501,21.871748 66.682806,21.885772 C 66.626753,21.993223 66.788040,22.156286 67.166611,22.375154 C 67.277656,22.449734 67.840079,22.750026 68.853759,23.276103 C 69.291657,23.502550 69.945145,23.854367 70.814294,24.331676 C 71.683347,24.808956 72.264283,25.232952 72.556910,25.603610 C 72.985298,26.468395 73.088311,27.159829 72.866044,27.677939 C 72.663239,28.157542 72.299196,28.680350 71.773985,29.246486 C 70.924872,29.872284 70.027893,30.274137 69.083047,30.452043 C 67.535837,30.744404 66.023917,30.686510 64.547385,30.278385 C 62.736393,29.777812 61.364981,28.814839 60.433077,27.389343 C 60.347675,27.190089 60.332030,26.992582 60.386139,26.796822 C 60.447015,26.576581 60.600249,26.355516 60.846033,26.133680 C 61.194473,25.826093 61.527791,25.716225 61.845864,25.804143 C 61.943792,25.831210 62.048313,25.882095 62.159357,25.956675 C 62.612774,26.635197 63.195332,27.244004 63.906811,27.783140 C 64.168927,27.978535 64.508048,28.133690 64.924049,28.248676 C 65.641930,28.447104 66.588406,28.533174 67.763630,28.506718 C 68.973474,28.323106 69.646396,28.096391 69.782369,27.826668 C 69.892210,27.619961 69.813589,27.268928 69.546605,26.773597 C 69.155534,26.314308 68.484863,25.865509 67.534688,25.427225 C 66.986238,25.187856 66.175069,24.818704 65.101128,24.319962 C 64.320063,23.937240 63.724612,23.438889 63.314721,22.825103 C 63.065104,22.457619 63.009050,22.024947 63.146575,21.527404 C 63.243550,21.176561 63.435577,20.799388 63.722775,20.395816 C 64.380043,19.637934 65.463050,19.230438 66.971600,19.173278 C 68.122245,19.140028 69.321639,19.296006 70.569738,19.640990 C 72.976297,20.306182 74.542140,21.296544 75.267335,22.612200 C 75.231780,22.804269 75.183746,22.962283 75.123191,23.086022 z M 57.591874,16.224992 C 59.272360,16.689492 60.432192,17.449147 61.071399,18.503863 C 61.721037,19.552747 61.912505,20.988655 61.645681,22.811655 C 60.978574,25.129808 59.497512,26.485318 57.202446,26.878378 C 55.319547,27.209610 52.729609,26.906448 49.432466,25.968739 C 48.998233,25.760941 48.743374,25.602724 48.668109,25.494043 C 48.584526,25.383169 48.520999,25.089013 48.477333,24.611522 C 49.194370,22.017396 50.095254,19.711155 51.179984,17.692799 C 51.229244,17.609928 51.266288,17.523575 51.291092,17.433841 C 51.322662,17.319624 51.338782,17.165964 51.339425,16.972960 C 51.334210,16.769622 51.342898,16.627085 51.365437,16.545543 C 51.464651,16.186602 51.806534,15.934266 52.391306,15.788492 C 54.430718,15.684882 56.164305,15.830400 57.591874,16.224992 z M 52.039997,21.157545 C 51.762194,21.844668 51.554566,22.437062 51.417014,22.934702 C 51.292997,23.383377 51.225339,23.755397 51.213917,24.050832 C 51.637298,24.202925 52.077300,24.342183 52.534168,24.468465 C 54.084148,24.896891 55.389285,25.051284 56.449677,24.931668 C 57.981703,24.758052 58.930358,24.010472 59.295643,22.688927 C 59.603685,20.526127 58.570751,19.116695 56.196867,18.460534 C 55.372962,18.232800 54.452442,18.132016 53.435407,18.158205 C 52.918363,19.139211 52.453185,20.139014 52.039997,21.157545 z M 50.416263,16.691438 L 50.418353,16.731545 C 48.672058,17.267471 47.064440,17.635369 45.595527,17.835144 C 47.343926,19.705861 48.043394,21.273365 47.693882,22.537849 C 47.648776,22.701030 47.588529,22.855564 47.513014,23.001520 C 47.099042,23.800301 46.276174,24.235814 45.044503,24.308087 C 44.197320,24.354874 43.210499,24.240222 42.083902,23.963890 C 40.286027,23.510829 38.306310,22.524654 36.144806,21.005173 C 36.141589,20.635454 36.197139,20.339144 36.311509,20.116051 C 36.630599,19.501762 37.071529,19.272445 37.634422,19.428032 C 37.740446,19.457338 37.854209,19.506317 37.975684,19.575066 C 40.013181,20.717792 41.581413,21.445393 42.680452,21.757995 C 43.793543,22.083196 44.425540,22.099875 44.576500,21.807839 C 44.749064,21.469172 44.448160,20.810915 43.673553,19.832794 C 43.197571,19.235912 42.655810,18.638278 42.048413,18.040138 C 41.997281,18.034824 41.947198,18.025337 41.898234,18.011804 C 41.368016,17.865247 41.170502,17.547232 41.305789,17.057785 C 41.330593,16.968050 41.365854,16.872387 41.411449,16.770865 C 41.648257,16.327014 42.148916,16.136098 42.913204,16.198161 C 43.985801,16.002862 45.006652,15.740658 45.975715,15.411331 C 44.694103,15.092255 42.918578,14.733247 40.649263,14.334241 C 40.081029,14.229881 39.778008,13.944122 39.740270,13.477089 C 39.726540,13.367988 39.733174,13.264412 39.760243,13.166484 C 39.848161,12.848411 40.157736,12.538798 40.688722,12.237783 C 43.525612,12.521329 46.073828,12.975432 48.333496,13.600022 C 49.149305,13.825518 49.981614,14.086284 50.830587,14.382472 C 51.218386,14.726730 51.346845,15.135425 51.216062,15.608583 C 51.067240,16.146994 50.800650,16.507913 50.416263,16.691438 z M 35.251438,20.139165 C 35.138689,20.547069 34.843620,20.851874 34.366421,21.053631 C 33.897319,21.257626 33.442526,21.298748 33.002043,21.176995 C 32.838862,21.131890 32.694688,21.065688 32.569498,20.978483 C 32.206794,20.702580 32.082900,20.356567 32.197886,19.940566 C 32.276799,19.655071 32.455450,19.405860 32.733716,19.193002 C 33.262884,18.803609 33.821092,18.690124 34.408467,18.852479 C 34.579745,18.899822 34.735040,18.973456 34.874229,19.073453 C 35.247390,19.343427 35.373191,19.698682 35.251438,20.139165 z "
     id="path1275" />
</svg>
